# Blender 4.2.0
# www.blender.org
o SKEL_ROOT.004
v -0.168812 0.403491 0.074303
v -0.179348 0.375825 0.051367
v -0.170076 0.364283 0.064480
v 0.174599 0.381498 0.047439
v -0.187068 0.380544 0.040398
v -0.124750 0.496242 0.040218
v -0.104804 0.458468 0.069931
v -0.093503 0.511046 0.038656
v 0.169489 0.369765 0.062724
v 0.166163 0.401926 0.077822
v 0.166046 0.359197 0.079403
v 0.148972 0.480493 0.037817
v 0.126670 0.453236 0.066519
v 0.155132 0.449139 0.061347
v 0.163127 0.383368 0.092492
v 0.086788 0.506000 0.044730
v 0.172269 0.409564 0.065349
v 0.107797 0.411376 0.102808
v 0.138465 0.409382 0.093678
v -0.154470 0.486469 0.031316
v -0.130629 0.457105 0.061533
v -0.178300 0.481581 0.024290
v -0.112677 0.415528 0.097423
v -0.144513 0.413789 0.086372
v -0.178976 0.454413 0.047131
v 0.119290 0.489073 0.046672
v 0.100086 0.455573 0.073343
v -0.157384 0.454279 0.052379
v 0.170633 0.480876 0.030546
v 0.172769 0.448366 0.055262
v -0.180402 0.409164 0.060553
v 0.053789 0.390503 0.126227
v -0.119251 0.386935 0.118270
v -0.147211 0.383797 0.105743
v 0.082403 0.389951 0.124042
v 0.114675 0.388672 0.120348
v 0.075123 0.412608 0.106666
v -0.088358 0.388708 0.123264
v -0.080331 0.415644 0.103126
v 0.141351 0.386520 0.109450
v -0.062527 0.388971 0.125930
v -0.040677 0.415400 0.107242
v -0.167485 0.378865 0.084277
v -0.066577 0.502100 0.055226
v 0.060943 0.496244 0.058906
v -0.038373 0.491645 0.070806
v -0.040832 0.456863 0.086202
v 0.042543 0.493054 0.065045
v -0.071651 0.457713 0.079574
v 0.036367 0.411926 0.110102
v 0.040451 0.456751 0.086904
v 0.067665 0.456440 0.080035
v -0.078520 0.527895 0.033161
v -0.076956 0.517285 0.043068
v -0.078704 0.545658 0.013192
v 0.078565 0.546517 0.014230
v 0.076195 0.536564 0.023882
v -0.050721 0.538505 0.057188
v 0.072937 0.531048 0.035698
v 0.053507 0.550149 0.050097
v 0.071336 0.519595 0.045674
v 0.070041 0.510056 0.053764
v 0.041223 0.539355 0.060641
v 0.071874 0.502028 0.055544
v -0.057256 0.578583 0.021502
v 0.062236 0.568506 0.030311
v 0.061893 0.580105 0.022351
v 0.057638 0.572353 0.030991
v 0.075108 0.526915 0.033260
v 0.073803 0.514857 0.044209
v -0.054699 0.562172 0.039151
v -0.055982 0.570517 0.031275
v -0.057959 0.539521 0.054745
v -0.075428 0.507710 0.051616
v -0.060870 0.574756 0.020744
v 0.077183 0.551040 0.015752
v 0.074943 0.540804 0.026179
v -0.058926 0.549939 0.045517
v -0.075825 0.533855 0.035488
v -0.074962 0.526322 0.043180
v -0.054017 0.553365 0.046377
v -0.078836 0.536913 0.023791
v 0.047567 0.552313 0.050110
v 0.053707 0.563578 0.039934
v -0.059181 0.567366 0.030429
v -0.076790 0.550814 0.015332
v -0.076517 0.542405 0.025666
v -0.059466 0.558456 0.038435
v 0.049545 0.539797 0.059600
v -0.073578 0.520100 0.049709
v 0.058380 0.559844 0.039906
v 0.065497 0.576120 0.021164
v -0.325243 0.328338 -0.031380
v 0.308716 0.354857 -0.054336
v 0.292470 0.376592 -0.029716
v 0.306650 0.352321 -0.029569
v -0.213869 0.476856 0.011975
v -0.229877 0.478940 -0.015619
v -0.236830 0.448727 0.000184
v -0.260581 0.381221 0.010199
v -0.288449 0.368799 -0.009893
v -0.277563 0.356025 0.007380
v 0.241737 0.399541 0.013755
v 0.261553 0.433862 -0.055677
v 0.244333 0.459514 -0.025485
v 0.260254 0.430302 -0.025135
v 0.234267 0.446160 0.006513
v 0.255523 0.417317 -0.000372
v -0.231098 0.401546 -0.099383
v -0.210387 0.418880 -0.104831
v -0.245523 0.403830 0.013268
v 0.242649 0.413226 -0.093647
v 0.270179 0.398043 -0.073297
v 0.261732 0.390159 -0.089149
v 0.186423 0.429319 -0.116813
v 0.221702 0.436295 -0.098805
v 0.210968 0.413630 -0.109082
v 0.306696 0.350476 -0.068039
v 0.321509 0.332398 -0.052379
v 0.317557 0.329627 -0.068474
v -0.308244 0.350379 -0.031708
v -0.328690 0.330150 -0.052349
v -0.185314 0.425818 -0.111831
v -0.223147 0.442269 -0.100120
v -0.199340 0.457997 -0.107750
v 0.285309 0.368832 -0.002541
v 0.258031 0.377082 0.010002
v 0.271715 0.355882 0.008821
v -0.293618 0.378045 -0.032461
v -0.310454 0.353247 -0.052296
v 0.321587 0.330348 -0.028916
v 0.291335 0.332567 -0.092530
v 0.313029 0.325261 -0.084264
v 0.304991 0.316875 -0.095996
v -0.244709 0.460336 -0.029306
v -0.258266 0.436965 -0.056026
v -0.260715 0.430821 -0.031723
v -0.295824 0.336723 -0.098681
v -0.274267 0.360801 -0.097934
v 0.315491 0.323084 -0.005631
v 0.287335 0.332726 0.008758
v 0.304130 0.311788 0.006260
v -0.236363 0.454423 -0.081009
v -0.243577 0.463457 -0.056998
v 0.221075 0.423656 0.022592
v -0.256394 0.420376 -0.008377
v 0.297820 0.340263 -0.083015
v 0.277063 0.403749 -0.054764
v 0.291427 0.379291 -0.053927
v 0.233639 0.396690 -0.101572
v 0.254929 0.378946 -0.099441
v 0.288612 0.374004 -0.070634
v -0.284710 0.371261 -0.088366
v -0.309094 0.349991 -0.069939
v -0.291820 0.376846 -0.072976
v -0.264153 0.395873 -0.090353
v -0.271461 0.403140 -0.075927
v -0.305246 0.345142 -0.086449
v 0.279221 0.367040 -0.085597
v -0.252078 0.382513 -0.097863
v -0.222116 0.505424 -0.031189
v -0.229703 0.482756 -0.056858
v -0.232208 0.484831 -0.030283
v -0.291412 0.333166 0.005870
v -0.317232 0.320532 -0.011167
v -0.305000 0.310229 0.003473
v -0.277097 0.408202 -0.057487
v -0.277447 0.403296 -0.032417
v 0.200185 0.448448 0.032585
v 0.253133 0.425006 -0.075573
v 0.272076 0.392000 -0.004413
v -0.243750 0.418890 -0.094136
v -0.252608 0.429854 -0.078641
v -0.271748 0.395084 -0.012341
v 0.300109 0.343240 -0.002465
v 0.235460 0.451521 -0.077864
v 0.225954 0.481172 -0.008654
v 0.208442 0.478042 0.014627
v -0.207431 0.450992 0.027689
v -0.227896 0.426961 0.018337
v -0.326921 0.328503 -0.070026
v -0.321323 0.322816 -0.087229
v 0.212681 0.500184 -0.079910
v 0.223894 0.487797 -0.056447
v 0.219666 0.477070 -0.078031
v 0.273002 0.357526 -0.095882
v -0.210581 0.482363 -0.097521
v -0.222852 0.478136 -0.081210
v -0.217650 0.496443 -0.080516
v -0.301668 0.343084 -0.009161
v 0.276395 0.402660 -0.026567
v -0.309661 0.315869 -0.099192
v -0.294784 0.380140 -0.055778
v 0.217329 0.509614 -0.030927
v 0.226340 0.487179 -0.029269
v 0.244846 0.461817 -0.055080
v 0.204776 0.483077 -0.097652
v 0.196441 0.458342 -0.109053
v 0.215159 0.467182 -0.089887
v 0.214315 0.498018 -0.005345
v -0.218464 0.470449 -0.093587
v -0.218198 0.495978 -0.007050
v -0.221846 0.504421 -0.056570
v 0.216470 0.507832 -0.055862
vn -0.7234 0.2615 0.6390
vn -0.8612 -0.3747 0.3434
vn -0.9528 -0.2684 0.1420
vn -0.3068 0.5440 0.7810
vn -0.2419 0.5249 0.8160
vn -0.2686 0.6357 0.7237
vn 0.9683 -0.2087 0.1371
vn 0.7760 0.2588 0.5752
vn 0.9789 -0.1862 0.0841
vn 0.2994 0.5668 0.7675
vn 0.2678 0.5531 0.7889
vn 0.3824 0.4864 0.7856
vn 0.7907 0.0748 0.6076
vn 0.1929 0.5903 0.7838
vn 0.3800 0.5278 0.7596
vn -0.3375 0.5422 0.7695
vn -0.3197 0.5282 0.7866
vn -0.2248 0.5771 0.7851
vn -0.3967 0.5270 0.7516
vn -0.3857 0.4180 0.8225
vn -0.2988 0.5771 0.7600
vn 0.3005 0.5213 0.7987
vn 0.2073 0.5321 0.8209
vn -0.3856 0.4728 0.7923
vn 0.4420 0.4143 0.7956
vn 0.3127 0.5789 0.7531
vn -0.6509 0.1329 0.7474
vn -0.2716 0.6509 0.7089
vn -0.5219 0.5729 0.6320
vn 0.0913 0.7156 0.6925
vn 0.2170 0.7286 0.6497
vn 0.1239 0.5528 0.8241
vn -0.1225 0.6950 0.7085
vn -0.1319 0.5594 0.8183
vn 0.7942 0.3547 0.4935
vn 0.4315 0.6737 0.6000
vn -0.0215 0.6126 0.7901
vn -0.9187 0.1668 0.3580
vn 0.2188 0.5237 0.8233
vn 0.2309 0.5869 0.7761
vn -0.1957 0.4792 0.8556
vn -0.2010 0.4845 0.8514
vn -0.2673 0.5200 0.8113
vn -0.0697 0.5049 0.8604
vn -0.1576 0.4276 0.8901
vn 0.2240 0.4966 0.8386
vn 0.1997 0.5097 0.8368
vn 0.1561 0.4801 0.8632
vn -0.0045 0.6132 0.7899
vn 0.0523 0.5056 0.8612
vn 0.8888 -0.3130 0.3348
vn -0.7707 -0.4162 0.4824
vn 0.7873 0.3096 0.5332
vn 0.6719 0.3732 0.6398
vn 0.7493 0.3444 0.5656
vn 0.5846 0.2487 0.7723
vn -0.0130 0.1523 0.9883
vn 0.1705 -0.1825 0.9683
vn 0.7740 0.3201 0.5463
vn 0.3154 0.6859 0.6558
vn 0.0641 0.7224 0.6886
vn 0.9959 -0.0799 0.0429
vn 0.9955 -0.0744 0.0585
vn -0.5542 0.3553 0.7528
vn -0.4338 0.0073 0.9010
vn -0.0409 0.1758 0.9836
vn 0.8514 0.2887 0.4379
vn 0.8254 0.2789 0.4908
vn 0.9881 -0.1519 0.0254
vn -0.6831 0.4523 0.5734
vn -0.7819 0.4099 0.4697
vn -0.7670 0.3896 0.5099
vn 0.0090 0.6992 0.7148
vn -0.1523 0.6881 0.7094
vn -0.7650 0.4571 0.4536
vn -0.8234 0.4211 0.3804
vn -0.8067 0.4275 0.4081
vn -0.9988 0.0233 0.0420
vn -0.7263 0.4570 0.5134
vn -0.3290 0.6752 0.6602
vn 0.5491 0.3319 0.7670
vn -0.7282 0.2980 0.6172
vn -0.9954 -0.0869 -0.0393
vn -0.9943 0.0098 0.1065
vn -0.9912 -0.0392 0.1263
vn -0.4828 0.6342 0.6039
vn -0.7912 0.4265 0.4382
vn -0.1881 0.5986 0.7787
vn -0.2416 0.6242 0.7430
vn 0.9808 -0.1904 0.0414
vn 0.7283 0.3381 0.5960
vn 0.8363 0.3100 0.4522
vn 0.8403 0.5386 -0.0607
vn 0.8398 0.5090 0.1890
vn 0.8262 0.5085 0.2425
vn -0.6503 0.4109 0.6389
vn -0.8165 0.3994 0.4169
vn -0.7629 0.3634 0.5346
vn -0.5163 0.2664 0.8139
vn -0.7323 0.4378 0.5217
vn -0.4688 0.2225 0.8549
vn 0.8611 0.4848 -0.1535
vn 0.8462 0.4844 0.2220
vn 0.8322 0.4736 0.2884
vn 0.7091 0.3545 0.6095
vn 0.7006 0.3516 0.6209
vn 0.5613 0.3116 -0.7667
vn 0.7319 0.4548 -0.5075
vn 0.5957 0.3837 -0.7056
vn 0.2968 0.0478 -0.9537
vn 0.5480 0.2760 -0.7896
vn 0.3110 0.0240 -0.9501
vn 0.7415 0.4466 -0.5007
vn 0.8363 0.5448 -0.0621
vn 0.7326 0.5499 -0.4012
vn -0.8057 0.5196 0.2843
vn -0.7841 0.6192 0.0419
vn -0.7482 0.5437 0.3802
vn -0.2124 -0.0694 -0.9747
vn -0.4776 0.1849 -0.8589
vn -0.2813 0.1613 -0.9460
vn 0.6946 0.4157 0.5871
vn 0.4391 0.2178 0.8716
vn 0.4000 0.2317 0.8868
vn -0.8273 0.4998 0.2564
vn -0.8433 0.5373 -0.0123
vn 0.7970 0.5547 0.2389
vn 0.4321 0.3569 -0.8282
vn 0.5974 0.5764 -0.5576
vn 0.3799 0.4112 -0.8286
vn -0.8692 0.4681 0.1592
vn -0.8476 0.5041 -0.1658
vn -0.8456 0.4838 0.2256
vn 0.6862 0.4028 0.6057
vn 0.3989 0.2275 0.8883
vn 0.4278 0.2228 0.8760
vn -0.7585 0.4100 -0.5066
vn -0.8333 0.5075 -0.2191
vn 0.5458 0.1431 0.8256
vn 0.4997 0.1598 0.8513
vn -0.7578 0.3922 0.5214
vn 0.6268 0.4330 -0.6478
vn 0.8568 0.4787 -0.1915
vn 0.8222 0.5398 -0.1807
vn 0.3239 0.1341 -0.9366
vn 0.3758 0.2333 -0.8968
vn 0.7276 0.4993 -0.4705
vn -0.5870 0.4212 -0.6914
vn -0.7768 0.5628 -0.2825
vn -0.7758 0.5053 -0.3778
vn -0.5058 0.3458 -0.7903
vn -0.7335 0.4885 -0.4726
vn -0.2865 0.2700 -0.9193
vn -0.6398 0.4987 -0.5848
vn 0.6332 0.3879 -0.6697
vn -0.7788 0.6112 0.1409
vn -0.8853 0.4383 -0.1552
vn -0.8891 0.4474 0.0970
vn -0.4578 0.2131 0.8631
vn -0.6705 0.3834 0.6351
vn -0.4412 0.2072 0.8732
vn -0.8355 0.5335 -0.1321
vn -0.8297 0.5051 0.2378
vn 0.5907 0.2209 0.7761
vn 0.7063 0.4088 -0.5780
vn 0.6954 0.3877 0.6051
vn -0.4866 0.2418 -0.8395
vn -0.7260 0.4545 -0.5161
vn -0.7346 0.4392 0.5172
vn 0.6831 0.4296 0.5906
vn 0.6996 0.4111 -0.5844
vn 0.7867 0.4459 0.4269
vn 0.5941 0.4074 0.6936
vn -0.5747 0.2377 0.7831
vn -0.6201 0.2360 0.7482
vn -0.5987 0.2063 0.7740
vn -0.7642 0.5790 -0.2842
vn -0.3368 0.2937 -0.8946
vn -0.6626 0.4529 -0.5966
vn 0.6880 0.5248 -0.5013
vn 0.8694 0.4528 -0.1979
vn 0.7846 0.3882 -0.4834
vn -0.4176 0.4053 -0.8132
vn -0.8119 0.4076 -0.4180
vn -0.6832 0.5465 -0.4844
vn -0.7177 0.4342 0.5445
vn 0.8508 0.4817 0.2101
vn 0.4538 0.2509 -0.8550
vn -0.2142 -0.0940 -0.9723
vn -0.2203 0.1826 -0.9582
vn -0.1943 0.0370 -0.9802
vn -0.8450 0.5288 -0.0802
vn 0.7700 0.6229 0.1383
vn 0.8516 0.5185 0.0766
vn 0.8093 0.5454 -0.2180
vn 0.5104 0.3794 -0.7717
vn 0.4091 0.2291 -0.8833
vn 0.6698 0.2997 -0.6794
vn 0.6505 0.5766 0.4944
vn -0.6329 0.2804 -0.7217
vn -0.6677 0.5629 0.4872
vn -0.7332 0.6470 -0.2093
vn -0.3685 0.2493 -0.8955
vn 0.7502 0.6303 -0.2000
vt 0.847074 0.702684
vt 0.822325 0.677432
vt 0.834531 0.666361
vt 0.881912 0.790515
vt 0.905720 0.751617
vt 0.909294 0.805981
vt 0.205712 0.675556
vt 0.188568 0.706376
vt 0.193132 0.668004
vt 0.178313 0.784483
vt 0.152347 0.753735
vt 0.179657 0.749980
vt 0.198760 0.713704
vt 0.128512 0.713606
vt 0.157716 0.712495
vt 0.852055 0.784013
vt 0.880275 0.751465
vt 0.904062 0.711125
vt 0.873351 0.710141
vt 0.833444 0.750647
vt 0.828985 0.781268
vt 0.148374 0.789540
vt 0.126472 0.754950
vt 0.853582 0.750213
vt 0.196845 0.750216
vt 0.199305 0.783812
vt 0.832499 0.709246
vt 0.902930 0.685575
vt 0.876436 0.683936
vt 0.103410 0.694075
vt 0.130662 0.693194
vt 0.099401 0.714749
vt 0.929508 0.687145
vt 0.933266 0.711653
vt 0.179640 0.690220
vt 0.155350 0.692304
vt 0.951805 0.687692
vt 0.850855 0.680238
vt 0.091339 0.794977
vt 0.118947 0.806116
vt 0.936573 0.750871
vt 0.962264 0.783923
vt 0.936940 0.794223
vt 0.968262 0.712933
vt 0.963915 0.751023
vt 0.069568 0.791886
vt 0.095985 0.755778
vt 0.070324 0.755857
vt 0.078949 0.694623
vt 0.065237 0.715023
vt 0.218554 0.682065
vt 0.811679 0.682356
vt 0.943024 0.302518
vt 0.980146 0.308369
vt 0.942360 0.317390
vt 0.941582 0.332200
vt 0.989072 0.325175
vt 0.938030 0.336923
vt 0.976133 0.282002
vt 0.980250 0.268926
vt 0.981776 0.281459
vt 0.938288 0.303058
vt 0.938083 0.319932
vt 0.921995 0.019347
vt 0.877719 0.002887
vt 0.928393 0.015573
vt 0.944284 0.275376
vt 0.943532 0.288985
vt 0.938735 0.289541
vt 0.919199 0.033249
vt 0.882814 0.039489
vt 0.882611 0.024242
vt 0.983661 0.294261
vt 0.986192 0.309782
vt 0.915342 0.060380
vt 0.883655 0.069299
vt 0.883235 0.054263
vt 0.877280 0.052880
vt 0.917090 0.047432
vt 0.920574 0.060888
vt 0.982889 0.321725
vt 0.882254 0.009031
vt 0.877685 0.068459
vt 0.876768 0.037735
vt 0.877156 0.020386
vt 0.918752 0.073856
vt 0.913765 0.073332
vt 0.925069 0.031569
vt 0.922446 0.047875
vt 0.939317 0.275809
vt 0.977946 0.294907
vt 0.974819 0.269329
vt 0.427493 0.761050
vt 0.399682 0.784972
vt 0.401591 0.759966
vt 0.712945 0.445794
vt 0.685926 0.442176
vt 0.701950 0.415159
vt 0.716139 0.350631
vt 0.692505 0.330537
vt 0.713516 0.325706
vt 0.422586 0.841697
vt 0.393714 0.869131
vt 0.393180 0.839313
vt 0.361775 0.863660
vt 0.368836 0.832488
vt 0.469730 0.832268
vt 0.445085 0.810015
vt 0.467337 0.805121
vt 0.513522 0.874774
vt 0.474862 0.862823
vt 0.501676 0.847913
vt 0.445807 0.757515
vt 0.427599 0.738674
vt 0.446594 0.737644
vt 0.667445 0.307736
vt 0.642935 0.284435
vt 0.665389 0.282307
vt 0.553865 0.421614
vt 0.593340 0.416345
vt 0.582145 0.441941
vt 0.375237 0.781287
vt 0.350845 0.798420
vt 0.353866 0.776321
vt 0.668680 0.335370
vt 0.644378 0.309817
vt 0.402433 0.735953
vt 0.485786 0.749918
vt 0.466691 0.737122
vt 0.486367 0.735027
vt 0.673043 0.420970
vt 0.647533 0.395106
vt 0.671532 0.391935
vt 0.380661 0.732181
vt 0.356105 0.752005
vt 0.359679 0.727957
vt 0.621650 0.421030
vt 0.646868 0.421454
vt 0.338378 0.848619
vt 0.346836 0.821941
vt 0.695285 0.384458
vt 0.466211 0.752999
vt 0.424038 0.812499
vt 0.425621 0.787664
vt 0.493148 0.822566
vt 0.489073 0.798320
vt 0.444945 0.783435
vt 0.602461 0.330991
vt 0.623637 0.306632
vt 0.622868 0.334683
vt 0.601416 0.358498
vt 0.623225 0.363391
vt 0.582496 0.325696
vt 0.603590 0.304357
vt 0.466266 0.779445
vt 0.670290 0.463392
vt 0.647039 0.443546
vt 0.671804 0.446387
vt 0.711244 0.300688
vt 0.688722 0.279437
vt 0.709062 0.276947
vt 0.645306 0.365350
vt 0.670525 0.362486
vt 0.329131 0.878492
vt 0.444415 0.839253
vt 0.373521 0.804551
vt 0.599342 0.386787
vt 0.622790 0.393545
vt 0.692903 0.357238
vt 0.376725 0.755408
vt 0.443862 0.867045
vt 0.377689 0.893855
vt 0.352710 0.898297
vt 0.717311 0.375288
vt 0.731065 0.427223
vt 0.724664 0.401074
vt 0.622272 0.283635
vt 0.584190 0.301257
vt 0.602058 0.282852
vt 0.443713 0.915983
vt 0.421294 0.898400
vt 0.443448 0.895355
vt 0.605344 0.455153
vt 0.622396 0.445251
vt 0.625372 0.461857
vt 0.692057 0.305582
vt 0.395412 0.810883
vt 0.487181 0.774362
vt 0.567849 0.401379
vt 0.580095 0.350917
vt 0.576494 0.376465
vt 0.644367 0.337471
vt 0.398416 0.918548
vt 0.396915 0.897845
vt 0.421147 0.871056
vt 0.466155 0.907753
vt 0.488891 0.893179
vt 0.458999 0.891490
vt 0.374415 0.911255
vt 0.609887 0.441576
vt 0.692134 0.455907
vt 0.647850 0.464796
vt 0.582918 0.282895
vt 0.420917 0.919181
s 1
f 1/1/1 2/2/2 3/3/3
f 6/4/4 7/5/5 8/6/6
f 9/7/7 10/8/8 11/9/9
f 12/10/10 13/11/11 14/12/12
f 17/13/13 14/12/12 10/8/8
f 13/11/11 18/14/14 19/15/15
f 20/16/16 21/17/17 6/4/4
f 23/18/18 21/17/17 24/19/19
f 25/20/20 20/16/16 22/21/21
f 26/22/22 27/23/23 13/11/11
f 24/19/19 28/24/24 1/1/1
f 14/12/12 19/15/15 10/8/8
f 12/10/10 30/25/25 29/26/26
f 31/27/27 28/24/24 25/20/20
f 33/28/28 24/19/19 34/29/29
f 18/14/14 35/30/30 36/31/31
f 27/23/23 37/32/32 18/14/14
f 23/18/18 38/33/33 39/34/34
f 19/15/15 15/35/35 10/8/8
f 19/15/15 36/31/31 40/36/36
f 41/37/37 39/34/34 38/33/33
f 34/29/29 1/1/1 43/38/38
f 45/39/39 27/23/23 16/40/40
f 49/41/41 46/42/42 44/43/43
f 49/41/41 42/44/44 47/45/45
f 7/5/5 39/34/34 49/41/41
f 7/5/5 44/43/43 8/6/6
f 48/46/46 52/47/47 45/39/39
f 51/48/48 37/32/32 52/47/47
f 32/49/49 37/32/32 50/50/50
f 1/1/1 31/27/27 2/2/2
f 6/4/4 21/17/17 7/5/5
f 9/7/7 17/13/13 10/8/8
f 12/10/10 26/22/22 13/11/11
f 11/9/9 10/8/8 15/35/35
f 17/13/13 30/25/25 14/12/12
f 13/11/11 27/23/23 18/14/14
f 17/13/13 9/7/7 4/51/51
f 20/16/16 28/24/24 21/17/17
f 23/18/18 7/5/5 21/17/17
f 25/20/20 28/24/24 20/16/16
f 26/22/22 16/40/40 27/23/23
f 24/19/19 21/17/17 28/24/24
f 14/12/12 13/11/11 19/15/15
f 12/10/10 14/12/12 30/25/25
f 31/27/27 1/1/1 28/24/24
f 33/28/28 23/18/18 24/19/19
f 5/52/52 2/2/2 31/27/27
f 18/14/14 37/32/32 35/30/30
f 27/23/23 52/47/47 37/32/32
f 23/18/18 33/28/28 38/33/33
f 19/15/15 40/36/36 15/35/35
f 19/15/15 18/14/14 36/31/31
f 41/37/37 42/44/44 39/34/34
f 34/29/29 24/19/19 1/1/1
f 43/38/38 1/1/1 3/3/3
f 45/39/39 52/47/47 27/23/23
f 49/41/41 47/45/45 46/42/42
f 49/41/41 39/34/34 42/44/44
f 7/5/5 23/18/18 39/34/34
f 7/5/5 49/41/41 44/43/43
f 48/46/46 51/48/48 52/47/47
f 51/48/48 50/50/50 37/32/32
f 32/49/49 35/30/30 37/32/32
f 59/53/53 60/54/54 61/55/55
f 62/56/56 63/57/57 64/58/58
f 66/59/59 67/60/60 68/61/61
f 69/62/62 61/55/55 70/63/63
f 73/64/64 74/65/65 58/66/66
f 76/67/67 66/59/59 77/68/68
f 59/53/53 57/69/69 77/68/68
f 78/70/70 79/71/71 80/72/72
f 60/54/54 84/73/73 83/74/74
f 85/75/75 86/76/76 87/77/77
f 82/78/78 79/71/71 87/77/77
f 88/79/79 72/80/80 85/75/75
f 62/56/56 89/81/81 63/57/57
f 88/79/79 87/77/77 79/71/71
f 73/64/64 90/82/82 74/65/65
f 55/83/83 87/77/77 86/76/76
f 80/72/72 53/84/84 54/85/85
f 85/75/75 65/86/86 75/87/87
f 90/82/82 54/85/85 74/65/65
f 81/88/88 73/64/64 58/66/66
f 71/89/89 78/70/70 81/88/88
f 77/68/68 56/90/90 76/67/67
f 77/68/68 91/91/91 59/53/53
f 91/91/91 68/61/61 84/73/73
f 73/64/64 80/72/72 90/82/82
f 89/81/81 83/74/74 63/57/57
f 70/63/63 62/56/56 64/58/58
f 61/55/55 89/81/81 62/56/56
f 59/53/53 91/91/91 60/54/54
f 66/59/59 92/92/92 67/60/60
f 69/62/62 59/53/53 61/55/55
f 76/67/67 92/92/92 66/59/59
f 59/53/53 69/62/62 57/69/69
f 78/70/70 88/79/79 79/71/71
f 60/54/54 91/91/91 84/73/73
f 85/75/75 75/87/87 86/76/76
f 82/78/78 53/84/84 79/71/71
f 88/79/79 71/89/89 72/80/80
f 88/79/79 85/75/75 87/77/77
f 55/83/83 82/78/78 87/77/77
f 80/72/72 79/71/71 53/84/84
f 85/75/75 72/80/80 65/86/86
f 90/82/82 80/72/72 54/85/85
f 81/88/88 78/70/70 73/64/64
f 71/89/89 88/79/79 78/70/70
f 77/68/68 57/69/69 56/90/90
f 77/68/68 66/59/59 91/91/91
f 91/91/91 66/59/59 68/61/61
f 73/64/64 78/70/70 80/72/72
f 89/81/81 60/54/54 83/74/74
f 70/63/63 61/55/55 62/56/56
f 61/55/55 60/54/54 89/81/81
f 94/93/93 95/94/94 96/95/95
f 97/96/96 98/97/97 99/98/98
f 100/99/99 101/100/100 102/101/101
f 104/102/102 105/103/103 106/104/104
f 106/104/104 107/105/105 108/106/106
f 112/107/107 113/108/108 114/109/109
f 115/110/110 116/111/111 117/112/112
f 118/113/113 119/114/114 120/115/115
f 121/116/116 122/117/117 93/118/118
f 123/119/119 124/120/120 125/121/121
f 126/122/122 127/123/123 128/124/124
f 129/125/125 130/126/126 121/116/116
f 119/114/114 96/95/95 131/127/127
f 132/128/128 133/129/129 134/130/130
f 135/131/131 136/132/132 137/133/133
f 140/134/134 141/135/135 142/136/136
f 143/137/137 136/132/132 144/138/138
f 108/106/106 145/139/139 103/140/140
f 99/98/98 137/133/133 146/141/141
f 147/142/142 120/115/115 133/129/129
f 148/143/143 95/94/94 149/144/144
f 150/145/145 114/109/109 151/146/146
f 152/147/147 94/93/93 118/113/113
f 153/148/148 154/149/149 155/150/150
f 156/151/151 155/150/150 157/152/152
f 117/112/112 112/107/107 150/145/145
f 139/153/153 158/154/154 153/148/148
f 159/155/155 118/113/113 147/142/142
f 161/156/156 162/157/157 163/158/158
f 164/159/159 165/160/160 166/161/161
f 137/133/133 167/162/162 168/163/163
f 107/105/105 169/164/164 145/139/139
f 114/109/109 152/147/147 159/155/155
f 170/165/165 148/143/143 113/108/108
f 171/166/166 103/140/140 127/123/123
f 172/167/167 157/152/152 173/168/168
f 116/111/111 170/165/165 112/107/107
f 174/169/169 129/125/125 101/100/100
f 175/170/170 128/124/124 141/135/135
f 176/171/171 104/102/102 170/165/165
f 177/172/172 178/173/173 107/105/105
f 111/174/174 174/169/169 100/99/99
f 179/175/175 99/98/98 180/176/176
f 158/154/154 181/177/177 154/149/149
f 138/178/178 182/179/179 158/154/154
f 183/180/180 184/181/181 185/182/182
f 187/183/183 188/184/184 189/185/185
f 190/186/186 93/118/118 165/160/160
f 154/149/149 122/117/117 130/126/126
f 191/187/187 104/102/102 106/104/104
f 124/120/120 173/168/168 143/137/137
f 151/146/146 159/155/155 186/188/188
f 180/176/176 146/141/141 111/174/174
f 110/189/189 172/167/167 124/120/120
f 113/108/108 149/144/144 152/147/147
f 131/127/127 175/170/170 140/134/134
f 160/190/190 153/148/148 156/151/151
f 188/184/184 144/138/138 162/157/157
f 102/101/101 190/186/186 164/159/159
f 109/191/191 156/151/151 172/167/167
f 146/141/141 168/163/163 174/169/169
f 191/187/187 108/106/106 171/166/166
f 186/188/188 147/142/142 132/128/128
f 168/163/163 193/192/192 129/125/125
f 96/95/95 126/122/122 175/170/170
f 101/100/100 121/116/116 190/186/186
f 173/168/168 167/162/162 136/132/132
f 157/152/152 193/192/192 167/162/162
f 155/150/150 130/126/126 193/192/192
f 184/181/181 194/193/193 195/194/194
f 95/94/94 171/166/166 126/122/122
f 196/195/195 195/194/194 105/103/103
f 185/182/182 196/195/195 176/171/171
f 185/182/182 197/196/196 183/180/180
f 198/197/197 199/198/198 116/111/111
f 199/198/198 176/171/171 116/111/111
f 200/199/199 195/194/194 194/193/193
f 177/172/172 105/103/103 195/194/194
f 135/131/131 162/157/157 144/138/138
f 201/200/200 125/121/121 124/120/120
f 163/158/158 202/201/201 161/156/156
f 189/185/185 162/157/157 203/202/202
f 135/131/131 98/97/97 163/158/158
f 201/200/200 143/137/137 188/184/184
f 94/93/93 149/144/144 95/94/94
f 97/96/96 202/201/201 98/97/97
f 100/99/99 174/169/169 101/100/100
f 104/102/102 196/195/195 105/103/103
f 106/104/104 105/103/103 107/105/105
f 112/107/107 170/165/165 113/108/108
f 115/110/110 198/197/197 116/111/111
f 118/113/113 94/93/93 119/114/114
f 121/116/116 130/126/126 122/117/117
f 123/119/119 110/189/189 124/120/120
f 126/122/122 171/166/166 127/123/123
f 129/125/125 193/192/192 130/126/126
f 119/114/114 94/93/93 96/95/95
f 132/128/128 147/142/142 133/129/129
f 135/131/131 144/138/138 136/132/132
f 140/134/134 175/170/170 141/135/135
f 143/137/137 173/168/168 136/132/132
f 108/106/106 107/105/105 145/139/139
f 99/98/98 135/131/131 137/133/133
f 147/142/142 118/113/113 120/115/115
f 148/143/143 191/187/187 95/94/94
f 150/145/145 112/107/107 114/109/109
f 152/147/147 149/144/144 94/93/93
f 153/148/148 158/154/154 154/149/149
f 156/151/151 153/148/148 155/150/150
f 117/112/112 116/111/111 112/107/107
f 139/153/153 138/178/178 158/154/154
f 159/155/155 152/147/147 118/113/113
f 161/156/156 203/202/202 162/157/157
f 164/159/159 190/186/186 165/160/160
f 137/133/133 136/132/132 167/162/162
f 107/105/105 178/173/173 169/164/164
f 114/109/109 113/108/108 152/147/147
f 170/165/165 104/102/102 148/143/143
f 171/166/166 108/106/106 103/140/140
f 172/167/167 156/151/151 157/152/152
f 116/111/111 176/171/171 170/165/165
f 174/169/169 168/163/163 129/125/125
f 175/170/170 126/122/122 128/124/124
f 176/171/171 196/195/195 104/102/102
f 177/172/172 200/199/199 178/173/173
f 111/174/174 146/141/141 174/169/169
f 179/175/175 97/96/96 99/98/98
f 158/154/154 182/179/179 181/177/177
f 138/178/178 192/203/203 182/179/179
f 183/180/180 204/204/204 184/181/181
f 187/183/183 201/200/200 188/184/184
f 190/186/186 121/116/116 93/118/118
f 154/149/149 181/177/177 122/117/117
f 191/187/187 148/143/143 104/102/102
f 124/120/120 172/167/167 173/168/168
f 151/146/146 114/109/109 159/155/155
f 180/176/176 99/98/98 146/141/141
f 110/189/189 109/191/191 172/167/167
f 113/108/108 148/143/143 149/144/144
f 131/127/127 96/95/95 175/170/170
f 160/190/190 139/153/153 153/148/148
f 188/184/184 143/137/137 144/138/138
f 102/101/101 101/100/100 190/186/186
f 109/191/191 160/190/190 156/151/151
f 146/141/141 137/133/133 168/163/163
f 191/187/187 106/104/104 108/106/106
f 186/188/188 159/155/155 147/142/142
f 168/163/163 167/162/162 193/192/192
f 96/95/95 95/94/94 126/122/122
f 101/100/100 129/125/125 121/116/116
f 173/168/168 157/152/152 167/162/162
f 157/152/152 155/150/150 193/192/192
f 155/150/150 154/149/149 130/126/126
f 184/181/181 204/204/204 194/193/193
f 95/94/94 191/187/187 171/166/166
f 196/195/195 184/181/181 195/194/194
f 185/182/182 184/181/181 196/195/195
f 185/182/182 199/198/198 197/196/196
f 198/197/197 197/196/196 199/198/198
f 199/198/198 185/182/182 176/171/171
f 200/199/199 177/172/172 195/194/194
f 177/172/172 107/105/105 105/103/103
f 135/131/131 163/158/158 162/157/157
f 201/200/200 187/183/183 125/121/121
f 163/158/158 98/97/97 202/201/201
f 189/185/185 188/184/184 162/157/157
f 135/131/131 99/98/98 98/97/97
f 201/200/200 124/120/120 143/137/137
o SKEL_ROOT.005
v -0.168812 0.403491 0.074303
v -0.179348 0.375825 0.051367
v -0.170076 0.364283 0.064480
v 0.174599 0.381498 0.047439
v -0.187067 0.380544 0.040398
v -0.124750 0.496243 0.040218
v -0.104804 0.458468 0.069931
v -0.093488 0.511337 0.038681
v 0.169489 0.369766 0.062724
v 0.166163 0.401927 0.077822
v 0.166046 0.359197 0.079403
v 0.148972 0.480493 0.037817
v 0.126670 0.453236 0.066519
v 0.155132 0.449139 0.061347
v 0.163127 0.383368 0.092492
v 0.086788 0.506000 0.044730
v 0.172269 0.409565 0.065349
v 0.107797 0.411376 0.102808
v 0.138465 0.409382 0.093678
v -0.154470 0.486469 0.031316
v -0.130628 0.457104 0.061533
v -0.178300 0.481581 0.024290
v -0.112677 0.415528 0.097423
v -0.144513 0.413789 0.086372
v -0.178976 0.454413 0.047131
v 0.119290 0.489073 0.046672
v 0.100087 0.455573 0.073343
v -0.157384 0.454279 0.052379
v 0.170633 0.480877 0.030546
v 0.172769 0.448366 0.055262
v -0.180402 0.409164 0.060553
v 0.053789 0.390503 0.126227
v -0.119251 0.386935 0.118270
v -0.147211 0.383797 0.105743
v 0.082403 0.389951 0.124042
v 0.114675 0.388671 0.120348
v 0.075123 0.412608 0.106666
v -0.088358 0.388708 0.123264
v -0.080331 0.415644 0.103126
v 0.141351 0.386521 0.109450
v -0.062527 0.388971 0.125930
v -0.040677 0.415400 0.107242
v -0.167485 0.378865 0.084277
v -0.066577 0.502100 0.055226
v 0.060202 0.495804 0.057773
v -0.038578 0.490727 0.066164
v -0.040425 0.455952 0.082862
v 0.035647 0.493375 0.065994
v -0.056297 0.524490 0.044588
v -0.047889 0.514283 0.056536
v -0.070040 0.543461 0.021689
v 0.066567 0.540015 0.025887
v 0.057912 0.530533 0.037063
v -0.010931 0.548962 0.063815
v 0.048666 0.526247 0.049299
v 0.022744 0.552044 0.056393
v 0.039932 0.517279 0.059428
v 0.031313 0.508963 0.069192
v 0.005947 0.547929 0.064913
v 0.029309 0.502622 0.069966
v -0.049602 0.576650 0.029163
v 0.043766 0.564439 0.037767
v 0.049803 0.576256 0.027555
v 0.040548 0.568874 0.037064
v 0.049299 0.521721 0.047401
v 0.039662 0.511467 0.059115
v -0.034958 0.562705 0.047469
v -0.041876 0.569147 0.039079
v -0.020279 0.546692 0.064214
v -0.038222 0.503798 0.068265
v -0.053653 0.573663 0.030050
v 0.065881 0.544492 0.027387
v 0.057199 0.535456 0.038488
v -0.029528 0.552306 0.057391
v -0.055508 0.530691 0.046640
v -0.048175 0.521635 0.057173
v -0.023775 0.556084 0.055826
v -0.063038 0.533526 0.034028
v 0.017603 0.554678 0.056112
v 0.030362 0.562574 0.046421
v -0.046415 0.565947 0.040103
v -0.068741 0.549290 0.024362
v -0.061874 0.539392 0.036373
v -0.038924 0.559188 0.048651
v 0.013056 0.546312 0.065064
v -0.039915 0.512929 0.066920
v 0.033756 0.558122 0.047425
v 0.052895 0.571637 0.027972
v -0.071372 0.457168 0.077357
v 0.036367 0.411926 0.110102
v 0.039099 0.455504 0.083826
v 0.067299 0.456294 0.079212
v -0.325243 0.328338 -0.031380
v 0.308716 0.354857 -0.054336
v 0.292470 0.376592 -0.029716
v 0.306650 0.352321 -0.029569
v -0.213869 0.476856 0.011975
v -0.229877 0.478940 -0.015619
v -0.236830 0.448727 0.000184
v -0.260581 0.381221 0.010199
v -0.288449 0.368799 -0.009893
v -0.277563 0.356025 0.007380
v 0.241737 0.399541 0.013755
v 0.261553 0.433862 -0.055677
v 0.244333 0.459514 -0.025485
v 0.260254 0.430302 -0.025135
v 0.234267 0.446160 0.006513
v 0.255523 0.417317 -0.000372
v -0.245523 0.403830 0.013268
v 0.242649 0.413226 -0.093647
v 0.270179 0.398043 -0.073297
v 0.261732 0.390159 -0.089149
v 0.221702 0.436295 -0.098805
v 0.306696 0.350476 -0.068039
v 0.321509 0.332398 -0.052379
v 0.317557 0.329627 -0.068474
v -0.308244 0.350379 -0.031708
v -0.328690 0.330150 -0.052349
v -0.223147 0.442269 -0.100120
v -0.199340 0.457997 -0.107750
v 0.285309 0.368832 -0.002541
v 0.258031 0.377082 0.010002
v 0.271715 0.355882 0.008821
v -0.293618 0.378045 -0.032461
v -0.310454 0.353247 -0.052296
v 0.321587 0.330347 -0.028916
v 0.313029 0.325261 -0.084264
v -0.244709 0.460336 -0.029306
v -0.258266 0.436965 -0.056026
v -0.260715 0.430821 -0.031723
v 0.315491 0.323084 -0.005631
v 0.287335 0.332726 0.008758
v 0.304130 0.311788 0.006260
v -0.236363 0.454423 -0.081009
v -0.243577 0.463457 -0.056998
v 0.221075 0.423656 0.022592
v -0.256394 0.420376 -0.008377
v 0.297820 0.340263 -0.083015
v 0.277063 0.403749 -0.054764
v 0.291427 0.379291 -0.053927
v 0.288612 0.374004 -0.070634
v -0.284710 0.371261 -0.088366
v -0.309094 0.349991 -0.069939
v -0.291820 0.376846 -0.072976
v -0.264153 0.395873 -0.090353
v -0.271461 0.403140 -0.075927
v -0.305246 0.345141 -0.086449
v 0.279221 0.367040 -0.085597
v -0.222116 0.505424 -0.031189
v -0.229703 0.482756 -0.056858
v -0.232208 0.484831 -0.030283
v -0.291412 0.333165 0.005870
v -0.317232 0.320532 -0.011167
v -0.305000 0.310229 0.003473
v -0.277097 0.408202 -0.057487
v -0.277447 0.403296 -0.032417
v 0.200185 0.448448 0.032585
v 0.253133 0.425006 -0.075573
v 0.272076 0.392000 -0.004413
v -0.243750 0.418890 -0.094136
v -0.252608 0.429853 -0.078641
v -0.271748 0.395084 -0.012341
v 0.300109 0.343240 -0.002465
v 0.235460 0.451521 -0.077864
v 0.225954 0.481172 -0.008654
v 0.208442 0.478041 0.014627
v -0.207431 0.450992 0.027689
v -0.227896 0.426961 0.018337
v -0.326921 0.328503 -0.070026
v -0.321323 0.322816 -0.087229
v 0.212681 0.500185 -0.079910
v 0.223894 0.487797 -0.056447
v 0.219666 0.477070 -0.078031
v -0.210581 0.482363 -0.097521
v -0.222852 0.478136 -0.081210
v -0.217650 0.496443 -0.080516
v -0.301668 0.343084 -0.009161
v 0.276395 0.402660 -0.026567
v -0.294784 0.380140 -0.055778
v 0.217329 0.509614 -0.030927
v 0.226340 0.487179 -0.029269
v 0.244846 0.461817 -0.055080
v 0.204776 0.483077 -0.097652
v 0.196441 0.458342 -0.109053
v 0.215159 0.467182 -0.089887
v 0.214315 0.498018 -0.005345
v -0.218464 0.470449 -0.093587
v -0.218198 0.495978 -0.007050
v -0.221846 0.504421 -0.056570
v 0.216470 0.507832 -0.055862
vn -0.7234 0.2616 0.6390
vn -0.8612 -0.3747 0.3434
vn -0.9528 -0.2684 0.1420
vn -0.3088 0.5431 0.7808
vn -0.2236 0.5242 0.8217
vn -0.2456 0.6433 0.7251
vn 0.9683 -0.2087 0.1371
vn 0.7760 0.2588 0.5752
vn 0.9789 -0.1862 0.0841
vn 0.2994 0.5668 0.7675
vn 0.2678 0.5531 0.7889
vn 0.3824 0.4864 0.7856
vn 0.7907 0.0748 0.6076
vn 0.1929 0.5903 0.7838
vn 0.3800 0.5278 0.7596
vn -0.3375 0.5422 0.7695
vn -0.3197 0.5282 0.7866
vn -0.2248 0.5771 0.7851
vn -0.3967 0.5270 0.7516
vn -0.3857 0.4180 0.8225
vn -0.2988 0.5771 0.7600
vn 0.3004 0.5212 0.7988
vn 0.1931 0.5346 0.8227
vn -0.3856 0.4728 0.7923
vn 0.4420 0.4143 0.7956
vn 0.3127 0.5789 0.7531
vn -0.6509 0.1329 0.7475
vn -0.2716 0.6509 0.7089
vn -0.5219 0.5729 0.6320
vn 0.0913 0.7156 0.6925
vn 0.2170 0.7286 0.6497
vn 0.1047 0.5668 0.8172
vn -0.1225 0.6950 0.7085
vn -0.1178 0.5736 0.8107
vn 0.7941 0.3547 0.4935
vn 0.4315 0.6737 0.6000
vn -0.0215 0.6126 0.7901
vn -0.9187 0.1668 0.3580
vn 0.2178 0.5387 0.8138
vn 0.1989 0.5876 0.7843
vn 0.5897 0.2674 0.7621
vn 0.4977 0.3497 0.7937
vn 0.5737 0.2892 0.7663
vn 0.3907 0.2139 0.8953
vn -0.1767 0.2252 0.9582
vn -0.1967 -0.1805 0.9637
vn 0.5767 0.3086 0.7565
vn 0.2933 0.6215 0.7264
vn 0.1783 0.7003 0.6912
vn 0.8427 -0.3810 0.3804
vn 0.8278 -0.3630 0.4278
vn -0.3159 0.3009 0.8998
vn -0.0695 -0.0242 0.9973
vn 0.2305 0.3150 0.9207
vn 0.6511 0.2462 0.7179
vn 0.6295 0.2567 0.7333
vn 0.8532 -0.3584 0.3789
vn -0.4965 0.3533 0.7929
vn -0.6521 0.2633 0.7110
vn -0.5924 0.2755 0.7571
vn 0.1178 0.7269 0.6765
vn 0.0141 0.7847 0.6198
vn -0.6216 0.3360 0.7076
vn -0.7477 0.2470 0.6164
vn -0.7069 0.2456 0.6632
vn -0.9061 -0.2947 0.3036
vn -0.5690 0.3334 0.7518
vn -0.0243 0.7861 0.6177
vn 0.4276 0.3491 0.8338
vn -0.5057 0.2341 0.8303
vn -0.9167 -0.3383 0.2126
vn -0.8877 -0.3224 0.3288
vn -0.8610 -0.3404 0.3780
vn -0.1281 0.7566 0.6412
vn -0.6881 0.3356 0.6434
vn 0.0147 0.7791 0.6267
vn -0.0225 0.7722 0.6349
vn 0.8628 -0.3414 0.3727
vn 0.5377 0.3222 0.7792
vn 0.6117 0.2928 0.7349
vn -0.1411 0.4935 0.8582
vn -0.1092 0.4736 0.8739
vn -0.2046 0.5411 0.8157
vn -0.0288 0.5384 0.8422
vn -0.1028 0.4720 0.8756
vn 0.1764 0.4562 0.8723
vn 0.1601 0.5075 0.8466
vn 0.1216 0.4867 0.8650
vn -0.0045 0.6132 0.7899
vn 0.0573 0.5334 0.8440
vn 0.8888 -0.3130 0.3347
vn -0.7707 -0.4162 0.4824
vn 0.8403 0.5386 -0.0607
vn 0.8398 0.5090 0.1890
vn 0.8262 0.5085 0.2425
vn -0.6503 0.4109 0.6389
vn -0.8165 0.3994 0.4169
vn -0.7629 0.3634 0.5347
vn -0.5163 0.2664 0.8139
vn -0.7322 0.4377 0.5218
vn -0.4688 0.2225 0.8549
vn 0.8611 0.4848 -0.1535
vn 0.8462 0.4844 0.2220
vn 0.8322 0.4736 0.2884
vn 0.7091 0.3545 0.6095
vn 0.7006 0.3516 0.6209
vn 0.5613 0.3116 -0.7667
vn 0.7319 0.4547 -0.5076
vn 0.5957 0.3837 -0.7056
vn 0.7415 0.4466 -0.5007
vn 0.8363 0.5448 -0.0621
vn 0.7326 0.5499 -0.4012
vn -0.8057 0.5196 0.2843
vn -0.7841 0.6192 0.0419
vn -0.7482 0.5437 0.3802
vn 0.6946 0.4157 0.5871
vn 0.4391 0.2178 0.8716
vn 0.4000 0.2317 0.8867
vn -0.8273 0.4998 0.2564
vn -0.8433 0.5373 -0.0123
vn 0.7970 0.5547 0.2389
vn -0.8692 0.4681 0.1592
vn -0.8476 0.5040 -0.1658
vn -0.8456 0.4838 0.2256
vn 0.6862 0.4028 0.6057
vn 0.3989 0.2275 0.8883
vn 0.4278 0.2228 0.8760
vn -0.7585 0.4100 -0.5066
vn -0.8333 0.5075 -0.2191
vn 0.5457 0.1430 0.8257
vn 0.4998 0.1597 0.8513
vn -0.7578 0.3922 0.5214
vn 0.6268 0.4330 -0.6478
vn 0.5975 0.5764 -0.5575
vn 0.8568 0.4787 -0.1915
vn 0.8222 0.5398 -0.1807
vn 0.7276 0.4993 -0.4705
vn -0.5871 0.4211 -0.6914
vn -0.7768 0.5628 -0.2825
vn -0.7758 0.5053 -0.3779
vn -0.5059 0.3459 -0.7902
vn -0.7335 0.4885 -0.4726
vn 0.6333 0.3879 -0.6697
vn -0.7788 0.6112 0.1409
vn -0.8853 0.4383 -0.1552
vn -0.8890 0.4474 0.0970
vn -0.4578 0.2130 0.8632
vn -0.6705 0.3834 0.6351
vn -0.4412 0.2072 0.8732
vn -0.8355 0.5335 -0.1321
vn -0.8297 0.5051 0.2378
vn 0.5907 0.2209 0.7761
vn 0.7063 0.4088 -0.5780
vn 0.6954 0.3877 0.6051
vn -0.4866 0.2418 -0.8395
vn -0.7260 0.4545 -0.5161
vn 0.5480 0.2761 -0.7896
vn -0.7346 0.4392 0.5172
vn 0.6831 0.4296 0.5906
vn 0.6996 0.4111 -0.5844
vn 0.7867 0.4459 0.4269
vn 0.5941 0.4074 0.6936
vn -0.5747 0.2377 0.7831
vn -0.6201 0.2360 0.7482
vn -0.5987 0.2063 0.7740
vn -0.6398 0.4988 -0.5847
vn -0.7642 0.5791 -0.2842
vn 0.6880 0.5248 -0.5013
vn 0.8694 0.4528 -0.1979
vn 0.7846 0.3882 -0.4834
vn -0.4176 0.4053 -0.8132
vn -0.8119 0.4076 -0.4180
vn -0.6832 0.5464 -0.4844
vn -0.7177 0.4342 0.5445
vn 0.8508 0.4817 0.2101
vn -0.4776 0.1849 -0.8589
vn -0.8450 0.5288 -0.0802
vn 0.7700 0.6229 0.1383
vn 0.8516 0.5185 0.0766
vn 0.8093 0.5454 -0.2180
vn 0.5104 0.3794 -0.7717
vn 0.4091 0.2291 -0.8833
vn 0.6698 0.2997 -0.6794
vn 0.6505 0.5766 0.4944
vn -0.6329 0.2804 -0.7217
vn -0.2813 0.1613 -0.9460
vn -0.6677 0.5629 0.4872
vn -0.7332 0.6470 -0.2093
vn -0.6626 0.4529 -0.5965
vn 0.7502 0.6303 -0.2000
vt 0.847074 0.702684
vt 0.822325 0.677432
vt 0.834531 0.666361
vt 0.881912 0.790515
vt 0.905720 0.751617
vt 0.909294 0.805981
vt 0.205712 0.675556
vt 0.188568 0.706376
vt 0.193132 0.668004
vt 0.178313 0.784483
vt 0.152347 0.753735
vt 0.179657 0.749980
vt 0.198760 0.713704
vt 0.128512 0.713606
vt 0.157716 0.712495
vt 0.852055 0.784013
vt 0.880275 0.751465
vt 0.904062 0.711125
vt 0.873351 0.710141
vt 0.833444 0.750647
vt 0.828985 0.781268
vt 0.148374 0.789540
vt 0.126472 0.754950
vt 0.853582 0.750213
vt 0.196845 0.750216
vt 0.199305 0.783812
vt 0.832499 0.709246
vt 0.902930 0.685575
vt 0.876436 0.683936
vt 0.103410 0.694075
vt 0.130662 0.693194
vt 0.099401 0.714749
vt 0.929508 0.687145
vt 0.933266 0.711653
vt 0.179640 0.690220
vt 0.155350 0.692304
vt 0.951805 0.687692
vt 0.850855 0.680238
vt 0.091339 0.794977
vt 0.118947 0.806116
vt 0.943024 0.302518
vt 0.980146 0.308369
vt 0.942360 0.317390
vt 0.941582 0.332200
vt 0.989072 0.325175
vt 0.938030 0.336923
vt 0.976133 0.282002
vt 0.980250 0.268926
vt 0.981776 0.281459
vt 0.938288 0.303058
vt 0.938083 0.319932
vt 0.921995 0.019347
vt 0.877719 0.002887
vt 0.928393 0.015573
vt 0.944284 0.275376
vt 0.943532 0.288985
vt 0.938735 0.289541
vt 0.919199 0.033249
vt 0.882814 0.039489
vt 0.882611 0.024242
vt 0.983661 0.294261
vt 0.986192 0.309782
vt 0.915342 0.060380
vt 0.883655 0.069299
vt 0.883235 0.054263
vt 0.877280 0.052880
vt 0.917090 0.047432
vt 0.920574 0.060888
vt 0.982889 0.321725
vt 0.882254 0.009031
vt 0.877685 0.068459
vt 0.876768 0.037735
vt 0.877156 0.020386
vt 0.918752 0.073856
vt 0.913765 0.073332
vt 0.925069 0.031569
vt 0.922446 0.047875
vt 0.939317 0.275809
vt 0.977946 0.294907
vt 0.974819 0.269329
vt 0.936573 0.750871
vt 0.962264 0.783923
vt 0.936940 0.794223
vt 0.968262 0.712933
vt 0.963915 0.751023
vt 0.069568 0.791886
vt 0.095985 0.755778
vt 0.070324 0.755857
vt 0.078949 0.694623
vt 0.065237 0.715023
vt 0.218554 0.682065
vt 0.811679 0.682356
vt 0.427493 0.761050
vt 0.399682 0.784972
vt 0.401591 0.759966
vt 0.712945 0.445794
vt 0.685926 0.442176
vt 0.701950 0.415159
vt 0.716139 0.350631
vt 0.692505 0.330537
vt 0.713516 0.325706
vt 0.422586 0.841697
vt 0.393714 0.869131
vt 0.393180 0.839313
vt 0.361775 0.863660
vt 0.368836 0.832488
vt 0.469730 0.832268
vt 0.445085 0.810015
vt 0.467337 0.805121
vt 0.445807 0.757515
vt 0.427599 0.738674
vt 0.446594 0.737644
vt 0.667445 0.307736
vt 0.642935 0.284435
vt 0.665389 0.282307
vt 0.375237 0.781287
vt 0.350845 0.798420
vt 0.353866 0.776321
vt 0.668680 0.335370
vt 0.644378 0.309817
vt 0.402433 0.735953
vt 0.673043 0.420970
vt 0.647533 0.395106
vt 0.671532 0.391935
vt 0.380661 0.732181
vt 0.356105 0.752005
vt 0.359679 0.727957
vt 0.621650 0.421030
vt 0.646868 0.421454
vt 0.338378 0.848619
vt 0.346836 0.821941
vt 0.695285 0.384458
vt 0.466211 0.752999
vt 0.466691 0.737122
vt 0.424038 0.812499
vt 0.425621 0.787664
vt 0.444945 0.783435
vt 0.602461 0.330991
vt 0.623637 0.306632
vt 0.622868 0.334683
vt 0.601416 0.358498
vt 0.623225 0.363391
vt 0.466266 0.779445
vt 0.670290 0.463392
vt 0.647039 0.443546
vt 0.671804 0.446387
vt 0.711244 0.300688
vt 0.688722 0.279437
vt 0.709062 0.276947
vt 0.645306 0.365350
vt 0.670525 0.362486
vt 0.329131 0.878492
vt 0.444415 0.839253
vt 0.373521 0.804551
vt 0.599342 0.386787
vt 0.622790 0.393545
vt 0.474862 0.862823
vt 0.692903 0.357238
vt 0.376725 0.755408
vt 0.443862 0.867045
vt 0.377689 0.893855
vt 0.352710 0.898297
vt 0.717311 0.375288
vt 0.731065 0.427223
vt 0.724664 0.401074
vt 0.603590 0.304357
vt 0.622272 0.283635
vt 0.443713 0.915983
vt 0.421294 0.898400
vt 0.443448 0.895355
vt 0.605344 0.455153
vt 0.622396 0.445251
vt 0.625372 0.461857
vt 0.692057 0.305582
vt 0.395412 0.810883
vt 0.593340 0.416345
vt 0.644367 0.337471
vt 0.398416 0.918548
vt 0.396915 0.897845
vt 0.421147 0.871056
vt 0.466155 0.907753
vt 0.488891 0.893179
vt 0.458999 0.891490
vt 0.374415 0.911255
vt 0.609887 0.441576
vt 0.582145 0.441941
vt 0.692134 0.455907
vt 0.647850 0.464796
vt 0.602058 0.282852
vt 0.420917 0.919181
s 1
f 205/205/205 206/206/206 207/207/207
f 210/208/208 211/209/209 212/210/210
f 213/211/211 214/212/212 215/213/213
f 216/214/214 217/215/215 218/216/216
f 221/217/217 218/216/216 214/212/212
f 217/215/215 222/218/218 223/219/219
f 224/220/220 225/221/221 210/208/208
f 227/222/222 225/221/221 228/223/223
f 229/224/224 224/220/220 226/225/225
f 230/226/226 231/227/227 217/215/215
f 228/223/223 232/228/228 205/205/205
f 218/216/216 223/219/219 214/212/212
f 216/214/214 234/229/229 233/230/230
f 235/231/231 232/228/228 229/224/224
f 237/232/232 228/223/223 238/233/233
f 222/218/218 239/234/234 240/235/235
f 231/227/227 241/236/236 222/218/218
f 227/222/222 242/237/237 243/238/238
f 223/219/219 219/239/239 214/212/212
f 223/219/219 240/235/235 244/240/240
f 245/241/241 243/238/238 242/237/237
f 238/233/233 205/205/205 247/242/242
f 249/243/243 231/227/227 220/244/244
f 259/245/245 260/246/246 261/247/247
f 262/248/248 263/249/249 264/250/250
f 266/251/251 267/252/252 268/253/253
f 269/254/254 261/247/247 270/255/255
f 273/256/256 274/257/257 258/258/258
f 276/259/259 266/251/251 277/260/260
f 259/245/245 257/261/261 277/260/260
f 278/262/262 279/263/263 280/264/264
f 260/246/246 284/265/265 283/266/266
f 285/267/267 286/268/268 287/269/269
f 282/270/270 279/263/263 287/269/269
f 288/271/271 272/272/272 285/267/267
f 262/248/248 289/273/273 263/249/249
f 288/271/271 287/269/269 279/263/263
f 273/256/256 290/274/274 274/257/257
f 255/275/275 287/269/269 286/268/268
f 280/264/264 253/276/276 254/277/277
f 285/267/267 265/278/278 275/279/279
f 290/274/274 254/277/277 274/257/257
f 281/280/280 273/256/256 258/258/258
f 271/281/281 278/262/262 281/280/280
f 277/260/260 256/282/282 276/259/259
f 277/260/260 291/283/283 259/245/245
f 291/283/283 268/253/253 284/265/265
f 273/256/256 280/264/264 290/274/274
f 289/273/273 283/266/266 263/249/249
f 270/255/255 262/248/248 264/250/250
f 261/247/247 289/273/273 262/248/248
f 259/245/245 291/283/283 260/246/246
f 266/251/251 292/284/284 267/252/252
f 269/254/254 259/245/245 261/247/247
f 276/259/259 292/284/284 266/251/251
f 259/245/245 269/254/254 257/261/261
f 278/262/262 288/271/271 279/263/263
f 260/246/246 291/283/283 284/265/265
f 285/267/267 275/279/279 286/268/268
f 282/270/270 253/276/276 279/263/263
f 288/271/271 271/281/281 272/272/272
f 288/271/271 285/267/267 287/269/269
f 255/275/275 282/270/270 287/269/269
f 280/264/264 279/263/263 253/276/276
f 285/267/267 272/272/272 265/278/278
f 290/274/274 280/264/264 254/277/277
f 281/280/280 278/262/262 273/256/256
f 271/281/281 288/271/271 278/262/262
f 277/260/260 257/261/261 256/282/282
f 277/260/260 266/251/251 291/283/283
f 291/283/283 266/251/251 268/253/253
f 273/256/256 278/262/262 280/264/264
f 289/273/273 260/246/246 283/266/266
f 270/255/255 261/247/247 262/248/248
f 261/247/247 260/246/246 289/273/273
f 293/285/285 250/286/286 248/287/287
f 293/285/285 246/288/288 251/289/289
f 211/209/209 243/238/238 293/285/285
f 211/209/209 248/287/287 212/210/210
f 252/290/290 296/291/291 249/243/243
f 295/292/292 241/236/236 296/291/291
f 236/293/293 241/236/236 294/294/294
f 205/205/205 235/231/231 206/206/206
f 210/208/208 225/221/221 211/209/209
f 213/211/211 221/217/217 214/212/212
f 216/214/214 230/226/226 217/215/215
f 215/213/213 214/212/212 219/239/239
f 221/217/217 234/229/229 218/216/216
f 217/215/215 231/227/227 222/218/218
f 221/217/217 213/211/211 208/295/295
f 224/220/220 232/228/228 225/221/221
f 227/222/222 211/209/209 225/221/221
f 229/224/224 232/228/228 224/220/220
f 230/226/226 220/244/244 231/227/227
f 228/223/223 225/221/221 232/228/228
f 218/216/216 217/215/215 223/219/219
f 216/214/214 218/216/216 234/229/229
f 235/231/231 205/205/205 232/228/228
f 237/232/232 227/222/222 228/223/223
f 209/296/296 206/206/206 235/231/231
f 222/218/218 241/236/236 239/234/234
f 231/227/227 296/291/291 241/236/236
f 227/222/222 237/232/232 242/237/237
f 223/219/219 244/240/240 219/239/239
f 223/219/219 222/218/218 240/235/235
f 245/241/241 246/288/288 243/238/238
f 238/233/233 228/223/223 205/205/205
f 247/242/242 205/205/205 207/207/207
f 249/243/243 296/291/291 231/227/227
f 293/285/285 251/289/289 250/286/286
f 293/285/285 243/238/238 246/288/288
f 211/209/209 227/222/222 243/238/238
f 211/209/209 293/285/285 248/287/287
f 252/290/290 295/292/292 296/291/291
f 295/292/292 294/294/294 241/236/236
f 236/293/293 239/234/234 241/236/236
f 298/297/297 299/298/298 300/299/299
f 301/300/300 302/301/301 303/302/302
f 304/303/303 305/304/304 306/305/305
f 308/306/306 309/307/307 310/308/308
f 310/308/308 311/309/309 312/310/310
f 314/311/311 315/312/312 316/313/313
f 318/314/314 319/315/315 320/316/316
f 321/317/317 322/318/318 297/319/319
f 325/320/320 326/321/321 327/322/322
f 328/323/323 329/324/324 321/317/317
f 319/315/315 300/299/299 330/325/325
f 332/326/326 333/327/327 334/328/328
f 335/329/329 336/330/330 337/331/331
f 338/332/332 333/327/327 339/333/333
f 312/310/310 340/334/334 307/335/335
f 303/302/302 334/328/328 341/336/336
f 342/337/337 320/316/316 331/338/338
f 343/339/339 299/298/298 344/340/340
f 345/341/341 298/297/297 318/314/314
f 346/342/342 347/343/343 348/344/344
f 349/345/345 348/344/344 350/346/346
f 352/347/347 318/314/314 342/337/337
f 353/348/348 354/349/349 355/350/350
f 356/351/351 357/352/352 358/353/353
f 334/328/328 359/354/354 360/355/355
f 311/309/309 361/356/356 340/334/334
f 316/313/313 345/341/341 352/347/347
f 362/357/357 343/339/339 315/312/312
f 363/358/358 307/335/335 326/321/321
f 364/359/359 350/346/346 365/360/360
f 317/361/361 362/357/357 314/311/311
f 366/362/362 328/323/323 305/304/304
f 367/363/363 327/322/322 336/330/330
f 368/364/364 308/306/306 362/357/357
f 369/365/365 370/366/366 311/309/309
f 313/367/367 366/362/362 304/303/303
f 371/368/368 303/302/302 372/369/369
f 351/370/370 373/371/371 347/343/343
f 375/372/372 376/373/373 377/374/374
f 378/375/375 379/376/376 380/377/377
f 381/378/378 297/319/319 357/352/352
f 347/343/343 322/318/318 329/324/324
f 382/379/379 308/306/306 310/308/308
f 323/380/380 365/360/360 338/332/332
f 372/369/369 341/336/336 313/367/367
f 315/312/312 344/340/340 345/341/341
f 330/325/325 367/363/363 335/329/329
f 379/376/376 339/333/333 354/349/349
f 306/305/305 381/378/378 356/351/351
f 341/336/336 360/355/355 366/362/362
f 382/379/379 312/310/310 363/358/358
f 360/355/355 383/381/381 328/323/323
f 300/299/299 325/320/320 367/363/363
f 305/304/304 321/317/317 381/378/378
f 365/360/360 359/354/354 333/327/327
f 350/346/346 383/381/381 359/354/354
f 348/344/344 329/324/324 383/381/381
f 376/373/373 384/382/382 385/383/383
f 299/298/298 363/358/358 325/320/320
f 386/384/384 385/383/383 309/307/307
f 377/374/374 386/384/384 368/364/364
f 377/374/374 387/385/385 375/372/372
f 388/386/386 389/387/387 317/361/361
f 389/387/387 368/364/364 317/361/361
f 390/388/388 385/383/383 384/382/382
f 369/365/365 309/307/307 385/383/383
f 332/326/326 354/349/349 339/333/333
f 391/389/389 324/390/390 323/380/380
f 355/350/350 392/391/391 353/348/348
f 380/377/377 354/349/349 393/392/392
f 332/326/326 302/301/301 355/350/350
f 391/389/389 338/332/332 379/376/376
f 298/297/297 344/340/340 299/298/298
f 301/300/300 392/391/391 302/301/301
f 304/303/303 366/362/362 305/304/304
f 308/306/306 386/384/384 309/307/307
f 310/308/308 309/307/307 311/309/309
f 314/311/311 362/357/357 315/312/312
f 318/314/314 298/297/297 319/315/315
f 321/317/317 329/324/324 322/318/318
f 325/320/320 363/358/358 326/321/321
f 328/323/323 383/381/381 329/324/324
f 319/315/315 298/297/297 300/299/299
f 332/326/326 339/333/333 333/327/327
f 335/329/329 367/363/363 336/330/330
f 338/332/332 365/360/360 333/327/327
f 312/310/310 311/309/309 340/334/334
f 303/302/302 332/326/326 334/328/328
f 342/337/337 318/314/314 320/316/316
f 343/339/339 382/379/379 299/298/298
f 345/341/341 344/340/340 298/297/297
f 346/342/342 351/370/370 347/343/343
f 349/345/345 346/342/342 348/344/344
f 352/347/347 345/341/341 318/314/314
f 353/348/348 393/392/392 354/349/349
f 356/351/351 381/378/378 357/352/352
f 334/328/328 333/327/327 359/354/354
f 311/309/309 370/366/366 361/356/356
f 316/313/313 315/312/312 345/341/341
f 362/357/357 308/306/306 343/339/339
f 363/358/358 312/310/310 307/335/335
f 364/359/359 349/345/345 350/346/346
f 317/361/361 368/364/364 362/357/357
f 366/362/362 360/355/355 328/323/323
f 367/363/363 325/320/320 327/322/322
f 368/364/364 386/384/384 308/306/306
f 369/365/365 390/388/388 370/366/366
f 313/367/367 341/336/336 366/362/362
f 371/368/368 301/300/300 303/302/302
f 351/370/370 374/393/393 373/371/371
f 375/372/372 394/394/394 376/373/373
f 378/375/375 391/389/389 379/376/376
f 381/378/378 321/317/317 297/319/319
f 347/343/343 373/371/371 322/318/318
f 382/379/379 343/339/339 308/306/306
f 323/380/380 364/359/359 365/360/360
f 372/369/369 303/302/302 341/336/336
f 315/312/312 343/339/339 344/340/340
f 330/325/325 300/299/299 367/363/363
f 379/376/376 338/332/332 339/333/333
f 306/305/305 305/304/304 381/378/378
f 341/336/336 334/328/328 360/355/355
f 382/379/379 310/308/308 312/310/310
f 360/355/355 359/354/354 383/381/381
f 300/299/299 299/298/298 325/320/320
f 305/304/304 328/323/323 321/317/317
f 365/360/360 350/346/346 359/354/354
f 350/346/346 348/344/344 383/381/381
f 348/344/344 347/343/343 329/324/324
f 376/373/373 394/394/394 384/382/382
f 299/298/298 382/379/379 363/358/358
f 386/384/384 376/373/373 385/383/383
f 377/374/374 376/373/373 386/384/384
f 377/374/374 389/387/387 387/385/385
f 388/386/386 387/385/385 389/387/387
f 389/387/387 377/374/374 368/364/364
f 390/388/388 369/365/365 385/383/383
f 369/365/365 311/309/309 309/307/307
f 332/326/326 355/350/350 354/349/349
f 391/389/389 378/375/375 324/390/390
f 355/350/350 302/301/301 392/391/391
f 380/377/377 379/376/376 354/349/349
f 332/326/326 303/302/302 302/301/301
f 391/389/389 323/380/380 338/332/332
o SKEL_ROOT.006
v -0.299203 0.369003 -0.106945
v -0.322335 0.350480 -0.084126
v -0.298671 0.374681 -0.084565
v 0.288694 0.353200 -0.131347
v 0.316695 0.342703 -0.108849
v 0.303261 0.328283 -0.123766
v -0.317827 0.348873 -0.057848
v -0.301781 0.379742 -0.057252
v -0.279452 0.353051 0.017522
v -0.296983 0.335627 -0.011191
v -0.288064 0.325397 0.006554
v 0.214148 0.512819 -0.086609
v 0.216095 0.517573 -0.049115
v 0.241099 0.476828 -0.085346
v 0.262892 0.419474 0.004860
v 0.232484 0.421109 0.022211
v 0.247096 0.400356 0.021178
v 0.208816 0.445484 -0.129857
v 0.242241 0.459678 -0.116360
v 0.228815 0.422482 -0.122812
v -0.264844 0.375764 0.016002
v -0.286099 0.366860 -0.005706
v 0.239648 0.454663 0.011348
v 0.215133 0.439168 0.029574
v 0.266785 0.438116 -0.058425
v 0.242090 0.477364 -0.019988
v 0.270164 0.437132 -0.026262
v -0.310784 0.346685 -0.030692
v -0.246840 0.405663 -0.125410
v -0.234586 0.435192 -0.130938
v -0.313609 0.306243 -0.118307
v -0.329106 0.322103 -0.104076
v -0.251769 0.396135 0.020032
v 0.261246 0.428356 -0.112322
v 0.280384 0.401418 -0.086539
v 0.278227 0.395172 -0.114545
v -0.222096 0.504486 -0.015899
v -0.245901 0.484243 -0.048941
v -0.245536 0.476626 -0.018380
v -0.333760 0.330524 -0.030497
v 0.294104 0.365821 -0.001638
v 0.263675 0.382322 0.020028
v 0.275654 0.353234 0.015635
v -0.260354 0.422850 -0.114327
v -0.241887 0.463869 -0.110639
v 0.254249 0.402665 -0.132931
v 0.294455 0.365545 -0.111753
v 0.322360 0.354759 -0.084735
v -0.294261 0.378580 -0.029470
v 0.325742 0.314321 -0.101673
v 0.318464 0.303603 -0.124620
v 0.264075 0.433293 -0.086363
v 0.283809 0.407265 -0.059037
v 0.324856 0.363592 -0.061093
v 0.305352 0.381950 -0.030639
v 0.315023 0.352203 -0.033822
v -0.268415 0.434134 -0.026373
v -0.267051 0.436843 -0.057165
v -0.300268 0.328094 -0.122958
v -0.286372 0.351697 -0.124666
v 0.302997 0.340190 -0.009432
v 0.304408 0.305807 0.012761
v 0.315776 0.316869 -0.013681
v -0.243862 0.477686 -0.080134
v -0.278315 0.395670 0.001849
v -0.240907 0.452709 0.005246
v -0.259858 0.419079 -0.001057
v 0.302615 0.382737 -0.059619
v 0.288547 0.409307 -0.029259
v 0.271049 0.378630 -0.132840
v 0.298074 0.373738 -0.084841
v -0.289119 0.406343 -0.086675
v -0.288866 0.409079 -0.057222
v -0.276680 0.393959 -0.108952
v -0.221851 0.477101 0.011430
v -0.272643 0.377123 -0.135479
v -0.286327 0.407471 -0.026086
v 0.291226 0.332115 0.016358
v -0.270193 0.436438 -0.088509
v 0.321397 0.322988 -0.034459
v 0.217498 0.474677 0.014973
v -0.307042 0.306094 0.008013
v -0.216205 0.475927 -0.107890
v -0.218977 0.504463 -0.078141
v -0.216099 0.441605 0.029466
v -0.236795 0.423109 0.023177
v 0.210041 0.477957 -0.110636
v -0.336768 0.327667 -0.083413
v -0.334823 0.330503 -0.057577
v -0.310994 0.339957 -0.103877
v -0.221419 0.516287 -0.044761
v -0.212806 0.437829 -0.122148
v -0.318512 0.316920 -0.009750
v 0.336116 0.329859 -0.084137
v 0.278398 0.396795 -0.001914
v 0.334172 0.333769 -0.058602
v 0.240519 0.486038 -0.053430
v 0.218300 0.504908 -0.013692
vn -0.7575 0.4364 -0.4855
vn -0.7927 0.5830 -0.1782
vn -0.8406 0.5087 -0.1859
vn 0.4596 0.1840 -0.8689
vn 0.7383 0.3374 -0.5840
vn 0.5149 0.1489 -0.8442
vn -0.7732 0.6256 0.1040
vn -0.9092 0.4108 0.0680
vn -0.6182 0.1830 0.7644
vn -0.7397 0.3419 0.5796
vn -0.5742 0.2405 0.7826
vn 0.5231 0.6638 -0.5345
vn 0.7264 0.6871 -0.0150
vn 0.7719 0.5657 -0.2901
vn 0.6918 0.3444 0.6346
vn 0.4616 0.1630 0.8720
vn 0.4308 0.2160 0.8762
vn 0.2967 0.3537 -0.8871
vn 0.5673 0.4600 -0.6830
vn 0.3252 0.2479 -0.9126
vn -0.4866 0.1700 0.8570
vn -0.8217 0.2395 0.5172
vn 0.6524 0.3946 0.6470
vn 0.4799 0.2182 0.8498
vn 0.8615 0.5019 -0.0774
vn 0.8005 0.5466 0.2456
vn 0.8329 0.5205 0.1881
vn -0.7279 0.5042 0.4647
vn 0.6840 0.4458 -0.5773
vn 0.8435 0.4937 -0.2115
vn 0.7928 0.4454 -0.4159
vn -0.6341 0.6498 0.4192
vn -0.8444 0.5353 -0.0210
vn -0.7944 0.4730 0.3811
vn -0.7794 0.5267 0.3393
vn 0.7558 0.2680 0.5974
vn 0.4153 0.0984 0.9044
vn 0.2054 0.0106 0.9786
vn -0.1946 0.2688 -0.9433
vn -0.6879 0.3107 -0.6560
vn -0.5055 0.5550 -0.6606
vn 0.7177 0.5384 -0.4417
vn 0.7610 0.5733 -0.3036
vn -0.8996 0.3167 0.3008
vn 0.6789 0.3806 -0.6279
vn 0.5004 0.2414 -0.8315
vn 0.8647 0.4659 -0.1876
vn 0.8343 0.5261 -0.1652
vn 0.8359 0.5488 0.0093
vn 0.8342 0.4424 0.3293
vn 0.8561 0.2140 0.4704
vn -0.8520 0.4635 0.2433
vn -0.8583 0.5131 -0.0036
vn 0.8453 0.2580 0.4678
vn 0.4636 0.1823 0.8671
vn 0.6993 0.5255 0.4846
vn -0.7557 0.6022 -0.2574
vn -0.7552 0.2997 0.5830
vn -0.7116 0.3425 0.6134
vn -0.7012 0.4194 0.5766
vn 0.7576 0.6220 -0.1977
vn 0.8324 0.5255 0.1763
vn 0.2570 0.3764 -0.8901
vn 0.4459 0.2564 -0.8576
vn 0.7315 0.6148 -0.2947
vn -0.8641 0.3787 -0.3316
vn -0.8657 0.4963 0.0655
vn -0.7017 0.4567 -0.5468
vn -0.5414 0.4657 0.7000
vn -0.8463 0.4334 0.3096
vn 0.4027 0.1745 0.8986
vn -0.8231 0.5279 -0.2092
vn 0.5248 0.4961 0.6917
vn -0.3735 0.2828 -0.8835
vn -0.3379 0.5507 -0.7632
vn -0.5685 0.6781 -0.4659
vn -0.3541 0.2385 0.9043
vn -0.5658 0.2473 0.7866
vn 0.2975 0.5773 -0.7604
vn -0.4926 0.1826 0.8509
vn -0.6860 0.3946 -0.6114
vn -0.8324 0.5125 -0.2108
vn -0.6694 0.7423 -0.0292
vn -0.1386 0.3456 -0.9281
vn -0.4712 0.2145 -0.8555
vn -0.6576 0.4183 -0.6266
vn -0.5592 0.4872 0.6708
vn -0.4669 0.2639 0.8440
vn -0.8460 0.5304 0.0555
vn 0.7101 0.3742 0.5964
vn -0.5230 0.1035 -0.8460
vn 0.7272 0.4746 0.4960
vn 0.8140 0.4966 -0.3014
vn -0.4267 0.2925 -0.8558
vn 0.8432 0.4681 0.2641
vn 0.8329 0.5533 0.0117
vn 0.6486 0.6451 0.4039
vn -0.4188 0.1778 -0.8905
vt 0.879825 0.490153
vt 0.854922 0.475858
vt 0.881485 0.472497
vt 0.666301 0.225129
vt 0.682243 0.201846
vt 0.688813 0.220003
vt 0.853343 0.455394
vt 0.880628 0.450952
vt 0.863846 0.392570
vt 0.846403 0.413964
vt 0.841013 0.397845
vt 0.531247 0.207318
vt 0.525788 0.178866
vt 0.561877 0.200751
vt 0.597058 0.126567
vt 0.580398 0.106923
vt 0.599989 0.104397
vt 0.573708 0.251035
vt 0.576801 0.222252
vt 0.596795 0.243892
vt 0.884045 0.388588
vt 0.872601 0.410370
vt 0.564436 0.129564
vt 0.559869 0.104671
vt 0.593845 0.175501
vt 0.555417 0.153765
vt 0.592652 0.152111
vt 0.851326 0.433482
vt 0.603812 0.216629
vt 0.626271 0.192927
vt 0.632521 0.213968
vt 0.988241 0.406203
vt 0.969884 0.433824
vt 0.962907 0.413284
vt 0.830657 0.440383
vt 0.644930 0.120543
vt 0.618990 0.104497
vt 0.642758 0.098833
vt 0.952977 0.503437
vt 0.932466 0.489601
vt 0.964728 0.480524
vt 0.658346 0.208774
vt 0.674827 0.182454
vt 0.879745 0.429531
vt 0.704995 0.198563
vt 0.711134 0.217547
vt 0.598986 0.196370
vt 0.620816 0.172069
vt 0.667056 0.165370
vt 0.642833 0.146627
vt 0.667221 0.142674
vt 0.927800 0.422643
vt 0.932927 0.444047
vt 0.667188 0.120466
vt 0.686321 0.096052
vt 0.688566 0.120188
vt 0.969669 0.456842
vt 0.895363 0.405718
vt 0.947444 0.395693
vt 0.918389 0.402745
vt 0.644686 0.168650
vt 0.618140 0.149659
vt 0.621543 0.235146
vt 0.643190 0.230320
vt 0.651392 0.188356
vt 0.907088 0.468729
vt 0.905793 0.447456
vt 0.906513 0.489858
vt 0.969598 0.386673
vt 0.903133 0.425729
vt 0.663136 0.098575
vt 0.934187 0.466588
vt 0.542661 0.127723
vt 0.929098 0.508490
vt 0.985944 0.483192
vt 0.995795 0.453519
vt 0.945869 0.367759
vt 0.926968 0.379615
vt 0.551252 0.230771
vt 0.902887 0.383649
vt 0.855983 0.495502
vt 0.833814 0.479394
vt 0.997345 0.426484
vt 0.968999 0.512024
vt 0.855983 0.515046
vt 0.836211 0.496709
vt 0.824659 0.420133
vt 0.820338 0.402899
vt 0.833593 0.459724
vt 0.618556 0.126510
vt 0.876979 0.512093
vt 0.689722 0.137178
vt 0.696958 0.179631
vt 0.899721 0.511671
vt 0.691131 0.159832
vt 0.553194 0.177606
vt 0.529544 0.152427
vt 0.835856 0.517451
s 1
f 395/395/395 396/396/396 397/397/397
f 398/398/398 399/399/399 400/400/400
f 397/397/397 401/401/401 402/402/402
f 403/403/403 404/404/404 405/405/405
f 406/406/406 407/407/407 408/408/408
f 409/409/409 410/410/410 411/411/411
f 412/412/412 413/413/413 414/414/414
f 415/415/415 416/416/416 403/403/403
f 417/417/417 418/418/418 410/410/410
f 419/419/419 420/420/420 421/421/421
f 416/416/416 422/422/422 404/404/404
f 421/421/421 417/417/417 409/409/409
f 428/423/423 429/424/424 430/425/425
f 431/426/426 432/427/427 433/428/428
f 401/401/401 434/429/429 422/422/422
f 435/430/430 436/431/431 437/432/432
f 424/433/433 438/434/434 439/435/435
f 441/436/436 442/437/437 399/399/399
f 402/402/402 422/422/422 443/438/438
f 400/400/400 444/439/439 445/440/440
f 446/441/441 447/442/442 429/424/424
f 448/443/443 449/444/444 450/445/445
f 451/446/446 432/427/427 452/447/447
f 455/448/448 456/449/449 457/450/450
f 458/451/451 452/447/447 432/427/427
f 459/452/452 443/438/438 416/416/416
f 460/453/453 451/446/446 461/454/454
f 462/455/455 463/456/456 449/444/444
f 440/457/457 430/425/425 464/458/458
f 465/459/459 448/443/443 442/437/437
f 466/460/460 402/402/402 467/461/461
f 468/462/462 397/397/397 466/460/460
f 469/463/463 433/428/428 460/453/453
f 414/414/414 428/423/423 440/457/457
f 461/454/454 471/464/464 459/452/452
f 472/465/465 435/430/430 437/432/432
f 438/434/434 466/460/460 473/466/466
f 413/413/413 446/441/441 428/423/423
f 420/420/420 475/467/467 417/417/417
f 450/445/445 435/430/430 455/448/448
f 473/466/466 467/461/461 452/447/447
f 408/408/408 419/419/419 446/441/441
f 423/468/468 468/462/462 438/434/434
f 477/469/469 458/451/451 478/470/470
f 479/471/471 460/453/453 480/472/472
f 481/473/473 408/408/408 413/413/413
f 427/474/474 459/452/452 415/415/415
f 484/475/475 482/476/476 396/396/396
f 478/470/470 432/427/427 485/477/477
f 486/478/478 439/435/435 477/469/469
f 453/479/479 426/480/480 484/475/475
f 422/422/422 487/481/481 404/404/404
f 405/405/405 487/481/481 476/482/482
f 396/396/396 483/483/483 401/401/401
f 447/442/442 421/421/421 463/456/456
f 439/435/435 473/466/466 458/451/451
f 464/458/458 441/436/436 398/398/398
f 463/456/456 409/409/409 489/484/484
f 454/485/485 484/475/475 395/395/395
f 443/438/438 467/461/461 402/402/402
f 430/425/425 465/459/459 441/436/436
f 474/486/486 455/448/448 457/450/450
f 399/399/399 488/487/487 444/439/439
f 470/488/488 395/395/395 468/462/462
f 490/489/489 450/445/445 474/486/486
f 491/490/490 492/491/491 420/420/420
f 442/437/437 490/489/489 488/487/487
f 480/472/472 461/454/454 427/474/474
f 451/446/446 467/461/461 471/464/464
f 429/424/424 462/455/455 465/459/459
f 449/444/444 489/484/484 435/430/430
f 489/484/484 411/411/411 436/431/431
f 395/395/395 484/475/475 396/396/396
f 398/398/398 441/436/436 399/399/399
f 397/397/397 396/396/396 401/401/401
f 403/403/403 416/416/416 404/404/404
f 409/409/409 417/417/417 410/410/410
f 412/412/412 481/473/473 413/413/413
f 415/415/415 459/452/452 416/416/416
f 417/417/417 475/467/467 418/418/418
f 419/419/419 491/490/490 420/420/420
f 416/416/416 443/438/438 422/422/422
f 421/421/421 420/420/420 417/417/417
f 428/423/423 446/441/441 429/424/424
f 431/426/426 485/477/477 432/427/427
f 401/401/401 483/483/483 434/429/429
f 435/430/430 489/484/484 436/431/431
f 424/433/433 423/468/468 438/434/434
f 441/436/436 465/459/459 442/437/437
f 402/402/402 401/401/401 422/422/422
f 400/400/400 399/399/399 444/439/439
f 446/441/441 419/419/419 447/442/442
f 448/443/443 462/455/455 449/444/444
f 451/446/446 433/428/428 432/427/427
f 455/448/448 472/465/465 456/449/449
f 458/451/451 473/466/466 452/447/447
f 459/452/452 471/464/464 443/438/438
f 460/453/453 433/428/428 451/446/446
f 462/455/455 447/442/442 463/456/456
f 440/457/457 428/423/423 430/425/425
f 465/459/459 462/455/455 448/443/443
f 466/460/460 397/397/397 402/402/402
f 468/462/462 395/395/395 397/397/397
f 469/463/463 431/426/426 433/428/428
f 414/414/414 413/413/413 428/423/423
f 461/454/454 451/446/446 471/464/464
f 472/465/465 455/448/448 435/430/430
f 438/434/434 468/462/462 466/460/460
f 413/413/413 408/408/408 446/441/441
f 420/420/420 492/491/491 475/467/467
f 450/445/445 449/444/444 435/430/430
f 473/466/466 466/460/460 467/461/461
f 408/408/408 491/490/490 419/419/419
f 423/468/468 470/488/488 468/462/462
f 477/469/469 439/435/435 458/451/451
f 479/471/471 469/463/463 460/453/453
f 481/473/473 406/406/406 408/408/408
f 427/474/474 461/454/454 459/452/452
f 484/475/475 426/480/480 482/476/476
f 478/470/470 458/451/451 432/427/427
f 486/478/478 424/433/433 439/435/435
f 453/479/479 425/492/492 426/480/480
f 422/422/422 434/429/429 487/481/481
f 405/405/405 404/404/404 487/481/481
f 396/396/396 482/476/476 483/483/483
f 447/442/442 419/419/419 421/421/421
f 439/435/435 438/434/434 473/466/466
f 464/458/458 430/425/425 441/436/436
f 463/456/456 421/421/421 409/409/409
f 454/485/485 453/479/479 484/475/475
f 443/438/438 471/464/464 467/461/461
f 430/425/425 429/424/424 465/459/459
f 474/486/486 450/445/445 455/448/448
f 399/399/399 442/437/437 488/487/487
f 470/488/488 454/485/485 395/395/395
f 490/489/489 448/443/443 450/445/445
f 491/490/490 407/407/407 492/491/491
f 442/437/437 448/443/443 490/489/489
f 480/472/472 460/453/453 461/454/454
f 451/446/446 452/447/447 467/461/461
f 429/424/424 447/442/442 462/455/455
f 449/444/444 463/456/456 489/484/484
f 489/484/484 409/409/409 411/411/411
f 407/407/407 491/490/490 408/408/408
o SKEL_ROOT.007
v 0.285171 0.398767 -0.118214
v 0.269620 0.437755 -0.088039
v 0.282278 0.401399 -0.087153
v 0.274528 0.395998 -0.003002
v 0.272324 0.440708 -0.028801
v 0.259438 0.422238 -0.004327
v 0.269726 0.378890 -0.128504
v 0.288594 0.354034 -0.128025
v 0.266161 0.425766 -0.115488
v 0.285625 0.407215 -0.031389
v 0.272150 0.444197 -0.059328
v 0.249917 0.400796 0.013464
v 0.251646 0.400084 -0.121336
v 0.282092 0.404949 -0.059587
v 0.257515 0.375954 0.005291
v 0.301288 0.382181 -0.059944
v 0.300957 0.380055 -0.033025
v 0.302190 0.378465 -0.085922
v 0.303846 0.372843 -0.118010
v 0.275733 0.352207 0.005247
v 0.295562 0.370465 -0.005334
v 0.306181 0.329576 -0.129122
v 0.321350 0.353623 -0.083470
v 0.315033 0.352772 -0.060686
v 0.291647 0.330190 0.012786
v 0.320692 0.343101 -0.111274
v 0.299544 0.337775 -0.015106
v 0.305715 0.346627 -0.038373
v 0.321559 0.306086 -0.125479
v 0.330057 0.317811 -0.103681
v 0.326956 0.327959 -0.032781
v 0.336131 0.329412 -0.083034
v 0.334172 0.333769 -0.058602
v 0.317014 0.317485 -0.014076
v 0.308232 0.308738 0.008668
v 0.230101 0.422502 -0.122046
v 0.220474 0.488944 -0.119528
v 0.242895 0.450853 -0.106716
v 0.216656 0.449708 -0.143226
v 0.218979 0.439100 0.027357
v 0.236306 0.424748 0.022073
v 0.223231 0.473841 0.010100
v 0.243649 0.451537 0.002195
v 0.227225 0.505831 -0.015725
v 0.250758 0.474740 -0.025829
v 0.221696 0.521146 -0.050467
v 0.256601 0.477783 -0.088852
v 0.248487 0.484295 -0.057981
v 0.229717 0.523521 -0.090888
v -0.267107 0.435153 -0.087744
v -0.281956 0.395474 -0.112353
v -0.278928 0.401776 -0.085036
v -0.278774 0.394814 -0.007164
v -0.272769 0.437341 -0.026858
v -0.288514 0.407985 -0.025542
v -0.272643 0.377123 -0.135479
v -0.291309 0.354694 -0.131596
v -0.265033 0.423786 -0.117007
v -0.269249 0.439865 -0.056952
v -0.283489 0.406510 -0.057654
v -0.251355 0.398846 0.019188
v -0.261444 0.373522 0.011986
v -0.252153 0.400657 -0.139507
v -0.259760 0.422691 -0.005725
v -0.299566 0.378232 -0.023326
v -0.294584 0.374823 -0.057536
v -0.294944 0.372765 -0.084907
v -0.304637 0.373108 -0.110989
v -0.273261 0.348910 0.005383
v -0.292253 0.369954 -0.004644
v -0.304145 0.329842 -0.122008
v -0.322335 0.350480 -0.084126
v -0.317827 0.348873 -0.057848
v -0.287796 0.326108 0.004202
v -0.304047 0.342759 0.000286
v -0.322118 0.346954 -0.110701
v -0.311445 0.350014 -0.022611
v -0.320624 0.308087 -0.123738
v -0.327402 0.317904 -0.104163
v -0.334823 0.330503 -0.057577
v -0.333760 0.330524 -0.030497
v -0.305325 0.305803 0.006121
v -0.338191 0.327337 -0.085225
v -0.323074 0.319930 -0.004521
v -0.208360 0.487871 -0.121196
v -0.225259 0.420958 -0.138211
v -0.241079 0.453720 -0.123989
v -0.198395 0.443171 -0.139122
v -0.221041 0.443434 0.022250
v -0.236795 0.423109 0.023177
v -0.224401 0.471247 0.011041
v -0.245533 0.448881 0.003834
v -0.225439 0.503674 -0.016063
v -0.253233 0.468683 -0.022372
v -0.216105 0.513690 -0.052798
v -0.247351 0.471888 -0.055929
v -0.250878 0.472399 -0.092509
v -0.219756 0.517865 -0.094092
vn 0.7167 0.4471 -0.5352
vn 0.9133 0.3931 -0.1062
vn 0.8881 0.4580 -0.0397
vn 0.5608 0.3219 0.7628
vn 0.8415 0.4383 0.3159
vn 0.6865 0.2917 0.6660
vn 0.1756 0.2366 -0.9556
vn 0.4109 0.4201 -0.8091
vn 0.8848 0.4377 0.1595
vn 0.9260 0.3705 -0.0719
vn 0.8794 0.4670 -0.0927
vn 0.4891 0.1278 0.8628
vn 0.6612 0.1076 0.7425
vn 0.8405 0.5416 0.0113
vn 0.9377 0.2641 0.2257
vn 0.7947 0.5999 -0.0927
vn 0.7484 0.4826 -0.4548
vn 0.2573 0.1497 -0.9547
vn 0.1530 0.2314 0.9607
vn 0.7623 0.3032 0.5718
vn 0.8635 0.4983 -0.0779
vn 0.8224 0.5130 0.2458
vn 0.4962 0.2702 0.8251
vn 0.8421 0.3799 -0.3829
vn 0.9128 0.2566 0.3177
vn 0.3136 0.0967 -0.9446
vn 0.7805 0.4335 0.4503
vn 0.5704 0.0451 -0.8201
vn 0.8221 0.2955 -0.4867
vn 0.6343 0.6180 0.4644
vn 0.7542 0.6023 -0.2616
vn 0.7435 0.6568 0.1256
vn 0.6529 0.5783 0.4892
vn 0.5112 0.1759 0.8413
vn 0.7341 0.2246 -0.6408
vn 0.6923 0.2786 -0.6656
vn 0.4800 0.2945 -0.8264
vn 0.5445 0.1491 0.8254
vn 0.5933 0.3787 0.7103
vn 0.5040 0.1867 0.8433
vn 0.7310 0.3337 0.5952
vn 0.6841 0.5228 0.5086
vn 0.8071 0.4876 0.3329
vn 0.8356 0.5310 0.1405
vn 0.8361 0.4829 -0.2604
vn 0.8678 0.4935 0.0589
vn 0.6995 0.5664 -0.4357
vn 0.1628 0.3101 -0.9367
vn -0.9046 0.4166 -0.0906
vn -0.7790 0.4841 -0.3985
vn -0.8902 0.4525 -0.0529
vn -0.5686 0.3105 0.7618
vn -0.8226 0.4970 0.2763
vn -0.8959 0.4174 0.1521
vn -0.7566 0.4079 -0.5111
vn -0.4843 0.1852 -0.8551
vn -0.8846 0.4485 -0.1277
vn -0.9148 0.3718 -0.1579
vn -0.6263 0.1682 0.7612
vn -0.7307 0.3020 0.6122
vn -0.9012 0.4280 0.0689
vn -0.8227 0.5653 -0.0598
vn -0.8107 0.5845 0.0321
vn -0.7828 0.5066 -0.3615
vn -0.4559 0.1018 -0.8842
vn -0.4915 0.1652 0.8551
vn -0.4798 0.3020 0.8237
vn -0.7818 0.6200 -0.0655
vn -0.7919 0.6075 0.0615
vn -0.2121 0.1916 0.9583
vn -0.5784 0.3828 0.7203
vn -0.8020 0.4476 -0.3955
vn -0.7980 0.5655 0.2084
vn -0.2907 0.0797 -0.9535
vn -0.3562 0.1025 -0.9288
vn -0.8319 0.2852 -0.4760
vn -0.7440 0.6681 -0.0119
vn -0.7893 0.5080 0.3449
vn -0.8207 0.5159 -0.2457
vn -0.2988 0.1134 0.9475
vn -0.6258 0.2739 0.7303
vn -0.2471 0.4093 -0.8783
vn -0.1272 0.1779 -0.9758
vn -0.5172 0.4235 -0.7437
vn -0.3886 0.1754 0.9046
vn -0.5738 0.3870 0.7218
vn -0.7228 0.3607 0.5895
vn -0.7690 0.5530 0.3206
vn -0.8177 0.5329 0.2176
vn -0.8294 0.5576 0.0330
vn -0.8383 0.5447 -0.0233
vn -0.8436 0.5155 -0.1500
vn -0.6677 0.6249 -0.4045
vn -0.6217 0.1524 0.7683
vn -0.2746 0.2023 -0.9400
vn 0.6236 0.1097 -0.7740
vn -0.3067 0.2312 -0.9233
vn -0.3138 0.1970 0.9288
vt 0.685416 0.316751
vt 0.664810 0.346292
vt 0.663713 0.319254
vt 0.603230 0.319045
vt 0.624661 0.347258
vt 0.603916 0.340528
vt 0.703697 0.311309
vt 0.685036 0.339858
vt 0.625018 0.322101
vt 0.644682 0.349429
vt 0.644617 0.321377
vt 0.584679 0.312782
vt 0.585765 0.331508
vt 0.644588 0.300157
vt 0.626261 0.299785
vt 0.662551 0.297682
vt 0.684700 0.294644
vt 0.702006 0.289547
vt 0.587236 0.291731
vt 0.606691 0.296287
vt 0.661549 0.275142
vt 0.644917 0.276442
vt 0.589372 0.271869
vt 0.681896 0.270641
vt 0.610046 0.272516
vt 0.700587 0.268762
vt 0.627389 0.275592
vt 0.699288 0.249725
vt 0.680581 0.250757
vt 0.626929 0.255288
vt 0.663223 0.254771
vt 0.645735 0.256789
vt 0.610708 0.253523
vt 0.592615 0.252697
vt 0.707704 0.352744
vt 0.693050 0.394702
vt 0.686788 0.364401
vt 0.584467 0.350987
vt 0.596802 0.383887
vt 0.578753 0.365666
vt 0.602999 0.363818
vt 0.616076 0.399389
vt 0.623286 0.374274
vt 0.638268 0.409267
vt 0.665229 0.374456
vt 0.643887 0.380303
vt 0.666598 0.408135
vt 0.704517 0.331370
vt 0.831808 0.679435
vt 0.813747 0.650542
vt 0.832788 0.654729
vt 0.888749 0.649759
vt 0.871792 0.678124
vt 0.873302 0.654909
vt 0.811244 0.673729
vt 0.792966 0.644024
vt 0.852367 0.681141
vt 0.851807 0.655920
vt 0.910735 0.643072
vt 0.889892 0.673688
vt 0.875537 0.632421
vt 0.852101 0.632284
vt 0.833931 0.631587
vt 0.815724 0.628385
vt 0.795617 0.624070
vt 0.909803 0.623383
vt 0.889736 0.629439
vt 0.833491 0.606841
vt 0.851743 0.607597
vt 0.908819 0.604206
vt 0.892957 0.608349
vt 0.815297 0.606984
vt 0.876182 0.610342
vt 0.796503 0.603640
vt 0.798962 0.584569
vt 0.814901 0.586390
vt 0.850498 0.589757
vt 0.868921 0.589590
vt 0.831539 0.587207
vt 0.905418 0.585217
vt 0.888746 0.587385
vt 0.800782 0.731202
vt 0.781279 0.687249
vt 0.804961 0.699704
vt 0.912377 0.682645
vt 0.900395 0.715418
vt 0.893718 0.694865
vt 0.879875 0.732132
vt 0.874294 0.703091
vt 0.855792 0.741234
vt 0.852950 0.707380
vt 0.829166 0.706610
vt 0.826755 0.741755
vt 0.911016 0.662746
vt 0.788736 0.665229
vt 0.717589 0.376452
vt 0.774095 0.710460
vt 0.914468 0.700434
s 1
f 493/493/493 494/494/494 495/495/495
f 496/496/496 497/497/497 498/498/498
f 499/499/499 501/500/500 493/493/493
f 502/501/501 503/502/502 497/497/497
f 495/495/495 503/502/502 506/503/503
f 507/504/504 498/498/498 504/505/505
f 508/506/506 502/501/501 509/507/507
f 510/508/508 506/503/503 508/506/506
f 511/509/509 495/495/495 510/508/508
f 500/510/510 493/493/493 511/509/509
f 512/511/511 496/496/496 507/504/504
f 513/512/512 502/501/501 496/496/496
f 515/513/513 508/506/506 516/514/514
f 517/515/515 513/512/512 512/511/511
f 518/516/516 510/508/508 515/513/513
f 519/517/517 509/507/507 513/512/512
f 514/518/518 511/509/509 518/516/516
f 516/514/514 509/507/507 520/519/519
f 521/520/520 518/516/516 522/521/521
f 523/522/522 516/514/514 520/519/519
f 524/523/523 516/514/514 525/524/524
f 526/525/525 517/515/515 527/526/526
f 522/521/521 515/513/513 524/523/523
f 526/525/525 520/519/519 519/517/517
f 528/527/527 529/528/528 530/529/529
f 533/530/530 534/531/531 532/532/532
f 535/533/533 536/534/534 534/531/531
f 537/535/535 538/536/536 536/534/534
f 539/537/537 538/536/536 540/538/538
f 530/529/529 541/539/539 539/537/537
f 504/505/505 535/533/533 533/530/530
f 498/498/498 537/535/535 535/533/533
f 497/497/497 540/538/538 537/535/535
f 494/494/494 540/538/538 503/502/502
f 501/500/500 539/537/537 494/494/494
f 505/540/540 530/529/529 501/500/500
f 542/541/541 543/542/542 544/543/543
f 545/544/544 546/545/545 547/546/546
f 550/547/547 548/548/548 543/542/542
f 547/546/546 551/549/549 552/550/550
f 551/549/549 544/543/543 552/550/550
f 554/551/551 556/552/552 545/544/544
f 557/553/553 552/550/550 558/554/554
f 552/550/550 559/555/555 558/554/554
f 544/543/543 560/556/556 559/555/555
f 543/542/542 549/557/557 560/556/556
f 561/558/558 545/544/544 562/559/559
f 562/559/559 547/546/546 557/553/553
f 558/554/554 564/560/560 565/561/561
f 566/562/562 562/559/559 567/563/563
f 559/555/555 568/564/564 564/560/560
f 567/563/563 557/553/553 569/565/565
f 560/556/556 563/566/566 568/564/564
f 557/553/553 565/561/561 569/565/565
f 568/564/564 570/567/567 571/568/568
f 569/565/565 572/569/569 573/570/570
f 565/561/561 575/571/571 572/569/569
f 574/572/572 567/563/563 576/573/573
f 564/560/560 571/568/568 575/571/571
f 567/563/563 573/570/570 576/573/573
f 577/574/574 578/575/575 579/576/576
f 582/577/577 583/578/578 584/579/579
f 584/579/579 585/580/580 586/581/581
f 586/581/581 587/582/582 588/583/583
f 587/582/582 589/584/584 588/583/583
f 590/585/585 579/576/576 589/584/584
f 553/586/586 584/579/579 556/552/552
f 556/552/552 586/581/581 546/545/545
f 546/545/545 588/583/583 551/549/549
f 588/583/583 542/541/541 551/549/549
f 589/584/584 550/547/547 542/541/541
f 579/576/576 555/587/587 550/547/547
f 493/493/493 501/500/500 494/494/494
f 496/496/496 502/501/501 497/497/497
f 499/499/499 505/540/540 501/500/500
f 502/501/501 506/503/503 503/502/502
f 495/495/495 494/494/494 503/502/502
f 507/504/504 496/496/496 498/498/498
f 508/506/506 506/503/503 502/501/501
f 510/508/508 495/495/495 506/503/503
f 511/509/509 493/493/493 495/495/495
f 500/510/510 499/499/499 493/493/493
f 512/511/511 513/512/512 496/496/496
f 513/512/512 509/507/507 502/501/501
f 515/513/513 510/508/508 508/506/506
f 517/515/515 519/517/517 513/512/512
f 518/516/516 511/509/509 510/508/508
f 519/517/517 520/519/519 509/507/507
f 514/518/518 500/510/510 511/509/509
f 516/514/514 508/506/506 509/507/507
f 521/520/520 514/518/518 518/516/516
f 523/522/522 525/524/524 516/514/514
f 524/523/523 515/513/513 516/514/514
f 526/525/525 519/517/517 517/515/515
f 522/521/521 518/516/516 515/513/513
f 526/525/525 523/522/522 520/519/519
f 528/527/527 531/588/588 529/528/528
f 533/530/530 535/533/533 534/531/531
f 535/533/533 537/535/535 536/534/534
f 537/535/535 540/538/538 538/536/536
f 539/537/537 541/539/539 538/536/536
f 530/529/529 529/528/528 541/539/539
f 504/505/505 498/498/498 535/533/533
f 498/498/498 497/497/497 537/535/535
f 497/497/497 503/502/502 540/538/538
f 494/494/494 539/537/537 540/538/538
f 501/500/500 530/529/529 539/537/537
f 505/540/540 528/527/527 530/529/529
f 542/541/541 550/547/547 543/542/542
f 545/544/544 556/552/552 546/545/545
f 550/547/547 555/587/587 548/548/548
f 547/546/546 546/545/545 551/549/549
f 551/549/549 542/541/541 544/543/543
f 554/551/551 553/586/586 556/552/552
f 557/553/553 547/546/546 552/550/550
f 552/550/550 544/543/543 559/555/555
f 544/543/543 543/542/542 560/556/556
f 543/542/542 548/548/548 549/557/557
f 561/558/558 554/551/551 545/544/544
f 562/559/559 545/544/544 547/546/546
f 558/554/554 559/555/555 564/560/560
f 566/562/562 561/558/558 562/559/559
f 559/555/555 560/556/556 568/564/564
f 567/563/563 562/559/559 557/553/553
f 560/556/556 549/557/557 563/566/566
f 557/553/553 558/554/554 565/561/561
f 568/564/564 563/566/566 570/567/567
f 569/565/565 565/561/561 572/569/569
f 565/561/561 564/560/560 575/571/571
f 574/572/572 566/562/562 567/563/563
f 564/560/560 568/564/564 571/568/568
f 567/563/563 569/565/565 573/570/570
f 577/574/574 580/589/589 578/575/575
f 582/577/577 581/590/590 583/578/578
f 584/579/579 583/578/578 585/580/580
f 586/581/581 585/580/580 587/582/582
f 587/582/582 590/585/585 589/584/584
f 590/585/585 577/574/574 579/576/576
f 553/586/586 582/577/577 584/579/579
f 556/552/552 584/579/579 586/581/581
f 546/545/545 586/581/581 588/583/583
f 588/583/583 589/584/584 542/541/541
f 589/584/584 579/576/576 550/547/547
f 579/576/576 578/575/575 555/587/587
