# Blender 4.2.0
# www.blender.org
o SKEL_ROOT
v -0.323891 0.323550 -0.038037
v 0.314389 0.353149 -0.064150
v 0.294022 0.372091 -0.037736
v 0.309605 0.350170 -0.037733
v -0.215470 0.472068 0.007813
v -0.231863 0.475058 -0.018965
v -0.238072 0.444487 -0.003679
v -0.259927 0.375022 0.003251
v -0.284064 0.362157 -0.015834
v -0.274598 0.350714 0.001572
v 0.243524 0.392743 0.005079
v 0.266656 0.431253 -0.061236
v 0.247344 0.456109 -0.029559
v 0.261883 0.426092 -0.030145
v 0.234676 0.441121 0.000439
v 0.254427 0.411468 -0.008330
v -0.245334 0.393795 -0.126326
v -0.219451 0.411016 -0.128607
v -0.247407 0.399319 0.006277
v 0.256259 0.409834 -0.107913
v 0.279946 0.395629 -0.084310
v 0.275256 0.385991 -0.105417
v 0.195083 0.425687 -0.134309
v 0.233748 0.435740 -0.112120
v 0.222166 0.407865 -0.127100
v 0.314124 0.348220 -0.080811
v 0.327429 0.331876 -0.062325
v 0.325793 0.329188 -0.082821
v -0.310272 0.347107 -0.037144
v -0.328875 0.326148 -0.060978
v -0.196335 0.421100 -0.135484
v -0.230687 0.439809 -0.111713
v -0.205437 0.456167 -0.118330
v 0.284664 0.362751 -0.016347
v 0.258438 0.369985 -0.000366
v 0.271459 0.350284 -0.002351
v -0.293689 0.372656 -0.036620
v -0.316362 0.351189 -0.060314
v 0.324408 0.328098 -0.036901
v 0.299311 0.326482 -0.117467
v 0.318360 0.321999 -0.101220
v 0.307300 0.311385 -0.115389
v -0.247573 0.457224 -0.032241
v -0.266351 0.435243 -0.059942
v -0.262824 0.427048 -0.034567
v -0.302058 0.328426 -0.121746
v -0.285914 0.351243 -0.125678
v 0.314360 0.317192 -0.019172
v 0.285672 0.326797 -0.002835
v 0.301994 0.305042 -0.005282
v -0.243987 0.453619 -0.087256
v -0.251342 0.462379 -0.060793
v 0.224721 0.416414 0.015521
v -0.256500 0.415196 -0.012117
v 0.308888 0.337501 -0.102366
v 0.282458 0.400884 -0.062273
v 0.298069 0.377320 -0.062752
v 0.245173 0.388764 -0.122110
v 0.264795 0.369630 -0.119640
v 0.298459 0.371672 -0.083420
v -0.295040 0.365417 -0.107753
v -0.317604 0.347407 -0.082178
v -0.300699 0.373689 -0.084488
v -0.275638 0.390446 -0.108005
v -0.280938 0.399635 -0.085752
v -0.312580 0.340062 -0.104437
v 0.292576 0.362125 -0.105111
v -0.265833 0.373016 -0.126671
v -0.224718 0.500462 -0.034275
v -0.237340 0.481713 -0.060756
v -0.234316 0.481333 -0.033360
v -0.289654 0.327507 0.000365
v -0.314696 0.313915 -0.018092
v -0.304323 0.304839 -0.001852
v -0.282370 0.404187 -0.061809
v -0.277397 0.398416 -0.035914
v 0.202840 0.441829 0.026426
v 0.263532 0.424608 -0.084848
v 0.269752 0.382876 -0.015006
v -0.254858 0.415164 -0.108523
v -0.261566 0.427941 -0.086357
v -0.269324 0.389021 -0.016914
v 0.299317 0.338057 -0.016584
v 0.246928 0.451522 -0.084713
v 0.227911 0.476799 -0.012529
v 0.210244 0.472689 0.010074
v -0.208041 0.445990 0.021639
v -0.228765 0.421757 0.012710
v -0.329649 0.325206 -0.081656
v -0.323671 0.318400 -0.102495
v 0.215034 0.497818 -0.083696
v 0.234262 0.486650 -0.059665
v 0.228719 0.476368 -0.084137
v 0.283093 0.349239 -0.121753
v -0.214293 0.480781 -0.103062
v -0.227777 0.476331 -0.085936
v -0.219588 0.494255 -0.084227
v -0.298267 0.337837 -0.015730
v 0.277204 0.397583 -0.033202
v -0.311394 0.309568 -0.119102
v -0.300569 0.377330 -0.061714
v 0.220010 0.505321 -0.033806
v 0.232223 0.484241 -0.032764
v 0.252543 0.461612 -0.059579
v 0.209842 0.482035 -0.104458
v 0.202335 0.456515 -0.118990
v 0.225569 0.469386 -0.099612
v 0.217569 0.493992 -0.008128
v -0.225109 0.470692 -0.098664
v -0.223107 0.489639 -0.010698
v -0.222429 0.500384 -0.059542
v 0.218157 0.504487 -0.058972
v -0.168869 0.399468 0.063125
v -0.181584 0.370224 0.040159
v -0.170757 0.359436 0.050016
v -0.124524 0.491519 0.039212
v -0.104826 0.455126 0.071198
v -0.092824 0.507195 0.039322
v 0.172848 0.361087 0.047932
v 0.166505 0.396251 0.064770
v 0.164441 0.353638 0.059865
v 0.150042 0.474914 0.034431
v 0.127341 0.448827 0.064278
v 0.156541 0.443608 0.056165
v 0.160584 0.379170 0.074461
v 0.085912 0.502406 0.045782
v 0.175245 0.402816 0.055852
v 0.106720 0.409185 0.094113
v 0.137506 0.405807 0.082123
v -0.155298 0.481193 0.028003
v -0.131112 0.452916 0.060003
v -0.111990 0.413212 0.090586
v -0.144101 0.410393 0.077002
v -0.180363 0.449380 0.041947
v 0.119245 0.484461 0.045741
v 0.100142 0.452281 0.074023
v -0.158486 0.449463 0.048217
v 0.172139 0.471979 0.026230
v 0.174595 0.442311 0.049098
v -0.181468 0.404623 0.051220
v 0.052736 0.390992 0.115307
v -0.116127 0.385715 0.101122
v -0.143681 0.381537 0.087603
v 0.080471 0.389710 0.110525
v 0.111412 0.387376 0.103025
v 0.074399 0.411508 0.101548
v -0.086391 0.388439 0.109345
v -0.079803 0.414374 0.099177
v 0.137506 0.384017 0.090533
v -0.061330 0.389394 0.114278
v -0.040487 0.415067 0.105088
v -0.165629 0.375426 0.068200
v -0.065689 0.498982 0.058124
v 0.058694 0.492820 0.060460
v -0.038952 0.488128 0.069459
v -0.041024 0.454397 0.086002
v 0.040384 0.489655 0.066419
v -0.071424 0.454901 0.080631
v 0.035974 0.411749 0.106897
v 0.038133 0.453976 0.086653
v 0.066761 0.454100 0.082010
v -0.078990 0.524490 0.033743
v -0.076449 0.513934 0.044698
v -0.081031 0.542041 0.011853
v 0.078437 0.543589 0.013536
v 0.076154 0.533656 0.024140
v -0.051771 0.536562 0.059863
v 0.072690 0.528083 0.036913
v 0.053554 0.548389 0.052468
v 0.070774 0.516566 0.047583
v 0.068991 0.506966 0.055989
v 0.041268 0.537892 0.064267
v 0.070625 0.498861 0.057795
v -0.060525 0.577584 0.021086
v 0.062890 0.567481 0.031339
v 0.063039 0.579389 0.022596
v 0.059057 0.571947 0.032485
v 0.074820 0.523854 0.034244
v 0.073036 0.511668 0.045904
v -0.057269 0.561078 0.040489
v -0.058707 0.569598 0.031666
v -0.058006 0.536701 0.056012
v -0.074480 0.504424 0.053979
v -0.064230 0.573197 0.020183
v 0.077240 0.548284 0.015267
v 0.075146 0.538074 0.026734
v -0.060397 0.547881 0.046764
v -0.076439 0.530450 0.035957
v -0.074594 0.522711 0.044024
v -0.055978 0.551924 0.048296
v -0.080313 0.533449 0.023426
v 0.048578 0.551344 0.053452
v 0.055235 0.563073 0.042464
v -0.062251 0.566010 0.030839
v -0.079424 0.547367 0.014146
v -0.078376 0.539133 0.025426
v -0.061578 0.556623 0.039142
v 0.048820 0.538040 0.062164
v -0.072016 0.516514 0.051087
v 0.059166 0.558774 0.041759
v 0.066162 0.574803 0.021087
vn 0.8331 0.5491 0.0662
vn 0.7837 0.5078 0.3576
vn 0.7650 0.5124 0.3900
vn -0.6270 0.3810 0.6795
vn -0.8089 0.3728 0.4547
vn -0.7441 0.3270 0.5826
vn -0.5120 0.2312 0.8273
vn -0.6993 0.4102 0.5854
vn -0.4802 0.2630 0.8368
vn 0.8913 0.4526 0.0269
vn 0.8424 0.4117 0.3476
vn 0.8291 0.3991 0.3915
vn 0.7099 0.3004 0.6370
vn 0.7161 0.2653 0.6456
vn 0.6068 0.3975 -0.6884
vn 0.7856 0.5210 -0.3338
vn 0.6295 0.4554 -0.6296
vn 0.3426 0.2727 -0.8990
vn 0.5482 0.3765 -0.7468
vn 0.3851 0.2353 -0.8924
vn 0.8051 0.5023 -0.3154
vn 0.8439 0.5338 0.0538
vn 0.8038 0.5074 -0.3104
vn -0.7798 0.4508 0.4344
vn -0.8682 0.4734 0.1487
vn -0.7709 0.4501 0.4506
vn -0.3242 0.2825 -0.9028
vn -0.5360 0.3960 -0.7456
vn -0.3444 0.3871 -0.8553
vn 0.6390 0.4020 0.6558
vn 0.5100 0.1987 0.8369
vn 0.4526 0.2439 0.8577
vn -0.7690 0.4764 0.4262
vn -0.8549 0.4997 0.1392
vn 0.7762 0.4716 0.4185
vn 0.5354 0.2175 -0.8161
vn 0.7031 0.3797 -0.6013
vn 0.5377 0.1878 -0.8220
vn -0.8427 0.4516 0.2931
vn -0.8775 0.4782 -0.0376
vn -0.8431 0.4069 0.3516
vn 0.5991 0.3884 0.7001
vn 0.4437 0.2323 0.8655
vn 0.3789 0.2692 0.8854
vn -0.7513 0.4785 -0.4545
vn -0.8306 0.5354 -0.1530
vn 0.5879 0.1164 0.8005
vn 0.5645 0.1207 0.8165
vn -0.7617 0.3258 0.5600
vn 0.7184 0.4159 -0.5576
vn 0.8640 0.5032 0.0164
vn 0.8252 0.5647 0.0125
vn 0.4157 0.2947 -0.8604
vn 0.4257 0.3722 -0.8248
vn 0.7821 0.5449 -0.3022
vn -0.6994 0.4834 -0.5264
vn -0.8476 0.4909 -0.2017
vn -0.8022 0.5475 -0.2382
vn -0.6341 0.5130 -0.5786
vn -0.7755 0.5592 -0.2929
vn -0.4613 0.2821 -0.8412
vn -0.7598 0.4080 -0.5062
vn 0.6769 0.4608 -0.5740
vn -0.7175 0.6758 0.1688
vn -0.8325 0.5469 -0.0880
vn -0.8694 0.4527 0.1980
vn -0.4879 0.2577 0.8340
vn -0.6853 0.4047 0.6054
vn -0.4595 0.2024 0.8648
vn -0.8615 0.5063 0.0374
vn -0.8122 0.4443 0.3781
vn 0.6113 0.1966 0.7666
vn 0.7800 0.4708 -0.4122
vn 0.6878 0.3176 0.6527
vn -0.5724 0.4769 -0.6670
vn -0.7595 0.5107 -0.4030
vn -0.7452 0.3606 0.5609
vn 0.6183 0.3731 0.6917
vn 0.7649 0.4675 -0.4432
vn 0.7765 0.3710 0.5093
vn 0.6075 0.3673 0.7043
vn -0.5918 0.1608 0.7899
vn -0.6121 0.2091 0.7626
vn -0.5846 0.1987 0.7866
vn -0.8670 0.4563 -0.2001
vn -0.5268 0.2055 -0.8248
vn -0.7800 0.3362 -0.5278
vn 0.5872 0.6716 -0.4518
vn 0.7939 0.5885 -0.1532
vn 0.7342 0.5356 -0.4173
vn -0.4207 0.5267 -0.7387
vn -0.7582 0.5060 -0.4112
vn -0.6201 0.6509 -0.4379
vn -0.6956 0.4089 0.5907
vn 0.8308 0.4180 0.3675
vn 0.4864 0.3304 -0.8089
vn -0.3474 0.2747 -0.8966
vn -0.3853 0.3402 -0.8578
vn -0.3435 0.3363 -0.8769
vn -0.8299 0.5472 0.1086
vn 0.6649 0.7266 0.1730
vn 0.8337 0.5019 0.2301
vn 0.8540 0.5143 -0.0782
vn 0.4225 0.5484 -0.7216
vn 0.3490 0.3857 -0.8541
vn 0.6090 0.4403 -0.6597
vn 0.5935 0.5813 0.5566
vn -0.6259 0.4216 -0.6562
vn -0.6400 0.5720 0.5130
vn -0.6473 0.7408 -0.1797
vn -0.5589 0.1284 -0.8193
vn 0.6176 0.7652 -0.1816
vn -0.6795 0.1453 0.7192
vn -0.7868 -0.3354 0.5182
vn -0.8829 -0.2597 0.3911
vn -0.3656 0.5492 0.7515
vn -0.3004 0.4884 0.8193
vn -0.3235 0.6455 0.6919
vn 0.8506 -0.2809 0.4446
vn 0.6913 0.1237 0.7119
vn 0.8905 -0.2301 0.3925
vn 0.3726 0.5476 0.7492
vn 0.3560 0.4742 0.8053
vn 0.4194 0.3915 0.8190
vn 0.6623 0.0095 0.7492
vn 0.3048 0.4310 0.8493
vn 0.4470 0.3554 0.8209
vn -0.3759 0.5364 0.7556
vn -0.3963 0.4677 0.7900
vn -0.3260 0.4220 0.8459
vn -0.4585 0.3769 0.8048
vn 0.3626 0.5178 0.7748
vn 0.2716 0.4861 0.8306
vn -0.4250 0.4021 0.8110
vn 0.4676 0.3826 0.7969
vn 0.3035 0.5516 0.7770
vn -0.6038 0.0697 0.7941
vn -0.3997 0.3785 0.8348
vn -0.3658 0.4861 0.7937
vn -0.5514 0.4257 0.7174
vn 0.2055 0.5515 0.8085
vn 0.3311 0.5669 0.7543
vn 0.1809 0.4347 0.8822
vn -0.2338 0.5163 0.8239
vn -0.2010 0.4322 0.8791
vn 0.7497 0.1711 0.6393
vn 0.4968 0.5321 0.6856
vn -0.0882 0.4041 0.9105
vn -0.8521 0.0577 0.5201
vn 0.2309 0.5333 0.8138
vn 0.2643 0.5888 0.7638
vn -0.1854 0.4484 0.8744
vn -0.1447 0.4488 0.8818
vn -0.2703 0.5079 0.8179
vn -0.0396 0.3993 0.9160
vn -0.1052 0.4370 0.8933
vn 0.1869 0.4907 0.8510
vn 0.1893 0.4719 0.8611
vn 0.1535 0.4431 0.8833
vn 0.0611 0.4101 0.9100
vn 0.0952 0.3984 0.9123
vn 0.8106 0.2743 0.5174
vn 0.7140 0.3181 0.6237
vn 0.7664 0.3181 0.5581
vn 0.6366 0.2563 0.7274
vn 0.0795 0.1729 0.9817
vn 0.2175 -0.1785 0.9596
vn 0.8262 0.2944 0.4804
vn 0.4452 0.6777 0.5852
vn 0.1910 0.7295 0.6568
vn 0.9933 -0.1074 0.0429
vn 0.9920 -0.1111 0.0598
vn -0.6482 0.3339 0.6844
vn -0.5630 0.1071 0.8195
vn -0.1663 0.2182 0.9616
vn 0.8862 0.2742 0.3734
vn 0.8590 0.2537 0.4447
vn 0.9829 -0.1837 0.0102
vn -0.7259 0.3750 0.5765
vn -0.8037 0.3497 0.4814
vn -0.7694 0.3295 0.5472
vn 0.1352 0.6776 0.7229
vn -0.0552 0.6730 0.7376
vn -0.7961 0.4137 0.4416
vn -0.8561 0.3788 0.3515
vn -0.8339 0.3653 0.4137
vn -0.9958 -0.0472 0.0788
vn -0.7622 0.3949 0.5130
vn -0.3995 0.6630 0.6331
vn 0.6067 0.3051 0.7340
vn -0.7471 0.3142 0.5857
vn -0.9881 -0.1521 -0.0217
vn -0.9859 -0.0265 0.1649
vn -0.9758 -0.0198 0.2176
vn -0.5512 0.6277 0.5498
vn -0.8274 0.4011 0.3930
vn -0.3334 0.5543 0.7626
vn -0.3577 0.6082 0.7087
vn 0.9767 -0.2148 0.0029
vn 0.7743 0.2887 0.5632
vn 0.8777 0.2858 0.3846
vt 0.427493 0.761050
vt 0.399682 0.784972
vt 0.401591 0.759966
vt 0.712945 0.445794
vt 0.685926 0.442176
vt 0.701950 0.415159
vt 0.716139 0.350631
vt 0.692505 0.330537
vt 0.713516 0.325706
vt 0.422586 0.841697
vt 0.393714 0.869131
vt 0.393180 0.839313
vt 0.361775 0.863660
vt 0.368836 0.832488
vt 0.469730 0.832268
vt 0.445085 0.810015
vt 0.467337 0.805121
vt 0.513522 0.874774
vt 0.474862 0.862823
vt 0.501676 0.847913
vt 0.445807 0.757515
vt 0.427599 0.738674
vt 0.446594 0.737644
vt 0.667445 0.307736
vt 0.642935 0.284435
vt 0.665389 0.282307
vt 0.553865 0.421614
vt 0.593340 0.416345
vt 0.582145 0.441941
vt 0.375237 0.781287
vt 0.350845 0.798420
vt 0.353866 0.776321
vt 0.668680 0.335370
vt 0.644378 0.309817
vt 0.402433 0.735953
vt 0.485786 0.749918
vt 0.466691 0.737122
vt 0.486367 0.735027
vt 0.673043 0.420970
vt 0.647533 0.395106
vt 0.671532 0.391935
vt 0.380661 0.732181
vt 0.356105 0.752005
vt 0.359679 0.727957
vt 0.621650 0.421030
vt 0.646868 0.421454
vt 0.338378 0.848619
vt 0.346836 0.821941
vt 0.695285 0.384458
vt 0.466211 0.752999
vt 0.424038 0.812499
vt 0.425621 0.787664
vt 0.493148 0.822566
vt 0.489073 0.798320
vt 0.444945 0.783435
vt 0.602461 0.330991
vt 0.623637 0.306632
vt 0.622868 0.334683
vt 0.601416 0.358498
vt 0.623225 0.363391
vt 0.582496 0.325696
vt 0.603590 0.304357
vt 0.466266 0.779445
vt 0.670290 0.463392
vt 0.647039 0.443546
vt 0.671804 0.446387
vt 0.711244 0.300688
vt 0.688722 0.279437
vt 0.709062 0.276947
vt 0.645306 0.365350
vt 0.670525 0.362486
vt 0.329131 0.878492
vt 0.444415 0.839253
vt 0.373521 0.804551
vt 0.599342 0.386787
vt 0.622790 0.393545
vt 0.692903 0.357238
vt 0.376725 0.755408
vt 0.443862 0.867045
vt 0.377689 0.893855
vt 0.352710 0.898297
vt 0.717311 0.375288
vt 0.732220 0.428185
vt 0.724664 0.401074
vt 0.622272 0.283635
vt 0.584190 0.301257
vt 0.602058 0.282852
vt 0.443713 0.915983
vt 0.421294 0.898400
vt 0.443448 0.895355
vt 0.605344 0.455153
vt 0.622396 0.445251
vt 0.625372 0.461857
vt 0.692057 0.305582
vt 0.395412 0.810883
vt 0.487181 0.774362
vt 0.567849 0.401379
vt 0.580095 0.350917
vt 0.576494 0.376465
vt 0.644367 0.337471
vt 0.398416 0.918548
vt 0.396915 0.897845
vt 0.421147 0.871056
vt 0.466155 0.907753
vt 0.488891 0.893179
vt 0.458999 0.891490
vt 0.374415 0.911255
vt 0.609887 0.441576
vt 0.692134 0.455907
vt 0.647850 0.464796
vt 0.582918 0.282895
vt 0.420917 0.919181
vt 0.847074 0.702684
vt 0.822325 0.677432
vt 0.834531 0.666361
vt 0.881912 0.790515
vt 0.905720 0.751617
vt 0.909294 0.805981
vt 0.205712 0.675556
vt 0.188568 0.706376
vt 0.193132 0.668004
vt 0.178313 0.784483
vt 0.152347 0.753735
vt 0.179657 0.749980
vt 0.198760 0.713704
vt 0.128512 0.713606
vt 0.157716 0.712495
vt 0.852055 0.784013
vt 0.880275 0.751465
vt 0.904062 0.711125
vt 0.873351 0.710141
vt 0.148374 0.789540
vt 0.126472 0.754950
vt 0.853582 0.750213
vt 0.196845 0.750216
vt 0.199305 0.783812
vt 0.832499 0.709246
vt 0.833444 0.750647
vt 0.902930 0.685575
vt 0.876436 0.683936
vt 0.103410 0.694075
vt 0.130662 0.693194
vt 0.099401 0.714749
vt 0.929508 0.687145
vt 0.933266 0.711653
vt 0.180097 0.690688
vt 0.155350 0.692304
vt 0.951805 0.687692
vt 0.850855 0.680238
vt 0.091339 0.794977
vt 0.118947 0.806116
vt 0.936573 0.750871
vt 0.962264 0.783923
vt 0.936940 0.794223
vt 0.968262 0.712933
vt 0.963915 0.751023
vt 0.069568 0.791886
vt 0.095985 0.755778
vt 0.070324 0.755857
vt 0.078617 0.695323
vt 0.065237 0.715023
vt 0.943024 0.302518
vt 0.980146 0.308369
vt 0.942360 0.317390
vt 0.941582 0.332200
vt 0.989072 0.325175
vt 0.938030 0.336923
vt 0.976133 0.282002
vt 0.980250 0.268926
vt 0.981776 0.281459
vt 0.938288 0.303058
vt 0.938083 0.319932
vt 0.921995 0.019347
vt 0.877719 0.002887
vt 0.928393 0.015573
vt 0.944284 0.275376
vt 0.943532 0.288985
vt 0.938735 0.289541
vt 0.919199 0.033249
vt 0.882814 0.039489
vt 0.882611 0.024242
vt 0.983661 0.294261
vt 0.986192 0.309782
vt 0.915342 0.060380
vt 0.883655 0.069299
vt 0.883235 0.054263
vt 0.877280 0.052880
vt 0.917090 0.047432
vt 0.920574 0.060888
vt 0.982889 0.321725
vt 0.882254 0.009031
vt 0.877685 0.068459
vt 0.876768 0.037735
vt 0.877156 0.020386
vt 0.918752 0.073856
vt 0.913765 0.073332
vt 0.925069 0.031569
vt 0.922446 0.047875
vt 0.939317 0.275809
vt 0.977946 0.294907
vt 0.974819 0.269329
s 1
f 2/1/1 3/2/2 4/3/3
f 5/4/4 6/5/5 7/6/6
f 8/7/7 9/8/8 10/9/9
f 12/10/10 13/11/11 14/12/12
f 14/12/12 15/13/13 16/14/14
f 20/15/15 21/16/16 22/17/17
f 23/18/18 24/19/19 25/20/20
f 26/21/21 27/22/22 28/23/23
f 29/24/24 30/25/25 1/26/26
f 31/27/27 32/28/28 33/29/29
f 34/30/30 35/31/31 36/32/32
f 37/33/33 38/34/34 29/24/24
f 27/22/22 4/3/3 39/35/35
f 40/36/36 41/37/37 42/38/38
f 43/39/39 44/40/40 45/41/41
f 48/42/42 49/43/43 50/44/44
f 51/45/45 44/40/40 52/46/46
f 16/14/14 53/47/47 11/48/48
f 7/6/6 45/41/41 54/49/49
f 55/50/50 28/23/23 41/37/37
f 56/51/51 3/2/2 57/52/52
f 58/53/53 22/17/17 59/54/54
f 60/55/55 2/1/1 26/21/21
f 61/56/56 62/57/57 63/58/58
f 64/59/59 63/58/58 65/60/60
f 25/20/20 20/15/15 58/53/53
f 47/61/61 66/62/62 61/56/56
f 67/63/63 26/21/21 55/50/50
f 69/64/64 70/65/65 71/66/66
f 72/67/67 73/68/68 74/69/69
f 45/41/41 75/70/70 76/71/71
f 15/13/13 77/72/72 53/47/47
f 22/17/17 60/55/55 67/63/63
f 78/73/73 56/51/51 21/16/16
f 79/74/74 11/48/48 35/31/31
f 80/75/75 65/60/60 81/76/76
f 24/19/19 78/73/73 20/15/15
f 82/77/77 37/33/33 9/8/8
f 83/78/78 36/32/32 49/43/43
f 84/79/79 12/10/10 78/73/73
f 85/80/80 86/81/81 15/13/13
f 19/82/82 82/77/77 8/7/7
f 87/83/83 7/6/6 88/84/84
f 66/62/62 89/85/85 62/57/57
f 46/86/86 90/87/87 66/62/62
f 91/88/88 92/89/89 93/90/90
f 95/91/91 96/92/92 97/93/93
f 98/94/94 1/26/26 73/68/68
f 62/57/57 30/25/25 38/34/34
f 99/95/95 12/10/10 14/12/12
f 32/28/28 81/76/76 51/45/45
f 59/54/54 67/63/63 94/96/96
f 88/84/84 54/49/49 19/82/82
f 18/97/97 80/75/75 32/28/28
f 21/16/16 57/52/52 60/55/55
f 39/35/35 83/78/78 48/42/42
f 68/98/98 61/56/56 64/59/59
f 96/92/92 52/46/46 70/65/65
f 10/9/9 98/94/94 72/67/67
f 17/99/99 64/59/59 80/75/75
f 54/49/49 76/71/71 82/77/77
f 99/95/95 16/14/14 79/74/74
f 94/96/96 55/50/50 40/36/36
f 76/71/71 101/100/100 37/33/33
f 4/3/3 34/30/30 83/78/78
f 9/8/8 29/24/24 98/94/94
f 81/76/76 75/70/70 44/40/40
f 65/60/60 101/100/100 75/70/70
f 63/58/58 38/34/34 101/100/100
f 92/89/89 102/101/101 103/102/102
f 3/2/2 79/74/74 34/30/30
f 104/103/103 103/102/102 13/11/11
f 93/90/90 104/103/103 84/79/79
f 93/90/90 105/104/104 91/88/88
f 106/105/105 107/106/106 24/19/19
f 107/106/106 84/79/79 24/19/19
f 108/107/107 103/102/102 102/101/101
f 85/80/80 13/11/11 103/102/102
f 43/39/39 70/65/65 52/46/46
f 109/108/108 33/29/29 32/28/28
f 71/66/66 110/109/109 69/64/64
f 97/93/93 70/65/65 111/110/110
f 43/39/39 6/5/5 71/66/66
f 109/108/108 51/45/45 96/92/92
f 2/1/1 57/52/52 3/2/2
f 5/4/4 110/109/109 6/5/5
f 8/7/7 82/77/77 9/8/8
f 12/10/10 104/103/103 13/11/11
f 14/12/12 13/11/11 15/13/13
f 20/15/15 78/73/73 21/16/16
f 23/18/18 106/105/105 24/19/19
f 26/21/21 2/1/1 27/22/22
f 29/24/24 38/34/34 30/25/25
f 31/27/27 18/97/97 32/28/28
f 34/30/30 79/74/74 35/31/31
f 37/33/33 101/100/100 38/34/34
f 27/22/22 2/1/1 4/3/3
f 40/36/36 55/50/50 41/37/37
f 43/39/39 52/46/46 44/40/40
f 48/42/42 83/78/78 49/43/43
f 51/45/45 81/76/76 44/40/40
f 16/14/14 15/13/13 53/47/47
f 7/6/6 43/39/39 45/41/41
f 55/50/50 26/21/21 28/23/23
f 56/51/51 99/95/95 3/2/2
f 58/53/53 20/15/15 22/17/17
f 60/55/55 57/52/52 2/1/1
f 61/56/56 66/62/62 62/57/57
f 64/59/59 61/56/56 63/58/58
f 25/20/20 24/19/19 20/15/15
f 47/61/61 46/86/86 66/62/62
f 67/63/63 60/55/55 26/21/21
f 69/64/64 111/110/110 70/65/65
f 72/67/67 98/94/94 73/68/68
f 45/41/41 44/40/40 75/70/70
f 15/13/13 86/81/81 77/72/72
f 22/17/17 21/16/16 60/55/55
f 78/73/73 12/10/10 56/51/51
f 79/74/74 16/14/14 11/48/48
f 80/75/75 64/59/59 65/60/60
f 24/19/19 84/79/79 78/73/73
f 82/77/77 76/71/71 37/33/33
f 83/78/78 34/30/30 36/32/32
f 84/79/79 104/103/103 12/10/10
f 85/80/80 108/107/107 86/81/81
f 19/82/82 54/49/49 82/77/77
f 87/83/83 5/4/4 7/6/6
f 66/62/62 90/87/87 89/85/85
f 46/86/86 100/111/111 90/87/87
f 91/88/88 112/112/112 92/89/89
f 95/91/91 109/108/108 96/92/92
f 98/94/94 29/24/24 1/26/26
f 62/57/57 89/85/85 30/25/25
f 99/95/95 56/51/51 12/10/10
f 32/28/28 80/75/75 81/76/76
f 59/54/54 22/17/17 67/63/63
f 88/84/84 7/6/6 54/49/49
f 18/97/97 17/99/99 80/75/75
f 21/16/16 56/51/51 57/52/52
f 39/35/35 4/3/3 83/78/78
f 68/98/98 47/61/61 61/56/56
f 96/92/92 51/45/45 52/46/46
f 10/9/9 9/8/8 98/94/94
f 17/99/99 68/98/98 64/59/59
f 54/49/49 45/41/41 76/71/71
f 99/95/95 14/12/12 16/14/14
f 94/96/96 67/63/63 55/50/50
f 76/71/71 75/70/70 101/100/100
f 4/3/3 3/2/2 34/30/30
f 9/8/8 37/33/33 29/24/24
f 81/76/76 65/60/60 75/70/70
f 65/60/60 63/58/58 101/100/100
f 63/58/58 62/57/57 38/34/34
f 92/89/89 112/112/112 102/101/101
f 3/2/2 99/95/95 79/74/74
f 104/103/103 92/89/89 103/102/102
f 93/90/90 92/89/89 104/103/103
f 93/90/90 107/106/106 105/104/104
f 106/105/105 105/104/104 107/106/106
f 107/106/106 93/90/90 84/79/79
f 108/107/107 85/80/80 103/102/102
f 85/80/80 15/13/13 13/11/11
f 43/39/39 71/66/66 70/65/65
f 109/108/108 95/91/91 33/29/29
f 71/66/66 6/5/5 110/109/109
f 97/93/93 96/92/92 70/65/65
f 43/39/39 7/6/6 6/5/5
f 109/108/108 32/28/28 51/45/45
f 113/113/113 114/114/114 115/115/115
f 116/116/116 117/117/117 118/118/118
f 119/119/119 120/120/120 121/121/121
f 122/122/122 123/123/123 124/124/124
f 127/125/125 124/124/124 120/120/120
f 123/123/123 128/126/126 129/127/127
f 130/128/128 131/129/129 116/116/116
f 132/130/130 131/129/129 133/131/131
f 135/132/132 136/133/133 123/123/123
f 133/131/131 137/134/134 113/113/113
f 124/124/124 129/127/127 120/120/120
f 122/122/122 139/135/135 138/136/136
f 140/137/137 137/134/134 134/138/138
f 142/139/139 133/131/131 143/140/140
f 128/126/126 144/141/141 145/142/142
f 136/133/133 146/143/143 128/126/126
f 132/130/130 147/144/144 148/145/145
f 129/127/127 125/146/146 120/120/120
f 129/127/127 145/142/142 149/147/147
f 150/148/148 148/145/145 147/144/144
f 143/140/140 113/113/113 152/149/149
f 154/150/150 136/133/133 126/151/151
f 158/152/152 155/153/153 153/154/154
f 158/152/152 151/155/155 156/156/156
f 117/117/117 148/145/145 158/152/152
f 117/117/117 153/154/154 118/118/118
f 157/157/157 161/158/158 154/150/150
f 160/159/159 146/143/143 161/158/158
f 141/160/160 146/143/143 159/161/161
f 113/113/113 140/137/137 114/114/114
f 116/116/116 131/129/129 117/117/117
f 119/119/119 127/125/125 120/120/120
f 122/122/122 135/132/132 123/123/123
f 121/121/121 120/120/120 125/146/146
f 127/125/125 139/135/135 124/124/124
f 123/123/123 136/133/133 128/126/126
f 130/128/128 137/134/134 131/129/129
f 132/130/130 117/117/117 131/129/129
f 134/138/138 137/134/134 130/128/128
f 135/132/132 126/151/151 136/133/133
f 133/131/131 131/129/129 137/134/134
f 124/124/124 123/123/123 129/127/127
f 122/122/122 124/124/124 139/135/135
f 140/137/137 113/113/113 137/134/134
f 142/139/139 132/130/130 133/131/131
f 128/126/126 146/143/143 144/141/141
f 136/133/133 161/158/158 146/143/143
f 132/130/130 142/139/139 147/144/144
f 129/127/127 149/147/147 125/146/146
f 129/127/127 128/126/126 145/142/142
f 150/148/148 151/155/155 148/145/145
f 143/140/140 133/131/131 113/113/113
f 152/149/149 113/113/113 115/115/115
f 154/150/150 161/158/158 136/133/133
f 158/152/152 156/156/156 155/153/153
f 158/152/152 148/145/145 151/155/155
f 117/117/117 132/130/130 148/145/145
f 117/117/117 158/152/152 153/154/154
f 157/157/157 160/159/159 161/158/158
f 160/159/159 159/161/161 146/143/143
f 141/160/160 144/141/141 146/143/143
f 168/162/162 169/163/163 170/164/164
f 171/165/165 172/166/166 173/167/167
f 175/168/168 176/169/169 177/170/170
f 178/171/171 170/164/164 179/172/172
f 182/173/173 183/174/174 167/175/175
f 185/176/176 175/168/168 186/177/177
f 168/162/162 166/178/178 186/177/177
f 187/179/179 188/180/180 189/181/181
f 169/163/163 193/182/182 192/183/183
f 194/184/184 195/185/185 196/186/186
f 191/187/187 188/180/180 196/186/186
f 197/188/188 181/189/189 194/184/184
f 171/165/165 198/190/190 172/166/166
f 197/188/188 196/186/186 188/180/180
f 182/173/173 199/191/191 183/174/174
f 164/192/192 196/186/186 195/185/185
f 189/181/181 162/193/193 163/194/194
f 194/184/184 174/195/195 184/196/196
f 199/191/191 163/194/194 183/174/174
f 190/197/197 182/173/173 167/175/175
f 180/198/198 187/179/179 190/197/197
f 186/177/177 165/199/199 185/176/176
f 186/177/177 200/200/200 168/162/162
f 200/200/200 177/170/170 193/182/182
f 182/173/173 189/181/181 199/191/191
f 198/190/190 192/183/183 172/166/166
f 179/172/172 171/165/165 173/167/167
f 170/164/164 198/190/190 171/165/165
f 168/162/162 200/200/200 169/163/163
f 175/168/168 201/201/201 176/169/169
f 178/171/171 168/162/162 170/164/164
f 185/176/176 201/201/201 175/168/168
f 168/162/162 178/171/171 166/178/178
f 187/179/179 197/188/188 188/180/180
f 169/163/163 200/200/200 193/182/182
f 194/184/184 184/196/196 195/185/185
f 191/187/187 162/193/193 188/180/180
f 197/188/188 180/198/198 181/189/189
f 197/188/188 194/184/184 196/186/186
f 164/192/192 191/187/187 196/186/186
f 189/181/181 188/180/180 162/193/193
f 194/184/184 181/189/189 174/195/195
f 199/191/191 189/181/181 163/194/194
f 190/197/197 187/179/179 182/173/173
f 180/198/198 197/188/188 187/179/179
f 186/177/177 166/178/178 165/199/199
f 186/177/177 175/168/168 200/200/200
f 200/200/200 175/168/168 177/170/170
f 182/173/173 187/179/179 189/181/181
f 198/190/190 169/163/163 192/183/183
f 179/172/172 170/164/164 171/165/165
f 170/164/164 169/163/163 198/190/190
o SKEL_ROOT.001
v -0.168869 0.399468 0.063125
v -0.181584 0.370224 0.040159
v -0.170757 0.359436 0.050016
v -0.124524 0.491519 0.039212
v -0.104826 0.455126 0.071198
v -0.093519 0.508496 0.040678
v 0.172848 0.361087 0.047932
v 0.166505 0.396251 0.064770
v 0.164440 0.353638 0.059865
v 0.150042 0.474914 0.034431
v 0.127341 0.448827 0.064278
v 0.156541 0.443608 0.056165
v 0.160584 0.379170 0.074461
v 0.085912 0.502406 0.045782
v 0.175245 0.402816 0.055852
v 0.106720 0.409185 0.094113
v 0.137506 0.405806 0.082123
v -0.155298 0.481193 0.028003
v -0.131112 0.452916 0.060003
v -0.179611 0.476240 0.020056
v -0.111990 0.413212 0.090586
v -0.144101 0.410393 0.077002
v -0.180363 0.449380 0.041947
v 0.119245 0.484461 0.045741
v 0.100142 0.452281 0.074023
v -0.158486 0.449463 0.048217
v 0.172139 0.471979 0.026230
v 0.174595 0.442311 0.049098
v -0.181468 0.404623 0.051220
v 0.052736 0.390992 0.115307
v -0.116127 0.385715 0.101122
v -0.143681 0.381537 0.087603
v 0.080471 0.389710 0.110525
v 0.111412 0.387376 0.103025
v 0.074399 0.411508 0.101548
v -0.086391 0.388439 0.109345
v -0.079803 0.414374 0.099177
v 0.137506 0.384017 0.090533
v -0.061330 0.389394 0.114278
v -0.040487 0.415067 0.105088
v -0.165629 0.375426 0.068200
v -0.065689 0.498982 0.058124
v 0.058694 0.492820 0.060460
v -0.038952 0.488128 0.069459
v -0.041024 0.454397 0.086002
v 0.033733 0.490767 0.068951
v -0.057012 0.521743 0.047392
v -0.047845 0.511456 0.059662
v -0.072629 0.540522 0.021910
v 0.067596 0.537769 0.027518
v 0.058663 0.528171 0.039730
v -0.011937 0.548640 0.068313
v 0.048619 0.524094 0.052523
v 0.023215 0.551812 0.061288
v 0.038805 0.514632 0.062682
v 0.029177 0.506027 0.071638
v 0.005302 0.547603 0.069576
v 0.027184 0.500143 0.072883
v -0.052730 0.576452 0.029880
v 0.045486 0.564357 0.041064
v 0.051877 0.576528 0.030510
v 0.042548 0.569498 0.041185
v 0.049519 0.519480 0.050968
v 0.038451 0.509406 0.062972
v -0.036504 0.562861 0.050446
v -0.044426 0.569392 0.041374
v -0.020831 0.546018 0.067674
v -0.038890 0.501253 0.071460
v -0.056161 0.572972 0.030029
v 0.067199 0.542269 0.029103
v 0.058537 0.533026 0.041545
v -0.030150 0.551425 0.060459
v -0.055519 0.528005 0.048819
v -0.047750 0.518644 0.059803
v -0.024963 0.555473 0.059393
v -0.064283 0.530630 0.035661
v 0.017997 0.554783 0.061187
v 0.031545 0.563118 0.050815
v -0.048158 0.565644 0.041529
v -0.071273 0.546485 0.024465
v -0.062884 0.536774 0.037626
v -0.040100 0.558837 0.051050
v 0.012543 0.545814 0.069612
v -0.039931 0.510212 0.069277
v 0.034541 0.558061 0.051160
v 0.054886 0.571431 0.030028
v -0.071424 0.454901 0.080631
v 0.035974 0.411749 0.106897
v 0.038133 0.453976 0.086653
v 0.066761 0.454100 0.082010
v 0.314389 0.353149 -0.064150
v 0.294022 0.372091 -0.037736
v 0.309605 0.350170 -0.037733
v -0.215470 0.472068 0.007813
v -0.231863 0.475058 -0.018965
v -0.238072 0.444487 -0.003679
v -0.259927 0.375022 0.003251
v -0.284064 0.362157 -0.015834
v -0.274598 0.350714 0.001572
v 0.243524 0.392743 0.005079
v 0.266656 0.431253 -0.061236
v 0.247344 0.456109 -0.029559
v 0.261883 0.426092 -0.030145
v 0.234676 0.441121 0.000439
v 0.254427 0.411468 -0.008330
v -0.245334 0.393795 -0.126326
v -0.219451 0.411016 -0.128607
v -0.247407 0.399319 0.006277
v 0.256259 0.409834 -0.107913
v 0.279946 0.395629 -0.084310
v 0.275256 0.385991 -0.105417
v 0.195083 0.425688 -0.134309
v 0.233748 0.435740 -0.112120
v 0.222166 0.407865 -0.127100
v 0.314124 0.348220 -0.080811
v 0.327429 0.331876 -0.062325
v 0.325793 0.329188 -0.082821
v -0.310272 0.347107 -0.037144
v -0.196335 0.421100 -0.135484
v -0.230687 0.439809 -0.111713
v -0.205437 0.456167 -0.118330
v 0.284664 0.362750 -0.016347
v 0.258438 0.369985 -0.000366
v 0.271459 0.350284 -0.002351
v -0.293689 0.372656 -0.036620
v -0.316362 0.351189 -0.060314
v 0.324408 0.328098 -0.036901
v 0.299311 0.326482 -0.117467
v 0.318360 0.321999 -0.101220
v 0.307300 0.311385 -0.115389
v -0.247573 0.457223 -0.032241
v -0.266351 0.435242 -0.059942
v -0.262824 0.427048 -0.034567
v -0.302058 0.328426 -0.121746
v -0.285914 0.351243 -0.125678
v 0.314360 0.317192 -0.019172
v 0.285672 0.326797 -0.002835
v 0.301994 0.305042 -0.005282
v -0.243987 0.453619 -0.087256
v -0.251342 0.462378 -0.060793
v 0.224721 0.416414 0.015521
v -0.256500 0.415196 -0.012117
v 0.308888 0.337501 -0.102366
v 0.282458 0.400884 -0.062273
v 0.298069 0.377320 -0.062752
v 0.245173 0.388764 -0.122110
v 0.264795 0.369630 -0.119640
v 0.298459 0.371672 -0.083420
v -0.295040 0.365417 -0.107753
v -0.317604 0.347406 -0.082178
v -0.300699 0.373689 -0.084488
v -0.275638 0.390446 -0.108005
v -0.280938 0.399635 -0.085752
v -0.312580 0.340062 -0.104437
v 0.292576 0.362124 -0.105111
v -0.265833 0.373016 -0.126671
v -0.224718 0.500462 -0.034275
v -0.237340 0.481713 -0.060756
v -0.234316 0.481332 -0.033360
v -0.289654 0.327507 0.000365
v -0.282370 0.404187 -0.061809
v -0.277397 0.398416 -0.035914
v 0.202840 0.441829 0.026426
v 0.263532 0.424608 -0.084848
v 0.269752 0.382876 -0.015006
v -0.254858 0.415164 -0.108523
v -0.261566 0.427941 -0.086357
v -0.269324 0.389021 -0.016914
v 0.299317 0.338057 -0.016584
v 0.246928 0.451521 -0.084713
v 0.227911 0.476799 -0.012529
v 0.210244 0.472689 0.010074
v -0.208041 0.445990 0.021639
v -0.228765 0.421757 0.012710
v 0.215034 0.497818 -0.083695
v 0.234262 0.486650 -0.059665
v 0.228718 0.476368 -0.084137
v 0.283093 0.349239 -0.121753
v -0.214293 0.480781 -0.103062
v -0.227777 0.476331 -0.085936
v -0.219588 0.494255 -0.084227
v -0.298267 0.337837 -0.015730
v 0.277204 0.397583 -0.033202
v -0.300569 0.377330 -0.061714
v 0.220010 0.505321 -0.033806
v 0.232223 0.484241 -0.032764
v 0.252543 0.461612 -0.059579
v 0.209841 0.482035 -0.104458
v 0.202335 0.456515 -0.118990
v 0.225569 0.469386 -0.099612
v 0.217569 0.493992 -0.008128
v -0.225109 0.470692 -0.098664
v -0.223107 0.489639 -0.010698
v -0.222429 0.500384 -0.059542
v 0.218157 0.504487 -0.058972
vn -0.6795 0.1453 0.7192
vn -0.7868 -0.3354 0.5182
vn -0.8829 -0.2597 0.3911
vn -0.3871 0.5378 0.7489
vn -0.3010 0.4791 0.8246
vn -0.3000 0.6549 0.6936
vn 0.8505 -0.2809 0.4446
vn 0.6913 0.1237 0.7119
vn 0.8905 -0.2301 0.3925
vn 0.3726 0.5476 0.7492
vn 0.3560 0.4742 0.8053
vn 0.4194 0.3915 0.8190
vn 0.6623 0.0095 0.7492
vn 0.3048 0.4310 0.8493
vn 0.4470 0.3554 0.8209
vn -0.3759 0.5365 0.7556
vn -0.3963 0.4678 0.7900
vn -0.3260 0.4220 0.8459
vn -0.4585 0.3769 0.8048
vn -0.3997 0.3786 0.8348
vn -0.3105 0.5652 0.7643
vn 0.3626 0.5179 0.7748
vn 0.2716 0.4861 0.8306
vn -0.4250 0.4021 0.8110
vn 0.4676 0.3826 0.7969
vn 0.3035 0.5516 0.7770
vn -0.6038 0.0697 0.7941
vn -0.3658 0.4861 0.7937
vn -0.5514 0.4257 0.7174
vn 0.2055 0.5515 0.8085
vn 0.3311 0.5669 0.7543
vn 0.1810 0.4347 0.8822
vn -0.2338 0.5163 0.8239
vn -0.2010 0.4321 0.8791
vn 0.7497 0.1711 0.6393
vn 0.4968 0.5321 0.6856
vn -0.0882 0.4041 0.9105
vn -0.8521 0.0577 0.5201
vn 0.2555 0.5429 0.8000
vn 0.2541 0.5934 0.7637
vn 0.6018 0.2255 0.7661
vn 0.5220 0.2880 0.8028
vn 0.5558 0.2267 0.7998
vn 0.3875 0.1725 0.9056
vn -0.1261 0.2095 0.9696
vn -0.1563 -0.1483 0.9765
vn 0.6271 0.2718 0.7299
vn 0.4040 0.6132 0.6788
vn 0.2360 0.6851 0.6892
vn 0.8222 -0.3719 0.4308
vn 0.7906 -0.3807 0.4795
vn -0.4003 0.2902 0.8692
vn -0.1800 0.0323 0.9831
vn 0.1420 0.3180 0.9374
vn 0.7041 0.2353 0.6700
vn 0.6530 0.2207 0.7245
vn 0.8402 -0.4091 0.3559
vn -0.5367 0.3108 0.7845
vn -0.6619 0.2463 0.7079
vn -0.6075 0.2628 0.7496
vn 0.1763 0.6934 0.6987
vn 0.0272 0.7579 0.6518
vn -0.6681 0.2948 0.6832
vn -0.7581 0.2315 0.6096
vn -0.7178 0.2222 0.6599
vn -0.8935 -0.2423 0.3782
vn -0.6117 0.2861 0.7375
vn -0.1344 0.7807 0.6103
vn 0.4186 0.2661 0.8683
vn -0.5546 0.2495 0.7938
vn -0.9028 -0.3272 0.2790
vn -0.8784 -0.2448 0.4106
vn -0.8614 -0.2786 0.4247
vn -0.2706 0.7468 0.6075
vn -0.7219 0.3255 0.6106
vn -0.0622 0.7421 0.6675
vn -0.0939 0.7384 0.6678
vn 0.8660 -0.3748 0.3311
vn 0.5671 0.2735 0.7769
vn 0.6864 0.2785 0.6718
vn -0.1854 0.4484 0.8744
vn -0.1174 0.4809 0.8689
vn -0.2326 0.5476 0.8038
vn -0.0633 0.3987 0.9149
vn -0.1026 0.4382 0.8930
vn 0.1825 0.4590 0.8695
vn 0.1989 0.4674 0.8614
vn 0.1389 0.4340 0.8901
vn 0.0611 0.4101 0.9100
vn 0.0926 0.3990 0.9122
vn 0.8331 0.5491 0.0662
vn 0.7837 0.5078 0.3576
vn 0.7650 0.5125 0.3900
vn -0.6270 0.3810 0.6795
vn -0.8089 0.3728 0.4547
vn -0.7441 0.3270 0.5826
vn -0.5121 0.2312 0.8272
vn -0.6993 0.4103 0.5854
vn -0.4801 0.2630 0.8368
vn 0.8913 0.4526 0.0269
vn 0.8424 0.4117 0.3476
vn 0.8291 0.3991 0.3915
vn 0.7099 0.3004 0.6370
vn 0.7161 0.2653 0.6457
vn 0.6068 0.3975 -0.6884
vn 0.7856 0.5210 -0.3338
vn 0.6295 0.4554 -0.6296
vn 0.3426 0.2727 -0.8990
vn 0.5482 0.3765 -0.7468
vn 0.3851 0.2353 -0.8924
vn 0.8051 0.5023 -0.3154
vn 0.8439 0.5338 0.0538
vn 0.8038 0.5074 -0.3104
vn -0.3242 0.2825 -0.9028
vn -0.5360 0.3960 -0.7456
vn -0.3444 0.3871 -0.8553
vn 0.6390 0.4020 0.6559
vn 0.5100 0.1986 0.8369
vn 0.4526 0.2439 0.8577
vn -0.7690 0.4764 0.4262
vn -0.8549 0.4997 0.1392
vn -0.7798 0.4508 0.4344
vn 0.7762 0.4716 0.4185
vn 0.5354 0.2175 -0.8161
vn 0.7030 0.3797 -0.6013
vn 0.5377 0.1878 -0.8220
vn -0.8427 0.4516 0.2931
vn -0.8775 0.4782 -0.0376
vn -0.8431 0.4069 0.3516
vn 0.5991 0.3884 0.7001
vn 0.4437 0.2323 0.8655
vn 0.3789 0.2692 0.8854
vn -0.7513 0.4785 -0.4545
vn -0.8306 0.5354 -0.1530
vn 0.5879 0.1164 0.8005
vn 0.5646 0.1207 0.8165
vn -0.7617 0.3258 0.5600
vn 0.7184 0.4159 -0.5576
vn 0.8640 0.5032 0.0164
vn 0.8252 0.5647 0.0125
vn 0.4158 0.2948 -0.8604
vn 0.4257 0.3722 -0.8248
vn 0.7821 0.5449 -0.3022
vn -0.6994 0.4834 -0.5264
vn -0.8476 0.4909 -0.2017
vn -0.8022 0.5475 -0.2381
vn -0.6341 0.5130 -0.5786
vn -0.7755 0.5592 -0.2929
vn -0.4613 0.2821 -0.8412
vn -0.7598 0.4080 -0.5062
vn 0.6770 0.4607 -0.5740
vn -0.7175 0.6758 0.1688
vn -0.8325 0.5469 -0.0880
vn -0.8694 0.4527 0.1980
vn -0.8615 0.5063 0.0374
vn -0.8122 0.4443 0.3781
vn 0.6113 0.1966 0.7666
vn 0.7800 0.4708 -0.4122
vn 0.6878 0.3176 0.6527
vn -0.5724 0.4769 -0.6670
vn -0.7595 0.5106 -0.4031
vn -0.7452 0.3606 0.5609
vn 0.6183 0.3731 0.6917
vn 0.7649 0.4675 -0.4432
vn 0.7765 0.3710 0.5093
vn 0.6075 0.3673 0.7043
vn -0.5918 0.1608 0.7899
vn -0.6121 0.2091 0.7626
vn -0.5846 0.1987 0.7866
vn 0.5872 0.6716 -0.4518
vn 0.7939 0.5885 -0.1532
vn 0.7342 0.5356 -0.4173
vn -0.4207 0.5267 -0.7387
vn -0.7582 0.5060 -0.4112
vn -0.6201 0.6509 -0.4379
vn 0.8308 0.4180 0.3675
vn 0.4864 0.3303 -0.8089
vn -0.3474 0.2747 -0.8966
vn -0.3853 0.3402 -0.8578
vn -0.6956 0.4089 0.5907
vn -0.4879 0.2577 0.8340
vn -0.3435 0.3363 -0.8769
vn -0.8299 0.5472 0.1086
vn 0.6649 0.7266 0.1730
vn 0.8337 0.5019 0.2301
vn 0.8540 0.5143 -0.0782
vn 0.4225 0.5484 -0.7216
vn 0.3490 0.3857 -0.8541
vn 0.6090 0.4403 -0.6597
vn 0.5935 0.5813 0.5566
vn -0.6259 0.4216 -0.6561
vn -0.6400 0.5720 0.5130
vn -0.6472 0.7408 -0.1797
vn -0.5268 0.2054 -0.8248
vn 0.6176 0.7652 -0.1816
vt 0.847074 0.702684
vt 0.822325 0.677432
vt 0.834531 0.666361
vt 0.881912 0.790515
vt 0.905720 0.751617
vt 0.909294 0.805981
vt 0.205712 0.675556
vt 0.188568 0.706376
vt 0.193132 0.668004
vt 0.178313 0.784483
vt 0.152347 0.753735
vt 0.179657 0.749980
vt 0.198760 0.713704
vt 0.128512 0.713606
vt 0.157716 0.712495
vt 0.852055 0.784013
vt 0.880275 0.751465
vt 0.904062 0.711125
vt 0.873351 0.710141
vt 0.833444 0.750647
vt 0.828985 0.781268
vt 0.148374 0.789540
vt 0.126472 0.754950
vt 0.853582 0.750213
vt 0.196845 0.750216
vt 0.199305 0.783812
vt 0.832499 0.709246
vt 0.902930 0.685575
vt 0.876436 0.683936
vt 0.103410 0.694075
vt 0.130662 0.693194
vt 0.099401 0.714749
vt 0.929508 0.687145
vt 0.933266 0.711653
vt 0.180097 0.690688
vt 0.155350 0.692304
vt 0.951805 0.687692
vt 0.850855 0.680238
vt 0.091339 0.794977
vt 0.118947 0.806116
vt 0.943024 0.302518
vt 0.980146 0.308369
vt 0.942360 0.317390
vt 0.941582 0.332200
vt 0.989072 0.325175
vt 0.938030 0.336923
vt 0.976133 0.282002
vt 0.980250 0.268926
vt 0.981776 0.281459
vt 0.938288 0.303058
vt 0.938083 0.319932
vt 0.921995 0.019347
vt 0.877719 0.002887
vt 0.928393 0.015573
vt 0.944284 0.275376
vt 0.943532 0.288985
vt 0.938735 0.289541
vt 0.919199 0.033249
vt 0.882814 0.039489
vt 0.882611 0.024242
vt 0.983661 0.294261
vt 0.986192 0.309782
vt 0.915342 0.060380
vt 0.883655 0.069299
vt 0.883235 0.054263
vt 0.877280 0.052880
vt 0.917090 0.047432
vt 0.920574 0.060888
vt 0.982889 0.321725
vt 0.882254 0.009031
vt 0.877685 0.068459
vt 0.876768 0.037735
vt 0.877156 0.020386
vt 0.918752 0.073856
vt 0.913765 0.073332
vt 0.925069 0.031569
vt 0.922446 0.047875
vt 0.939317 0.275809
vt 0.977946 0.294907
vt 0.974819 0.269329
vt 0.936573 0.750871
vt 0.962264 0.783923
vt 0.936940 0.794223
vt 0.968262 0.712933
vt 0.963915 0.751023
vt 0.069568 0.791886
vt 0.095985 0.755778
vt 0.070324 0.755857
vt 0.078617 0.695323
vt 0.065237 0.715023
vt 0.427493 0.761050
vt 0.399682 0.784972
vt 0.401591 0.759966
vt 0.712945 0.445794
vt 0.685926 0.442176
vt 0.701950 0.415159
vt 0.716139 0.350631
vt 0.692505 0.330537
vt 0.713516 0.325706
vt 0.422586 0.841697
vt 0.393714 0.869131
vt 0.393180 0.839313
vt 0.361775 0.863660
vt 0.368836 0.832488
vt 0.469730 0.832268
vt 0.445085 0.810015
vt 0.467337 0.805121
vt 0.513522 0.874774
vt 0.474862 0.862823
vt 0.501676 0.847913
vt 0.445807 0.757515
vt 0.427599 0.738674
vt 0.446594 0.737644
vt 0.553865 0.421614
vt 0.593340 0.416345
vt 0.582145 0.441941
vt 0.375237 0.781287
vt 0.350845 0.798420
vt 0.353866 0.776321
vt 0.668680 0.335370
vt 0.644378 0.309817
vt 0.667445 0.307736
vt 0.402433 0.735953
vt 0.485786 0.749918
vt 0.466691 0.737122
vt 0.486367 0.735027
vt 0.673043 0.420970
vt 0.647533 0.395106
vt 0.671532 0.391935
vt 0.380661 0.732181
vt 0.356105 0.752005
vt 0.359679 0.727957
vt 0.621650 0.421030
vt 0.646868 0.421454
vt 0.338378 0.848619
vt 0.346836 0.821941
vt 0.695285 0.384458
vt 0.466211 0.752999
vt 0.424038 0.812499
vt 0.425621 0.787664
vt 0.493148 0.822566
vt 0.489073 0.798320
vt 0.444945 0.783435
vt 0.602461 0.330991
vt 0.623637 0.306632
vt 0.622868 0.334683
vt 0.601416 0.358498
vt 0.623225 0.363391
vt 0.582496 0.325696
vt 0.603590 0.304357
vt 0.466266 0.779445
vt 0.670290 0.463392
vt 0.647039 0.443546
vt 0.671804 0.446387
vt 0.645306 0.365350
vt 0.670525 0.362486
vt 0.329131 0.878492
vt 0.444415 0.839253
vt 0.373521 0.804551
vt 0.599342 0.386787
vt 0.622790 0.393545
vt 0.692903 0.357238
vt 0.376725 0.755408
vt 0.443862 0.867045
vt 0.377689 0.893855
vt 0.352710 0.898297
vt 0.717311 0.375288
vt 0.732220 0.428185
vt 0.724664 0.401074
vt 0.443713 0.915983
vt 0.421294 0.898400
vt 0.443448 0.895355
vt 0.605344 0.455153
vt 0.622396 0.445251
vt 0.625372 0.461857
vt 0.395412 0.810883
vt 0.487181 0.774362
vt 0.567849 0.401379
vt 0.580095 0.350917
vt 0.692057 0.305582
vt 0.711244 0.300688
vt 0.576494 0.376465
vt 0.644367 0.337471
vt 0.398416 0.918548
vt 0.396915 0.897845
vt 0.421147 0.871056
vt 0.466155 0.907753
vt 0.488891 0.893179
vt 0.458999 0.891490
vt 0.374415 0.911255
vt 0.609887 0.441576
vt 0.692134 0.455907
vt 0.647850 0.464796
vt 0.584190 0.301257
vt 0.420917 0.919181
s 1
f 202/202/202 203/203/203 204/204/204
f 205/205/205 206/206/206 207/207/207
f 208/208/208 209/209/209 210/210/210
f 211/211/211 212/212/212 213/213/213
f 216/214/214 213/213/213 209/209/209
f 212/212/212 217/215/215 218/216/216
f 219/217/217 220/218/218 205/205/205
f 222/219/219 220/218/218 223/220/220
f 224/221/221 219/217/217 221/222/222
f 225/223/223 226/224/224 212/212/212
f 223/220/220 227/225/225 202/202/202
f 213/213/213 218/216/216 209/209/209
f 211/211/211 229/226/226 228/227/227
f 230/228/228 227/225/225 224/221/221
f 232/229/229 223/220/220 233/230/230
f 217/215/215 234/231/231 235/232/232
f 226/224/224 236/233/233 217/215/215
f 222/219/219 237/234/234 238/235/235
f 218/216/216 214/236/236 209/209/209
f 218/216/216 235/232/232 239/237/237
f 240/238/238 238/235/235 237/234/234
f 233/230/230 202/202/202 242/239/239
f 244/240/240 226/224/224 215/241/241
f 254/242/242 255/243/243 256/244/244
f 257/245/245 258/246/246 259/247/247
f 261/248/248 262/249/249 263/250/250
f 264/251/251 256/244/244 265/252/252
f 268/253/253 269/254/254 253/255/255
f 271/256/256 261/248/248 272/257/257
f 254/242/242 252/258/258 272/257/257
f 273/259/259 274/260/260 275/261/261
f 255/243/243 279/262/262 278/263/263
f 280/264/264 281/265/265 282/266/266
f 277/267/267 274/260/260 282/266/266
f 283/268/268 267/269/269 280/264/264
f 257/245/245 284/270/270 258/246/246
f 283/268/268 282/266/266 274/260/260
f 268/253/253 285/271/271 269/254/254
f 250/272/272 282/266/266 281/265/265
f 275/261/261 248/273/273 249/274/274
f 280/264/264 260/275/275 270/276/276
f 285/271/271 249/274/274 269/254/254
f 276/277/277 268/253/253 253/255/255
f 266/278/278 273/259/259 276/277/277
f 272/257/257 251/279/279 271/256/256
f 272/257/257 286/280/280 254/242/242
f 286/280/280 263/250/250 279/262/262
f 268/253/253 275/261/261 285/271/271
f 284/270/270 278/263/263 258/246/246
f 265/252/252 257/245/245 259/247/247
f 256/244/244 284/270/270 257/245/245
f 254/242/242 286/280/280 255/243/243
f 261/248/248 287/281/281 262/249/249
f 264/251/251 254/242/242 256/244/244
f 271/256/256 287/281/281 261/248/248
f 254/242/242 264/251/251 252/258/258
f 273/259/259 283/268/268 274/260/260
f 255/243/243 286/280/280 279/262/262
f 280/264/264 270/276/276 281/265/265
f 277/267/267 248/273/273 274/260/260
f 283/268/268 266/278/278 267/269/269
f 283/268/268 280/264/264 282/266/266
f 250/272/272 277/267/267 282/266/266
f 275/261/261 274/260/260 248/273/273
f 280/264/264 267/269/269 260/275/275
f 285/271/271 275/261/261 249/274/274
f 276/277/277 273/259/259 268/253/253
f 266/278/278 283/268/268 273/259/259
f 272/257/257 252/258/258 251/279/279
f 272/257/257 261/248/248 286/280/280
f 286/280/280 261/248/248 263/250/250
f 268/253/253 273/259/259 275/261/261
f 284/270/270 255/243/243 278/263/263
f 265/252/252 256/244/244 257/245/245
f 256/244/244 255/243/243 284/270/270
f 288/282/282 245/283/283 243/284/284
f 288/282/282 241/285/285 246/286/286
f 206/206/206 238/235/235 288/282/282
f 206/206/206 243/284/284 207/207/207
f 247/287/287 291/288/288 244/240/240
f 290/289/289 236/233/233 291/288/288
f 231/290/290 236/233/233 289/291/291
f 202/202/202 230/228/228 203/203/203
f 205/205/205 220/218/218 206/206/206
f 208/208/208 216/214/214 209/209/209
f 211/211/211 225/223/223 212/212/212
f 210/210/210 209/209/209 214/236/236
f 216/214/214 229/226/226 213/213/213
f 212/212/212 226/224/224 217/215/215
f 219/217/217 227/225/225 220/218/218
f 222/219/219 206/206/206 220/218/218
f 224/221/221 227/225/225 219/217/217
f 225/223/223 215/241/241 226/224/224
f 223/220/220 220/218/218 227/225/225
f 213/213/213 212/212/212 218/216/216
f 211/211/211 213/213/213 229/226/226
f 230/228/228 202/202/202 227/225/225
f 232/229/229 222/219/219 223/220/220
f 217/215/215 236/233/233 234/231/231
f 226/224/224 291/288/288 236/233/233
f 222/219/219 232/229/229 237/234/234
f 218/216/216 239/237/237 214/236/236
f 218/216/216 217/215/215 235/232/232
f 240/238/238 241/285/285 238/235/235
f 233/230/230 223/220/220 202/202/202
f 242/239/239 202/202/202 204/204/204
f 244/240/240 291/288/288 226/224/224
f 288/282/282 246/286/286 245/283/283
f 288/282/282 238/235/235 241/285/285
f 206/206/206 222/219/219 238/235/235
f 206/206/206 288/282/282 243/284/284
f 247/287/287 290/289/289 291/288/288
f 290/289/289 289/291/291 236/233/233
f 231/290/290 234/231/231 236/233/233
f 292/292/292 293/293/293 294/294/294
f 295/295/295 296/296/296 297/297/297
f 298/298/298 299/299/299 300/300/300
f 302/301/301 303/302/302 304/303/303
f 304/303/303 305/304/304 306/305/305
f 310/306/306 311/307/307 312/308/308
f 313/309/309 314/310/310 315/311/311
f 316/312/312 317/313/313 318/314/314
f 320/315/315 321/316/316 322/317/317
f 323/318/318 324/319/319 325/320/320
f 326/321/321 327/322/322 319/323/323
f 317/313/313 294/294/294 328/324/324
f 329/325/325 330/326/326 331/327/327
f 332/328/328 333/329/329 334/330/330
f 337/331/331 338/332/332 339/333/333
f 340/334/334 333/329/329 341/335/335
f 306/305/305 342/336/336 301/337/337
f 297/297/297 334/330/330 343/338/338
f 344/339/339 318/314/314 330/326/326
f 345/340/340 293/293/293 346/341/341
f 347/342/342 312/308/308 348/343/343
f 349/344/344 292/292/292 316/312/312
f 350/345/345 351/346/346 352/347/347
f 353/348/348 352/347/347 354/349/349
f 315/311/311 310/306/306 347/342/342
f 336/350/350 355/351/351 350/345/345
f 356/352/352 316/312/312 344/339/339
f 358/353/353 359/354/354 360/355/355
f 334/330/330 362/356/356 363/357/357
f 305/304/304 364/358/358 342/336/336
f 312/308/308 349/344/344 356/352/352
f 365/359/359 345/340/340 311/307/307
f 366/360/360 301/337/337 324/319/319
f 367/361/361 354/349/349 368/362/362
f 314/310/310 365/359/359 310/306/306
f 369/363/363 326/321/321 299/299/299
f 370/364/364 325/320/320 338/332/332
f 371/365/365 302/301/301 365/359/359
f 372/366/366 373/367/367 305/304/304
f 309/368/368 369/363/363 298/298/298
f 374/369/369 297/297/297 375/370/370
f 376/371/371 377/372/372 378/373/373
f 380/374/374 381/375/375 382/376/376
f 384/377/377 302/301/301 304/303/303
f 321/316/316 368/362/362 340/334/334
f 348/343/343 356/352/352 379/378/378
f 375/370/370 343/338/338 309/368/368
f 308/379/379 367/361/361 321/316/316
f 311/307/307 346/341/341 349/344/344
f 328/324/324 370/364/364 337/331/331
f 357/380/380 350/345/345 353/348/348
f 381/375/375 341/335/335 359/354/354
f 300/300/300 383/381/381 361/382/382
f 307/383/383 353/348/348 367/361/361
f 343/338/338 363/357/357 369/363/363
f 384/377/377 306/305/305 366/360/360
f 379/378/378 344/339/339 329/325/325
f 363/357/357 385/384/384 326/321/321
f 294/294/294 323/318/318 370/364/364
f 299/299/299 319/323/323 383/381/381
f 368/362/362 362/356/356 333/329/329
f 354/349/349 385/384/384 362/356/356
f 352/347/347 327/322/322 385/384/384
f 377/372/372 386/385/385 387/386/386
f 293/293/293 366/360/360 323/318/318
f 388/387/387 387/386/386 303/302/302
f 378/373/373 388/387/387 371/365/365
f 378/373/373 389/388/388 376/371/371
f 390/389/389 391/390/390 314/310/310
f 391/390/390 371/365/365 314/310/310
f 392/391/391 387/386/386 386/385/385
f 372/366/366 303/302/302 387/386/386
f 332/328/328 359/354/354 341/335/335
f 393/392/392 322/317/317 321/316/316
f 360/355/355 394/393/393 358/353/353
f 382/376/376 359/354/354 395/394/394
f 332/328/328 296/296/296 360/355/355
f 393/392/392 340/334/334 381/375/375
f 292/292/292 346/341/341 293/293/293
f 295/295/295 394/393/393 296/296/296
f 298/298/298 369/363/363 299/299/299
f 302/301/301 388/387/387 303/302/302
f 304/303/303 303/302/302 305/304/304
f 310/306/306 365/359/359 311/307/307
f 313/309/309 390/389/389 314/310/310
f 316/312/312 292/292/292 317/313/313
f 320/315/315 308/379/379 321/316/316
f 323/318/318 366/360/360 324/319/319
f 326/321/321 385/384/384 327/322/322
f 317/313/313 292/292/292 294/294/294
f 329/325/325 344/339/339 330/326/326
f 332/328/328 341/335/335 333/329/329
f 337/331/331 370/364/364 338/332/332
f 340/334/334 368/362/362 333/329/329
f 306/305/305 305/304/304 342/336/336
f 297/297/297 332/328/328 334/330/330
f 344/339/339 316/312/312 318/314/314
f 345/340/340 384/377/377 293/293/293
f 347/342/342 310/306/306 312/308/308
f 349/344/344 346/341/341 292/292/292
f 350/345/345 355/351/351 351/346/346
f 353/348/348 350/345/345 352/347/347
f 315/311/311 314/310/310 310/306/306
f 336/350/350 335/395/395 355/351/351
f 356/352/352 349/344/344 316/312/312
f 358/353/353 395/394/394 359/354/354
f 334/330/330 333/329/329 362/356/356
f 305/304/304 373/367/367 364/358/358
f 312/308/308 311/307/307 349/344/344
f 365/359/359 302/301/301 345/340/340
f 366/360/360 306/305/305 301/337/337
f 367/361/361 353/348/348 354/349/349
f 314/310/310 371/365/365 365/359/359
f 369/363/363 363/357/357 326/321/321
f 370/364/364 323/318/318 325/320/320
f 371/365/365 388/387/387 302/301/301
f 372/366/366 392/391/391 373/367/367
f 309/368/368 343/338/338 369/363/363
f 374/369/369 295/295/295 297/297/297
f 376/371/371 396/396/396 377/372/372
f 380/374/374 393/392/392 381/375/375
f 384/377/377 345/340/340 302/301/301
f 321/316/316 367/361/361 368/362/362
f 348/343/343 312/308/308 356/352/352
f 375/370/370 297/297/297 343/338/338
f 308/379/379 307/383/383 367/361/361
f 311/307/307 345/340/340 346/341/341
f 328/324/324 294/294/294 370/364/364
f 357/380/380 336/350/350 350/345/345
f 381/375/375 340/334/334 341/335/335
f 300/300/300 299/299/299 383/381/381
f 307/383/383 357/380/380 353/348/348
f 343/338/338 334/330/330 363/357/357
f 384/377/377 304/303/303 306/305/305
f 379/378/378 356/352/352 344/339/339
f 363/357/357 362/356/356 385/384/384
f 294/294/294 293/293/293 323/318/318
f 299/299/299 326/321/321 319/323/323
f 368/362/362 354/349/349 362/356/356
f 354/349/349 352/347/347 385/384/384
f 352/347/347 351/346/346 327/322/322
f 377/372/372 396/396/396 386/385/385
f 293/293/293 384/377/377 366/360/360
f 388/387/387 377/372/372 387/386/386
f 378/373/373 377/372/372 388/387/387
f 378/373/373 391/390/390 389/388/388
f 390/389/389 389/388/388 391/390/390
f 391/390/390 378/373/373 371/365/365
f 392/391/391 372/366/366 387/386/386
f 372/366/366 305/304/304 303/302/302
f 332/328/328 360/355/355 359/354/354
f 393/392/392 380/374/374 322/317/317
f 360/355/355 296/296/296 394/393/393
f 382/376/376 381/375/375 359/354/354
f 332/328/328 297/297/297 296/296/296
f 393/392/392 321/316/316 340/334/334
o SKEL_ROOT.002
v -0.299203 0.369003 -0.107525
v -0.322335 0.350480 -0.085236
v -0.298671 0.374681 -0.085659
v 0.288694 0.353200 -0.131623
v 0.316695 0.342703 -0.109535
v 0.303261 0.328283 -0.124448
v -0.317827 0.348873 -0.059790
v -0.301781 0.379742 -0.059202
v -0.279452 0.353051 0.010537
v -0.296983 0.335627 -0.015568
v -0.288064 0.325397 0.001188
v 0.214148 0.504876 -0.087323
v 0.216094 0.508743 -0.051173
v 0.241099 0.473835 -0.085569
v 0.262646 0.419425 -0.001278
v 0.232012 0.421008 0.011166
v 0.246283 0.400344 0.012894
v 0.208816 0.444841 -0.129924
v 0.242241 0.458455 -0.116408
v 0.228815 0.422347 -0.122861
v -0.264844 0.375762 0.007172
v -0.286099 0.366860 -0.011195
v 0.239539 0.453813 0.000952
v 0.214824 0.438756 0.016115
v 0.266775 0.437776 -0.059085
v 0.242071 0.474651 -0.024876
v 0.270120 0.436872 -0.028919
v -0.310784 0.346685 -0.033728
v -0.246840 0.405650 -0.125775
v -0.234586 0.434922 -0.131207
v -0.313609 0.306243 -0.119514
v -0.329106 0.322103 -0.105266
v -0.251769 0.396125 0.009613
v 0.261246 0.428212 -0.112354
v 0.280383 0.401415 -0.086722
v 0.278227 0.395170 -0.114649
v -0.222096 0.498467 -0.021888
v -0.245901 0.480664 -0.052650
v -0.245536 0.474146 -0.025111
v -0.333760 0.330524 -0.033507
v 0.293709 0.365821 -0.003918
v 0.262599 0.382319 0.014413
v 0.274362 0.353233 0.011859
v -0.260354 0.422769 -0.114892
v -0.241887 0.462369 -0.111324
v 0.254249 0.402657 -0.132968
v 0.294455 0.365544 -0.112090
v 0.322360 0.354759 -0.085576
v -0.294261 0.378580 -0.033097
v 0.325742 0.314321 -0.103173
v 0.318464 0.303603 -0.125734
v 0.264075 0.433048 -0.086456
v 0.283793 0.407258 -0.059522
v 0.324849 0.363591 -0.062059
v 0.305286 0.381950 -0.031741
v 0.314963 0.352203 -0.035575
v -0.268415 0.433922 -0.032061
v -0.267051 0.436548 -0.060391
v -0.300268 0.328094 -0.123656
v -0.286372 0.351697 -0.125093
v 0.302712 0.340190 -0.011988
v 0.303801 0.305807 0.008888
v 0.315637 0.316869 -0.017286
v -0.243862 0.474740 -0.081990
v -0.278315 0.395668 -0.005424
v -0.240907 0.451902 -0.004737
v -0.259858 0.419024 -0.009730
v 0.302600 0.382737 -0.060275
v 0.288485 0.409300 -0.030637
v 0.271049 0.378629 -0.132942
v 0.298072 0.373737 -0.085346
v -0.289119 0.406339 -0.087770
v -0.288866 0.409073 -0.059603
v -0.276680 0.393957 -0.109560
v -0.221851 0.474714 0.001570
v -0.272643 0.377123 -0.135674
v -0.286327 0.407467 -0.030604
v 0.290122 0.332115 0.013177
v -0.270193 0.436185 -0.089851
v 0.321351 0.322988 -0.037582
v 0.217439 0.472443 0.003649
v -0.307042 0.306094 0.003087
v -0.216205 0.473078 -0.108637
v -0.218977 0.497553 -0.079734
v -0.216099 0.441139 0.019255
v -0.236795 0.422997 0.011917
v 0.210041 0.474920 -0.110883
v -0.336768 0.327667 -0.085025
v -0.334823 0.330503 -0.059913
v -0.310994 0.339957 -0.104779
v -0.221419 0.507934 -0.047874
v -0.212806 0.437387 -0.122609
v -0.318512 0.316920 -0.014038
v 0.336116 0.329859 -0.085596
v 0.278100 0.396793 -0.005265
v 0.334166 0.333769 -0.060577
v 0.240516 0.481928 -0.054790
v 0.218293 0.498753 -0.019237
vn -0.7540 0.4381 -0.4894
vn -0.7907 0.5860 -0.1773
vn -0.8399 0.5082 -0.1904
vn 0.4546 0.1906 -0.8700
vn 0.7316 0.3457 -0.5876
vn 0.5071 0.1593 -0.8470
vn -0.7720 0.6260 0.1104
vn -0.9084 0.4116 0.0734
vn -0.5730 0.2030 0.7940
vn -0.7206 0.3390 0.6049
vn -0.5361 0.2501 0.8063
vn 0.5085 0.6981 -0.5041
vn 0.6804 0.7325 -0.0217
vn 0.7498 0.6032 -0.2719
vn 0.6191 0.3678 0.6939
vn 0.3674 0.1967 0.9090
vn 0.3271 0.2550 0.9099
vn 0.2962 0.3680 -0.8814
vn 0.5582 0.4815 -0.6757
vn 0.3245 0.2491 -0.9125
vn -0.4294 0.1925 0.8824
vn -0.7916 0.2546 0.5555
vn 0.5898 0.4051 0.6985
vn 0.4378 0.2232 0.8709
vn 0.8514 0.5183 -0.0807
vn 0.7676 0.5789 0.2751
vn 0.8159 0.5361 0.2165
vn -0.7162 0.4990 0.4880
vn 0.6821 0.4520 -0.5749
vn 0.8419 0.4959 -0.2128
vn 0.7914 0.4475 -0.4165
vn -0.6043 0.6797 0.4158
vn -0.8149 0.5791 -0.0242
vn -0.7711 0.4952 0.4002
vn -0.7797 0.5139 0.3577
vn 0.7272 0.2647 0.6333
vn 0.3251 0.1254 0.9373
vn 0.1397 0.0200 0.9900
vn -0.1923 0.2729 -0.9426
vn -0.6806 0.3125 -0.6627
vn -0.4912 0.5762 -0.6532
vn 0.7144 0.5409 -0.4438
vn 0.7582 0.5760 -0.3057
vn -0.8898 0.3192 0.3261
vn 0.6697 0.3885 -0.6329
vn 0.4904 0.2539 -0.8337
vn 0.8584 0.4775 -0.1873
vn 0.8326 0.5276 -0.1685
vn 0.8364 0.5479 0.0146
vn 0.8297 0.4385 0.3456
vn 0.8531 0.1975 0.4830
vn -0.8367 0.4774 0.2685
vn -0.8490 0.5283 -0.0017
vn 0.8383 0.2438 0.4877
vn 0.4562 0.1484 0.8774
vn 0.7036 0.5091 0.4958
vn -0.7245 0.6423 -0.2501
vn -0.7152 0.3078 0.6276
vn -0.6884 0.3408 0.6403
vn -0.6612 0.4212 0.6208
vn 0.7566 0.6231 -0.1980
vn 0.8245 0.5293 0.2000
vn 0.2562 0.3783 -0.8895
vn 0.4436 0.2591 -0.8580
vn 0.7293 0.6166 -0.2966
vn -0.8620 0.3788 -0.3368
vn -0.8643 0.4983 0.0681
vn -0.6980 0.4538 -0.5539
vn -0.5381 0.4677 0.7012
vn -0.8320 0.4408 0.3369
vn 0.3703 0.1543 0.9160
vn -0.8149 0.5395 -0.2119
vn 0.4945 0.4755 0.7275
vn -0.3684 0.2801 -0.8865
vn -0.3161 0.5813 -0.7497
vn -0.5221 0.7278 -0.4446
vn -0.4395 0.2592 0.8600
vn -0.5681 0.2544 0.7826
vn 0.2927 0.6091 -0.7371
vn -0.4588 0.2029 0.8651
vn -0.6790 0.3981 -0.6168
vn -0.8301 0.5159 -0.2118
vn -0.6203 0.7834 -0.0390
vn -0.1366 0.3512 -0.9263
vn -0.4625 0.2237 -0.8579
vn -0.6479 0.4260 -0.6314
vn -0.5563 0.4626 0.6904
vn -0.4571 0.2432 0.8555
vn -0.8470 0.5287 0.0566
vn 0.6592 0.3855 0.6456
vn -0.5171 0.1080 -0.8491
vn 0.7298 0.4552 0.5101
vn 0.8105 0.5012 -0.3031
vn -0.4240 0.2926 -0.8571
vn 0.8452 0.4594 0.2730
vn 0.7992 0.6010 0.0116
vn 0.6123 0.6731 0.4148
vn -0.4085 0.1909 -0.8926
vt 0.879825 0.490153
vt 0.854922 0.475858
vt 0.881485 0.472497
vt 0.666301 0.225129
vt 0.682243 0.201846
vt 0.688813 0.220003
vt 0.853343 0.455394
vt 0.880628 0.450952
vt 0.863846 0.392570
vt 0.846403 0.413964
vt 0.841013 0.397845
vt 0.531247 0.207318
vt 0.525788 0.178866
vt 0.561877 0.200751
vt 0.597058 0.126567
vt 0.580398 0.106923
vt 0.599989 0.104397
vt 0.573708 0.251035
vt 0.576801 0.222252
vt 0.596795 0.243892
vt 0.884045 0.388588
vt 0.872601 0.410370
vt 0.564436 0.129564
vt 0.559869 0.104671
vt 0.593845 0.175501
vt 0.555417 0.153765
vt 0.592652 0.152111
vt 0.851326 0.433482
vt 0.603812 0.216629
vt 0.626271 0.192927
vt 0.632521 0.213968
vt 0.988241 0.406203
vt 0.969884 0.433824
vt 0.962907 0.413284
vt 0.830657 0.440383
vt 0.644930 0.120543
vt 0.618990 0.104497
vt 0.642758 0.098833
vt 0.952977 0.503437
vt 0.932466 0.489601
vt 0.964728 0.480524
vt 0.658346 0.208774
vt 0.674827 0.182454
vt 0.879745 0.429531
vt 0.704995 0.198563
vt 0.711134 0.217547
vt 0.598986 0.196370
vt 0.620816 0.172069
vt 0.667056 0.165370
vt 0.642833 0.146627
vt 0.667221 0.142674
vt 0.927800 0.422643
vt 0.932927 0.444047
vt 0.667188 0.120466
vt 0.686321 0.096052
vt 0.688566 0.120188
vt 0.969669 0.456842
vt 0.895363 0.405718
vt 0.947444 0.395693
vt 0.918389 0.402745
vt 0.644686 0.168650
vt 0.618140 0.149659
vt 0.621543 0.235146
vt 0.643190 0.230320
vt 0.651392 0.188356
vt 0.907088 0.468729
vt 0.905793 0.447456
vt 0.906513 0.489858
vt 0.969598 0.386673
vt 0.903133 0.425729
vt 0.663136 0.098575
vt 0.934187 0.466588
vt 0.542661 0.127723
vt 0.929098 0.508490
vt 0.985944 0.483192
vt 0.995795 0.453519
vt 0.945869 0.367759
vt 0.926968 0.379615
vt 0.551252 0.230771
vt 0.902887 0.383649
vt 0.855983 0.495502
vt 0.833814 0.479394
vt 0.997345 0.426484
vt 0.968999 0.512024
vt 0.855983 0.515046
vt 0.836211 0.496709
vt 0.824659 0.420133
vt 0.820338 0.402899
vt 0.833593 0.459724
vt 0.618556 0.126510
vt 0.876979 0.512093
vt 0.689722 0.137178
vt 0.696958 0.179631
vt 0.899721 0.511671
vt 0.691131 0.159832
vt 0.553194 0.177606
vt 0.529544 0.152427
vt 0.835856 0.517451
s 1
f 397/397/397 398/398/398 399/399/399
f 400/400/400 401/401/401 402/402/402
f 399/399/399 403/403/403 404/404/404
f 405/405/405 406/406/406 407/407/407
f 408/408/408 409/409/409 410/410/410
f 411/411/411 412/412/412 413/413/413
f 414/414/414 415/415/415 416/416/416
f 417/417/417 418/418/418 405/405/405
f 419/419/419 420/420/420 412/412/412
f 421/421/421 422/422/422 423/423/423
f 418/418/418 424/424/424 406/406/406
f 423/423/423 419/419/419 411/411/411
f 430/425/425 431/426/426 432/427/427
f 433/428/428 434/429/429 435/430/430
f 403/403/403 436/431/431 424/424/424
f 437/432/432 438/433/433 439/434/434
f 426/435/435 440/436/436 441/437/437
f 443/438/438 444/439/439 401/401/401
f 404/404/404 424/424/424 445/440/440
f 402/402/402 446/441/441 447/442/442
f 448/443/443 449/444/444 431/426/426
f 450/445/445 451/446/446 452/447/447
f 453/448/448 434/429/429 454/449/449
f 457/450/450 458/451/451 459/452/452
f 460/453/453 454/449/449 434/429/429
f 461/454/454 445/440/440 418/418/418
f 462/455/455 453/448/448 463/456/456
f 464/457/457 465/458/458 451/446/446
f 442/459/459 432/427/427 466/460/460
f 467/461/461 450/445/445 444/439/439
f 468/462/462 404/404/404 469/463/463
f 470/464/464 399/399/399 468/462/462
f 471/465/465 435/430/430 462/455/455
f 416/416/416 430/425/425 442/459/459
f 463/456/456 473/466/466 461/454/454
f 474/467/467 437/432/432 439/434/434
f 440/436/436 468/462/462 475/468/468
f 415/415/415 448/443/443 430/425/425
f 422/422/422 477/469/469 419/419/419
f 452/447/447 437/432/432 457/450/450
f 475/468/468 469/463/463 454/449/449
f 410/410/410 421/421/421 448/443/443
f 425/470/470 470/464/464 440/436/436
f 479/471/471 460/453/453 480/472/472
f 481/473/473 462/455/455 482/474/474
f 483/475/475 410/410/410 415/415/415
f 429/476/476 461/454/454 417/417/417
f 486/477/477 484/478/478 398/398/398
f 480/472/472 434/429/429 487/479/479
f 488/480/480 441/437/437 479/471/471
f 455/481/481 428/482/482 486/477/477
f 424/424/424 489/483/483 406/406/406
f 407/407/407 489/483/483 478/484/484
f 398/398/398 485/485/485 403/403/403
f 449/444/444 423/423/423 465/458/458
f 441/437/437 475/468/468 460/453/453
f 466/460/460 443/438/438 400/400/400
f 465/458/458 411/411/411 491/486/486
f 456/487/487 486/477/477 397/397/397
f 445/440/440 469/463/463 404/404/404
f 432/427/427 467/461/461 443/438/438
f 476/488/488 457/450/450 459/452/452
f 401/401/401 490/489/489 446/441/441
f 472/490/490 397/397/397 470/464/464
f 492/491/491 452/447/447 476/488/488
f 493/492/492 494/493/493 422/422/422
f 444/439/439 492/491/491 490/489/489
f 482/474/474 463/456/456 429/476/476
f 453/448/448 469/463/463 473/466/466
f 431/426/426 464/457/457 467/461/461
f 451/446/446 491/486/486 437/432/432
f 491/486/486 413/413/413 438/433/433
f 397/397/397 486/477/477 398/398/398
f 400/400/400 443/438/438 401/401/401
f 399/399/399 398/398/398 403/403/403
f 405/405/405 418/418/418 406/406/406
f 411/411/411 419/419/419 412/412/412
f 414/414/414 483/475/475 415/415/415
f 417/417/417 461/454/454 418/418/418
f 419/419/419 477/469/469 420/420/420
f 421/421/421 493/492/492 422/422/422
f 418/418/418 445/440/440 424/424/424
f 423/423/423 422/422/422 419/419/419
f 430/425/425 448/443/443 431/426/426
f 433/428/428 487/479/479 434/429/429
f 403/403/403 485/485/485 436/431/431
f 437/432/432 491/486/486 438/433/433
f 426/435/435 425/470/470 440/436/436
f 443/438/438 467/461/461 444/439/439
f 404/404/404 403/403/403 424/424/424
f 402/402/402 401/401/401 446/441/441
f 448/443/443 421/421/421 449/444/444
f 450/445/445 464/457/457 451/446/446
f 453/448/448 435/430/430 434/429/429
f 457/450/450 474/467/467 458/451/451
f 460/453/453 475/468/468 454/449/449
f 461/454/454 473/466/466 445/440/440
f 462/455/455 435/430/430 453/448/448
f 464/457/457 449/444/444 465/458/458
f 442/459/459 430/425/425 432/427/427
f 467/461/461 464/457/457 450/445/445
f 468/462/462 399/399/399 404/404/404
f 470/464/464 397/397/397 399/399/399
f 471/465/465 433/428/428 435/430/430
f 416/416/416 415/415/415 430/425/425
f 463/456/456 453/448/448 473/466/466
f 474/467/467 457/450/450 437/432/432
f 440/436/436 470/464/464 468/462/462
f 415/415/415 410/410/410 448/443/443
f 422/422/422 494/493/493 477/469/469
f 452/447/447 451/446/446 437/432/432
f 475/468/468 468/462/462 469/463/463
f 410/410/410 493/492/492 421/421/421
f 425/470/470 472/490/490 470/464/464
f 479/471/471 441/437/437 460/453/453
f 481/473/473 471/465/465 462/455/455
f 483/475/475 408/408/408 410/410/410
f 429/476/476 463/456/456 461/454/454
f 486/477/477 428/482/482 484/478/478
f 480/472/472 460/453/453 434/429/429
f 488/480/480 426/435/435 441/437/437
f 455/481/481 427/494/494 428/482/482
f 424/424/424 436/431/431 489/483/483
f 407/407/407 406/406/406 489/483/483
f 398/398/398 484/478/478 485/485/485
f 449/444/444 421/421/421 423/423/423
f 441/437/437 440/436/436 475/468/468
f 466/460/460 432/427/427 443/438/438
f 465/458/458 423/423/423 411/411/411
f 456/487/487 455/481/481 486/477/477
f 445/440/440 473/466/466 469/463/463
f 432/427/427 431/426/426 467/461/461
f 476/488/488 452/447/447 457/450/450
f 401/401/401 444/439/439 490/489/489
f 472/490/490 456/487/487 397/397/397
f 492/491/491 450/445/445 452/447/447
f 493/492/492 409/409/409 494/493/493
f 444/439/439 450/445/445 492/491/491
f 482/474/474 462/455/455 463/456/456
f 453/448/448 454/449/449 469/463/463
f 431/426/426 449/444/444 464/457/457
f 451/446/446 465/458/458 491/486/486
f 491/486/486 411/411/411 413/413/413
f 409/409/409 493/492/492 410/410/410
o SKEL_ROOT.003
v 0.285171 0.398766 -0.118300
v 0.269620 0.437455 -0.088106
v 0.282277 0.401396 -0.087332
v 0.274210 0.395995 -0.006525
v 0.272290 0.440387 -0.031167
v 0.259262 0.422159 -0.009768
v 0.269726 0.378889 -0.128618
v 0.288594 0.354034 -0.128321
v 0.266161 0.425666 -0.115517
v 0.285560 0.407210 -0.032754
v 0.272143 0.443749 -0.059896
v 0.249285 0.400785 0.006228
v 0.251646 0.400075 -0.121399
v 0.282074 0.404944 -0.060085
v 0.256658 0.375951 0.000514
v 0.301271 0.382181 -0.060609
v 0.300883 0.380055 -0.034184
v 0.302189 0.378465 -0.086351
v 0.303846 0.372843 -0.118243
v 0.274796 0.352207 0.001856
v 0.295256 0.370465 -0.007420
v 0.306181 0.329576 -0.129699
v 0.321349 0.353623 -0.084362
v 0.315020 0.352772 -0.062026
v 0.290677 0.330190 0.009581
v 0.320692 0.343101 -0.111905
v 0.299281 0.337775 -0.017775
v 0.305640 0.346627 -0.040353
v 0.321559 0.306086 -0.126509
v 0.330057 0.317811 -0.104989
v 0.326919 0.327959 -0.035571
v 0.336130 0.329412 -0.084538
v 0.334166 0.333769 -0.060577
v 0.316884 0.317485 -0.017632
v 0.307772 0.308738 0.004892
v 0.230101 0.422368 -0.122096
v 0.220474 0.485193 -0.119691
v 0.242895 0.449970 -0.106778
v 0.216656 0.449107 -0.143253
v 0.218682 0.438697 0.014158
v 0.235890 0.424624 0.011037
v 0.223176 0.471640 -0.000470
v 0.243558 0.450772 -0.006328
v 0.227220 0.499740 -0.020784
v 0.250743 0.472416 -0.029593
v 0.221696 0.511971 -0.052256
v 0.256601 0.475227 -0.088956
v 0.248485 0.480663 -0.058946
v 0.229717 0.514809 -0.091302
v -0.267107 0.434905 -0.089183
v -0.281956 0.395473 -0.112845
v -0.278928 0.401773 -0.086400
v -0.278774 0.394812 -0.013630
v -0.272769 0.437099 -0.032211
v -0.288514 0.407980 -0.029954
v -0.272643 0.377123 -0.135674
v -0.291309 0.354694 -0.131910
v -0.265033 0.423709 -0.117477
v -0.269249 0.439520 -0.060087
v -0.283489 0.406505 -0.060230
v -0.251355 0.398835 0.008747
v -0.261444 0.373520 0.003347
v -0.252153 0.400652 -0.139650
v -0.259760 0.422607 -0.013964
v -0.299566 0.378232 -0.027000
v -0.294584 0.374823 -0.059718
v -0.294944 0.372765 -0.086057
v -0.304637 0.373108 -0.111444
v -0.273261 0.348910 -0.001235
v -0.292253 0.369954 -0.009808
v -0.304145 0.329842 -0.122699
v -0.322335 0.350480 -0.085236
v -0.317827 0.348873 -0.059790
v -0.287796 0.326108 -0.001115
v -0.304047 0.342759 -0.004044
v -0.322118 0.346954 -0.111309
v -0.311445 0.350014 -0.025824
v -0.320624 0.308087 -0.124735
v -0.327402 0.317904 -0.105473
v -0.334823 0.330503 -0.059913
v -0.333760 0.330524 -0.033507
v -0.305325 0.305803 0.001116
v -0.338191 0.327337 -0.086777
v -0.323074 0.319930 -0.008531
v -0.208360 0.484255 -0.121536
v -0.225259 0.420871 -0.138380
v -0.241079 0.452901 -0.124360
v -0.198395 0.442688 -0.139261
v -0.221041 0.442905 0.011725
v -0.236795 0.422997 0.011917
v -0.224401 0.469315 0.000975
v -0.245533 0.448248 -0.005954
v -0.225439 0.497838 -0.022087
v -0.253233 0.466958 -0.028675
v -0.216105 0.505419 -0.055490
v -0.247351 0.469524 -0.059404
v -0.250878 0.470249 -0.093746
v -0.219756 0.509734 -0.094866
vn 0.7156 0.4498 -0.5344
vn 0.9083 0.4046 -0.1059
vn 0.8873 0.4594 -0.0399
vn 0.5011 0.3348 0.7980
vn 0.8184 0.4561 0.3494
vn 0.6086 0.3083 0.7312
vn 0.1734 0.2397 -0.9552
vn 0.4088 0.4266 -0.8068
vn 0.8785 0.4430 0.1787
vn 0.9182 0.3895 -0.0717
vn 0.8785 0.4683 -0.0944
vn 0.4041 0.1362 0.9045
vn 0.5735 0.1364 0.8078
vn 0.8409 0.5410 0.0125
vn 0.9363 0.2605 0.2354
vn 0.7940 0.6008 -0.0930
vn 0.7467 0.4858 -0.4544
vn 0.2534 0.1567 -0.9546
vn 0.0960 0.2225 0.9702
vn 0.7389 0.3002 0.6032
vn 0.8631 0.4992 -0.0761
vn 0.8231 0.5071 0.2555
vn 0.4748 0.2457 0.8451
vn 0.8389 0.3843 -0.3855
vn 0.9099 0.2463 0.3338
vn 0.3093 0.1092 -0.9447
vn 0.7801 0.4200 0.4638
vn 0.5670 0.0591 -0.8216
vn 0.8159 0.3030 -0.4925
vn 0.6388 0.6014 0.4799
vn 0.7502 0.6055 -0.2656
vn 0.7458 0.6532 0.1310
vn 0.6562 0.5609 0.5048
vn 0.5075 0.1465 0.8491
vn 0.7344 0.2283 -0.6392
vn 0.6926 0.3042 -0.6541
vn 0.4813 0.3078 -0.8207
vn 0.4583 0.1813 0.8701
vn 0.5385 0.3609 0.7615
vn 0.4420 0.1932 0.8759
vn 0.6630 0.3432 0.6653
vn 0.6500 0.5466 0.5279
vn 0.7715 0.5205 0.3657
vn 0.8038 0.5787 0.1383
vn 0.8185 0.5188 -0.2467
vn 0.8376 0.5431 0.0596
vn 0.6806 0.6047 -0.4136
vn 0.1619 0.3123 -0.9361
vn -0.8984 0.4283 -0.0969
vn -0.7776 0.4836 -0.4017
vn -0.8893 0.4536 -0.0579
vn -0.5024 0.3172 0.8043
vn -0.8047 0.5096 0.3045
vn -0.8862 0.4278 0.1779
vn -0.7511 0.4114 -0.5164
vn -0.4806 0.1859 -0.8570
vn -0.8765 0.4626 -0.1331
vn -0.9135 0.3712 -0.1667
vn -0.5646 0.1880 0.8037
vn -0.6827 0.3062 0.6634
vn -0.8950 0.4379 0.0846
vn -0.8227 0.5648 -0.0641
vn -0.8111 0.5838 0.0344
vn -0.7838 0.5074 -0.3580
vn -0.4522 0.1071 -0.8855
vn -0.4268 0.1811 0.8860
vn -0.4233 0.3117 0.8507
vn -0.7818 0.6204 -0.0626
vn -0.7928 0.6058 0.0661
vn -0.1615 0.1900 0.9684
vn -0.5476 0.3832 0.7438
vn -0.8003 0.4511 -0.3951
vn -0.7947 0.5653 0.2211
vn -0.2877 0.0913 -0.9534
vn -0.3540 0.1138 -0.9283
vn -0.8250 0.2924 -0.4837
vn -0.7430 0.6692 -0.0107
vn -0.7917 0.4973 0.3548
vn -0.8170 0.5208 -0.2476
vn -0.2825 0.0863 0.9554
vn -0.6172 0.2479 0.7468
vn -0.2449 0.4453 -0.8612
vn -0.1271 0.1812 -0.9752
vn -0.5046 0.4418 -0.7418
vn -0.4042 0.1866 0.8954
vn -0.5700 0.3836 0.7266
vn -0.6910 0.3606 0.6265
vn -0.7458 0.5824 0.3235
vn -0.7925 0.5630 0.2342
vn -0.7971 0.6034 0.0259
vn -0.8095 0.5866 -0.0247
vn -0.8197 0.5533 -0.1483
vn -0.6393 0.6695 -0.3783
vn -0.5956 0.1693 0.7852
vn -0.2725 0.2022 -0.9407
vn 0.6221 0.1218 -0.7734
vn -0.3054 0.2420 -0.9210
vn -0.3782 0.2109 0.9014
vt 0.685416 0.316751
vt 0.664810 0.346292
vt 0.663713 0.319254
vt 0.603230 0.319045
vt 0.624661 0.347258
vt 0.603916 0.340528
vt 0.703697 0.311309
vt 0.685036 0.339858
vt 0.625018 0.322101
vt 0.644682 0.349429
vt 0.644617 0.321377
vt 0.584679 0.312782
vt 0.585765 0.331508
vt 0.644588 0.300157
vt 0.626261 0.299785
vt 0.662551 0.297682
vt 0.684700 0.294644
vt 0.702006 0.289547
vt 0.587236 0.291731
vt 0.606691 0.296287
vt 0.661549 0.275142
vt 0.644917 0.276442
vt 0.589372 0.271869
vt 0.681896 0.270641
vt 0.610046 0.272516
vt 0.700587 0.268762
vt 0.627389 0.275592
vt 0.699288 0.249725
vt 0.680581 0.250757
vt 0.626929 0.255288
vt 0.663223 0.254771
vt 0.645735 0.256789
vt 0.610708 0.253523
vt 0.592615 0.252697
vt 0.707704 0.352744
vt 0.693050 0.394702
vt 0.686788 0.364401
vt 0.584467 0.350987
vt 0.596802 0.383887
vt 0.578753 0.365666
vt 0.602999 0.363818
vt 0.616076 0.399389
vt 0.623286 0.374274
vt 0.638268 0.409267
vt 0.665229 0.374456
vt 0.643887 0.380303
vt 0.666598 0.408135
vt 0.704517 0.331370
vt 0.831808 0.679435
vt 0.813747 0.650542
vt 0.832788 0.654729
vt 0.888749 0.649759
vt 0.871792 0.678124
vt 0.873302 0.654909
vt 0.811244 0.673729
vt 0.792966 0.644024
vt 0.852367 0.681141
vt 0.851807 0.655920
vt 0.910735 0.643072
vt 0.889892 0.673688
vt 0.875537 0.632421
vt 0.852101 0.632284
vt 0.833931 0.631587
vt 0.815724 0.628385
vt 0.795617 0.624070
vt 0.909803 0.623383
vt 0.889736 0.629439
vt 0.833491 0.606841
vt 0.851743 0.607597
vt 0.908819 0.604206
vt 0.892957 0.608349
vt 0.815297 0.606984
vt 0.876182 0.610342
vt 0.796503 0.603640
vt 0.798962 0.584569
vt 0.814901 0.586390
vt 0.850498 0.589757
vt 0.868921 0.589590
vt 0.831539 0.587207
vt 0.905418 0.585217
vt 0.888746 0.587385
vt 0.800782 0.731202
vt 0.781279 0.687249
vt 0.804961 0.699704
vt 0.912377 0.682645
vt 0.900395 0.715418
vt 0.893718 0.694865
vt 0.879875 0.732132
vt 0.874294 0.703091
vt 0.855792 0.741234
vt 0.852950 0.707380
vt 0.829166 0.706610
vt 0.826755 0.741755
vt 0.911016 0.662746
vt 0.788736 0.665229
vt 0.717589 0.376452
vt 0.774095 0.710460
vt 0.914468 0.700434
s 1
f 495/495/495 496/496/496 497/497/497
f 498/498/498 499/499/499 500/500/500
f 501/501/501 503/502/502 495/495/495
f 504/503/503 505/504/504 499/499/499
f 497/497/497 505/504/504 508/505/505
f 509/506/506 500/500/500 506/507/507
f 510/508/508 504/503/503 511/509/509
f 512/510/510 508/505/505 510/508/508
f 513/511/511 497/497/497 512/510/510
f 502/512/512 495/495/495 513/511/511
f 514/513/513 498/498/498 509/506/506
f 515/514/514 504/503/503 498/498/498
f 517/515/515 510/508/508 518/516/516
f 519/517/517 515/514/514 514/513/513
f 520/518/518 512/510/510 517/515/515
f 521/519/519 511/509/509 515/514/514
f 516/520/520 513/511/511 520/518/518
f 518/516/516 511/509/509 522/521/521
f 523/522/522 520/518/518 524/523/523
f 525/524/524 518/516/516 522/521/521
f 526/525/525 518/516/516 527/526/526
f 528/527/527 519/517/517 529/528/528
f 524/523/523 517/515/515 526/525/525
f 528/527/527 522/521/521 521/519/519
f 530/529/529 531/530/530 532/531/531
f 535/532/532 536/533/533 534/534/534
f 537/535/535 538/536/536 536/533/533
f 539/537/537 540/538/538 538/536/536
f 541/539/539 540/538/538 542/540/540
f 532/531/531 543/541/541 541/539/539
f 506/507/507 537/535/535 535/532/532
f 500/500/500 539/537/537 537/535/535
f 499/499/499 542/540/540 539/537/537
f 496/496/496 542/540/540 505/504/504
f 503/502/502 541/539/539 496/496/496
f 507/542/542 532/531/531 503/502/502
f 544/543/543 545/544/544 546/545/545
f 547/546/546 548/547/547 549/548/548
f 552/549/549 550/550/550 545/544/544
f 549/548/548 553/551/551 554/552/552
f 553/551/551 546/545/545 554/552/552
f 556/553/553 558/554/554 547/546/546
f 559/555/555 554/552/552 560/556/556
f 554/552/552 561/557/557 560/556/556
f 546/545/545 562/558/558 561/557/557
f 545/544/544 551/559/559 562/558/558
f 563/560/560 547/546/546 564/561/561
f 564/561/561 549/548/548 559/555/555
f 560/556/556 566/562/562 567/563/563
f 568/564/564 564/561/561 569/565/565
f 561/557/557 570/566/566 566/562/562
f 569/565/565 559/555/555 571/567/567
f 562/558/558 565/568/568 570/566/566
f 559/555/555 567/563/563 571/567/567
f 570/566/566 572/569/569 573/570/570
f 571/567/567 574/571/571 575/572/572
f 567/563/563 577/573/573 574/571/571
f 576/574/574 569/565/565 578/575/575
f 566/562/562 573/570/570 577/573/573
f 569/565/565 575/572/572 578/575/575
f 579/576/576 580/577/577 581/578/578
f 584/579/579 585/580/580 586/581/581
f 586/581/581 587/582/582 588/583/583
f 588/583/583 589/584/584 590/585/585
f 589/584/584 591/586/586 590/585/585
f 592/587/587 581/578/578 591/586/586
f 555/588/588 586/581/581 558/554/554
f 558/554/554 588/583/583 548/547/547
f 548/547/547 590/585/585 553/551/551
f 590/585/585 544/543/543 553/551/551
f 591/586/586 552/549/549 544/543/543
f 581/578/578 557/589/589 552/549/549
f 495/495/495 503/502/502 496/496/496
f 498/498/498 504/503/503 499/499/499
f 501/501/501 507/542/542 503/502/502
f 504/503/503 508/505/505 505/504/504
f 497/497/497 496/496/496 505/504/504
f 509/506/506 498/498/498 500/500/500
f 510/508/508 508/505/505 504/503/503
f 512/510/510 497/497/497 508/505/505
f 513/511/511 495/495/495 497/497/497
f 502/512/512 501/501/501 495/495/495
f 514/513/513 515/514/514 498/498/498
f 515/514/514 511/509/509 504/503/503
f 517/515/515 512/510/510 510/508/508
f 519/517/517 521/519/519 515/514/514
f 520/518/518 513/511/511 512/510/510
f 521/519/519 522/521/521 511/509/509
f 516/520/520 502/512/512 513/511/511
f 518/516/516 510/508/508 511/509/509
f 523/522/522 516/520/520 520/518/518
f 525/524/524 527/526/526 518/516/516
f 526/525/525 517/515/515 518/516/516
f 528/527/527 521/519/519 519/517/517
f 524/523/523 520/518/518 517/515/515
f 528/527/527 525/524/524 522/521/521
f 530/529/529 533/590/590 531/530/530
f 535/532/532 537/535/535 536/533/533
f 537/535/535 539/537/537 538/536/536
f 539/537/537 542/540/540 540/538/538
f 541/539/539 543/541/541 540/538/538
f 532/531/531 531/530/530 543/541/541
f 506/507/507 500/500/500 537/535/535
f 500/500/500 499/499/499 539/537/537
f 499/499/499 505/504/504 542/540/540
f 496/496/496 541/539/539 542/540/540
f 503/502/502 532/531/531 541/539/539
f 507/542/542 530/529/529 532/531/531
f 544/543/543 552/549/549 545/544/544
f 547/546/546 558/554/554 548/547/547
f 552/549/549 557/589/589 550/550/550
f 549/548/548 548/547/547 553/551/551
f 553/551/551 544/543/543 546/545/545
f 556/553/553 555/588/588 558/554/554
f 559/555/555 549/548/548 554/552/552
f 554/552/552 546/545/545 561/557/557
f 546/545/545 545/544/544 562/558/558
f 545/544/544 550/550/550 551/559/559
f 563/560/560 556/553/553 547/546/546
f 564/561/561 547/546/546 549/548/548
f 560/556/556 561/557/557 566/562/562
f 568/564/564 563/560/560 564/561/561
f 561/557/557 562/558/558 570/566/566
f 569/565/565 564/561/561 559/555/555
f 562/558/558 551/559/559 565/568/568
f 559/555/555 560/556/556 567/563/563
f 570/566/566 565/568/568 572/569/569
f 571/567/567 567/563/563 574/571/571
f 567/563/563 566/562/562 577/573/573
f 576/574/574 568/564/564 569/565/565
f 566/562/562 570/566/566 573/570/570
f 569/565/565 571/567/567 575/572/572
f 579/576/576 582/591/591 580/577/577
f 584/579/579 583/592/592 585/580/580
f 586/581/581 585/580/580 587/582/582
f 588/583/583 587/582/582 589/584/584
f 589/584/584 592/587/587 591/586/586
f 592/587/587 579/576/576 581/578/578
f 555/588/588 584/579/579 586/581/581
f 558/554/554 586/581/581 588/583/583
f 548/547/547 588/583/583 590/585/585
f 590/585/585 591/586/586 544/543/543
f 591/586/586 581/578/578 552/549/549
f 581/578/578 580/577/577 557/589/589
